<?xml version="1.0" encoding="utf-8"?>
<!-- Generator: Adobe Illustrator 25.2.1, SVG Export Plug-In . SVG Version: 6.00 Build 0)  -->
<svg version="1.1" xmlns="http://www.w3.org/2000/svg" xmlns:xlink="http://www.w3.org/1999/xlink" x="0px" y="0px"
	 viewBox="0 0 953.6 289.3" style="enable-background:new 0 0 953.6 289.3;" xml:space="preserve">
<style type="text/css">
	.st0{fill:#F7901E;}
	.st1{fill:#1C2B39;}
	.st2{fill:#266091;}
</style>
<g id="Logos">
	<g>
		<path class="st0" d="M893,108.2l-56-56v35.5l30.3,30.3c6.1,6.1,9.5,14.3,9.5,23v10.5c0,7.1-2.3,13.9-6.5,19.5l22.7-22.7
			C904.1,137.3,904.1,119.3,893,108.2z"/>
		<path class="st1" d="M863,122.3l-3.3-3.3c3.2,4.9,2.7,11.6-1.7,16l-54.3,54.3H837v7l26-26c5-5,7.8-11.7,7.8-18.7V141
			C870.8,134,868,127.3,863,122.3z"/>
		<g>
			<path class="st1" d="M304.5,118.9c5.1-0.7,12.3-1.4,17.6-1.4c16.6,0,26.5,6,26.5,19.5c0,8.6-5.8,14.5-13.7,15.7
				c10,0.8,16.8,6.7,16.8,16.9c0,12.3-9,20.3-30.8,20.3c-5.7,0-11.8-0.6-16.4-1.3V118.9z M316.2,148.6h5.7c9.8,0,14.9-3.8,14.9-11
				c0-6.8-5.3-10.1-13.9-10.1c-2,0-4.7,0.2-6.6,0.5V148.6z M316.2,179.5c2.2,0.2,4.7,0.4,6.3,0.4c11.3,0,17.1-3.7,17.1-11
				c0-7.6-6.3-10.5-15.8-10.5h-7.6V179.5z"/>
			<path class="st1" d="M402.2,187.5c-6.1,1.5-14.2,2.4-20.3,2.4c-15,0-24.2-4.8-24.2-19.5v-34h11.6v33.2c0,7.8,4.7,10.6,12.4,10.6
				c2.6,0,5.9-0.2,9-0.7v-43.1h11.6V187.5z"/>
			<path class="st1" d="M411.3,174.6c4.8,3.7,10.6,5.9,15.9,5.9c5.2,0,8.6-1.8,8.6-5.9c0-4.2-3.1-5.8-9.8-7.6
				c-10.9-2.5-15.5-6.8-15.5-15.9c0-10.6,8-15.8,18.6-15.8c5.9,0,10.6,1.3,15,4V150c-4.6-3.3-9.1-5.3-14.6-5.3
				c-5.1,0-7.8,2.5-7.8,5.9c0,3.4,2.2,5.2,8.3,6.8c11.9,2.6,17.1,7.1,17.1,16.5c0,11-8.4,15.9-19.7,15.9c-6.1,0-12.3-1.7-16.2-4.2
				V174.6z"/>
			<path class="st1" d="M453.7,120.4c0-4,3.4-7.2,7.3-7.2s7.3,3.2,7.3,7.2c0,4.1-3.4,7.4-7.3,7.4S453.7,124.5,453.7,120.4z
				 M466.9,188.7h-11.7v-52.3h11.7V188.7z"/>
			<path class="st1" d="M477.7,139.7c7.3-2.8,16.3-4.5,24-4.5c13.3,0,21.8,5.1,21.8,19.8v33.6h-11.6v-32.6c0-7.6-4.7-10.3-11.2-10.3
				c-4.1,0-8.3,0.6-11.3,1.5v41.3h-11.7V139.7z"/>
			<path class="st1" d="M542.3,165.2v0.2c0.7,9.3,8.7,14.4,16.9,14.4c7.2,0,12.4-1.7,17.6-5.1v10.3c-4.7,3.3-11.7,4.8-18.4,4.8
				c-16.3,0-27.4-10.4-27.4-26.9c0-16.6,10.9-27.7,25.3-27.7c15.2,0,22.4,9.8,22.4,24.1v5.9H542.3z M567.6,157.7
				c-0.2-8.1-4.2-12.6-11.8-12.6c-6.7,0-11.7,4.7-13.2,12.6H567.6z"/>
			<path class="st1" d="M586.8,174.6c4.8,3.7,10.6,5.9,15.9,5.9c5.2,0,8.6-1.8,8.6-5.9c0-4.2-3.1-5.8-9.8-7.6
				c-10.9-2.5-15.5-6.8-15.5-15.9c0-10.6,8-15.8,18.6-15.8c5.9,0,10.6,1.3,15,4V150c-4.6-3.3-9.1-5.3-14.6-5.3
				c-5.1,0-7.8,2.5-7.8,5.9c0,3.4,2.2,5.2,8.3,6.8c11.9,2.6,17.1,7.1,17.1,16.5c0,11-8.4,15.9-19.7,15.9c-6.1,0-12.3-1.7-16.2-4.2
				V174.6z"/>
			<path class="st1" d="M629.5,174.6c4.8,3.7,10.6,5.9,15.9,5.9c5.2,0,8.6-1.8,8.6-5.9c0-4.2-3.1-5.8-9.8-7.6
				c-10.9-2.5-15.5-6.8-15.5-15.9c0-10.6,8-15.8,18.6-15.8c5.9,0,10.6,1.3,15,4V150c-4.6-3.3-9.1-5.3-14.6-5.3
				c-5.1,0-7.8,2.5-7.8,5.9c0,3.4,2.2,5.2,8.3,6.8c11.9,2.6,17.1,7.1,17.1,16.5c0,11-8.4,15.9-19.7,15.9c-6.1,0-12.3-1.7-16.2-4.2
				V174.6z"/>
			<path class="st1" d="M723.5,170.6v-51.4h11.6v69.5h-11.5l-35.7-50.9v50.9h-11.6v-69.5h12.2L723.5,170.6z"/>
			<path class="st1" d="M743.4,119.2h49.1v10.4l-36.7,48.6h37.8v10.5h-51.2v-10.5l36.2-48.4h-35.1V119.2z"/>
		</g>
		<g>
			<path class="st1" d="M534.7,234.3v2.8h-17.8v-30.9h17.6v2.8h-14.4v10.9h13.4v2.8h-13.4v11.5H534.7z"/>
			<path class="st1" d="M539.7,215.6c3-1.1,6.4-1.7,9.5-1.7c5.7,0,9.2,2.2,9.2,7.9v15.3h-3.1v-14.7c0-4.6-3.3-5.6-6.3-5.6
				c-2.4,0-4.5,0.4-6.1,0.8v19.4h-3.1V215.6z"/>
			<path class="st1" d="M565.9,225.9v0.1c0,5.6,4,8.8,8.4,8.8c3.2,0,5.5-0.8,7.7-2.5v3.1c-2,1.5-4.9,2.2-7.7,2.2
				c-6.6,0-11.5-4.5-11.5-11.9c0-6.8,4.7-11.9,10.8-11.9c5.7,0,9.5,3.4,9.5,9.9v2.1H565.9z M579.9,223.3c-0.2-4.7-2.8-6.7-6.6-6.7
				c-3.5,0-6.4,2.4-7.3,6.7H579.9z"/>
			<path class="st1" d="M590.6,237.1h-3.1v-20.6c2.4-1.5,5.3-2.4,8.4-2.4c1.2,0,2.5,0.2,3.8,0.5v3.1c-1.4-0.5-3-0.6-4-0.6
				c-2.2,0-3.9,0.5-5.1,1.1V237.1z"/>
			<path class="st1" d="M617.9,236.3c-0.8,0.5-2.9,1-4.7,1c-7.4,0-12.6-3.9-12.6-11.6c0-7.3,5.1-11.8,13.1-11.8
				c2.3,0,5.5,0.6,7.4,1.5v22c0,6.9-5.2,9.6-10.4,9.6c-2.8,0-5.4-0.6-7-1.4v-3c2,0.9,4.6,1.7,7,1.7c3.7,0,7.3-1.8,7.3-7.5V236.3z
				 M617.9,217.4c-1.2-0.4-2.7-0.7-4.3-0.7c-6.3,0-9.9,3.3-9.9,8.9c0,5.5,3.6,8.9,9.5,8.9c1.9,0,3.1-0.3,4.7-0.9V217.4z"/>
			<path class="st1" d="M634.7,235l7.5-20.6h3.2l-12.3,32H630l3.1-7.9l-9.5-24.2h3.4L634.7,235z"/>
			<path class="st1" d="M679.3,211.7c-2.2-2.1-5.3-3.2-8.6-3.2c-7,0-12.6,5.1-12.6,13.1c0,8,5.7,13.1,12.6,13.1c3.3,0,6.5-1,8.7-3.1
				v3.7c-2.4,1.5-5.6,2.3-8.7,2.3c-9.4,0-16-6.5-16-16c0-9.5,7.1-16,16-16c3.1,0,6,0.8,8.5,2.3V211.7z"/>
			<path class="st1" d="M694.2,213.9c6.8,0,11.4,4.8,11.4,11.9c0,7-4.6,11.9-11.4,11.9c-6.8,0-11.4-4.8-11.4-11.9
				C682.8,218.7,687.4,213.9,694.2,213.9z M694.2,216.6c-4.8,0-8.2,3.6-8.2,9.2c0,5.5,3.4,9.2,8.2,9.2s8.2-3.6,8.2-9.2
				C702.4,220.2,698.9,216.6,694.2,216.6z"/>
			<path class="st1" d="M727.8,236.8c-2.8,0.5-5.6,0.8-7.9,0.8c-6.6,0-10.3-2.2-10.3-7.9v-15.3h3.1v15.1c0,4.3,3.4,5.4,7,5.4
				c1.6,0,3.3-0.1,5-0.3v-20.2h3.1V236.8z"/>
			<path class="st1" d="M734.1,215.6c3-1.1,6.4-1.7,9.5-1.7c5.7,0,9.2,2.2,9.2,7.9v15.3h-3.1v-14.7c0-4.6-3.3-5.6-6.3-5.6
				c-2.4,0-4.5,0.4-6.1,0.8v19.4h-3.1V215.6z"/>
			<path class="st1" d="M775.4,218.9c-1.9-1.4-4.2-2.1-6.3-2.1c-4.7,0-8.7,3.1-8.7,9c0,5.7,4,8.9,8.9,8.9c2.4,0,4.4-0.8,6.5-2.1v3.3
				c-2.2,1.1-4.4,1.7-6.8,1.7c-6.3,0-11.8-4.4-11.8-11.9c0-7.6,5.6-11.9,11.8-11.9c2.5,0,4.5,0.6,6.5,1.7V218.9z"/>
			<path class="st1" d="M779.4,207.3c0-1.3,1.1-2.3,2.3-2.3c1.3,0,2.3,1,2.3,2.3c0,1.2-1,2.3-2.3,2.3
				C780.5,209.7,779.4,208.6,779.4,207.3z M783.3,237.1h-3.1v-22.7h3.1V237.1z"/>
			<path class="st1" d="M792.7,237.1h-3.1v-35.4h3.1V237.1z"/>
		</g>
	</g>
	<g>
		<g>
			<g>
				<path class="st0" d="M88.6,119.9L88.6,119.9c-0.3-0.6,0.1-0.9,0.6-0.9h4.9c0.3,0,0.6,0.1,0.6,0.4l3.7,14h0.1L105,119
					c0.1-0.3,0.4-0.5,0.8-0.5h0.8c0.4,0,0.6,0.3,0.6,0.5l6.5,14.4h0.1l3.6-14c0.1-0.3,0.4-0.4,0.8-0.4h4.8c0.6,0,0.9,0.3,0.8,0.8
					l-7.9,27.7c0,0.3-0.4,0.5-0.6,0.5h-0.8c-0.3,0-0.5-0.1-0.6-0.4l-7.6-16.9H106l-7.5,16.9c-0.1,0.3-0.4,0.4-0.8,0.4h-0.6
					c-0.4,0-0.6-0.3-0.8-0.5L88.6,119.9z"/>
			</g>
			<g>
				<path class="st0" d="M140.7,141.5L140.7,141.5c4.6,0,8.3-3.8,8.3-8.3c0-4.4-3.7-8.3-8.3-8.3c-4.6,0-8.3,3.8-8.3,8.3
					C132.5,137.7,136.2,141.5,140.7,141.5z M140.7,118.5L140.7,118.5c8.3,0,14.9,6.5,14.9,14.7c0,8.3-6.6,14.7-14.9,14.7
					c-8.3,0-14.9-6.5-14.9-14.7C125.9,125.1,132.5,118.5,140.7,118.5z"/>
			</g>
			<g>
				<path class="st0" d="M173.2,131.1L173.2,131.1c1.6,0,3.2-1.5,3.2-3.3c0-1.7-1.5-3-3.2-3h-6.1v6.4H173.2z M160.7,119.7
					L160.7,119.7c0-0.4,0.3-0.6,0.8-0.6h12.3c5,0,9,3.8,9,8.6c0,3.8-2.5,6.9-6.1,8.3l5.7,10.5c0.3,0.5,0,1.1-0.8,1.1h-5.5
					c-0.4,0-0.6-0.3-0.6-0.4l-5.6-10.9h-2.8v10.5c0,0.4-0.4,0.8-0.8,0.8h-5c-0.5,0-0.8-0.4-0.8-0.8V119.7z"/>
			</g>
			<g>
				<path class="st0" d="M188.3,119.7L188.3,119.7c0-0.4,0.4-0.6,0.8-0.6h4.9c0.4,0,0.8,0.3,0.8,0.6v21.8h9.9c0.4,0,0.8,0.4,0.8,0.9
					v4.4c0,0.4-0.4,0.8-0.8,0.8h-15.6c-0.4,0-0.8-0.4-0.8-0.8V119.7z"/>
			</g>
			<g>
				<path class="st0" d="M220,141.5L220,141.5c4.7,0,8-3.7,8-8.4c0-4.6-3.3-8.3-8-8.3h-4.1l0.1,16.6H220z M209.5,119.7L209.5,119.7
					c0-0.4,0.3-0.6,0.6-0.6h10.2c8,0,14.5,6.2,14.5,14.1c0,8-6.5,14.5-14.5,14.5h-10c-0.5,0-0.8-0.4-0.8-0.8V119.7z"/>
			</g>
			<g>
				<path class="st0" d="M76.1,165L76.1,165c0-0.4,0.4-0.8,0.9-0.8h17.1c0.4,0,0.8,0.4,0.8,0.8v4.4c0,0.5-0.4,0.9-0.8,0.9H82.6v5.1
					h9.5c0.4,0,0.8,0.4,0.8,0.8v4.4c0,0.5-0.4,0.8-0.8,0.8h-9.5v5.6h11.5c0.4,0,0.8,0.4,0.8,0.8v4.4c0,0.4-0.4,0.8-0.8,0.8H77
					c-0.5,0-0.9-0.4-0.9-0.8V165z"/>
			</g>
			<g>
				<path class="st0" d="M100.4,164.6L100.4,164.6c0-0.5,0.4-0.8,0.8-0.8h1.1l16.5,15.7V165c0-0.4,0.4-0.8,0.8-0.8h5
					c0.4,0,0.8,0.4,0.8,0.8v27.7c0,0.4-0.3,0.8-0.8,0.8h-0.6c-0.1,0-0.5-0.1-0.5-0.3L107,177v15.2c0,0.4-0.4,0.8-0.8,0.8h-5
					c-0.5,0-0.8-0.4-0.8-0.8L100.4,164.6z"/>
			</g>
			<g>
				<path class="st0" d="M132,165L132,165c0-0.4,0.4-0.8,0.9-0.8h17c0.5,0,0.9,0.4,0.9,0.8v4.4c0,0.5-0.4,0.8-0.9,0.8h-11.4v5.2h9.5
					c0.4,0,0.8,0.3,0.8,0.8v4.4c0,0.5-0.4,0.8-0.8,0.8h-9.5v5.6h11.4c0.5,0,0.9,0.4,0.9,0.8v4.4c0,0.4-0.4,0.8-0.8,0.8h-17.1
					c-0.5,0-0.9-0.4-0.9-0.8V165z"/>
			</g>
			<g>
				<path class="st0" d="M168.9,176.6L168.9,176.6c1.6,0,3.2-1.6,3.2-3.3c0-1.8-1.5-3.2-3.2-3.2h-6.1v6.5H168.9z M156.2,165
					L156.2,165c0-0.4,0.4-0.8,0.9-0.8h12.3c4.9,0,9,3.9,9,8.9c0,3.7-2.5,6.7-6.1,8.3l5.7,10.4c0.3,0.5,0,1.1-0.8,1.1h-5.5
					c-0.4,0-0.6-0.1-0.8-0.4l-5.5-10.8h-2.8v10.4c0,0.4-0.4,0.8-0.9,0.8h-4.8c-0.5,0-0.9-0.4-0.9-0.8V165z"/>
			</g>
			<g>
				<path class="st0" d="M196.9,163.9L196.9,163.9c3.4,0,7.2,1.4,10,3.8c0.4,0.4,0.4,0.8,0.1,1.1l-3.3,3.4c-0.4,0.4-0.8,0.4-1.1,0.1
					c-1.5-1.5-3.4-2-5.3-2c-4.6,0-8.3,3.8-8.3,8.3c0,4.6,3.7,8.3,8.3,8.3c1.1,0,2.4-0.3,3.7-0.6v-2.4h-2.7c-0.4,0-0.8-0.4-0.8-0.8
					V179c0-0.5,0.4-0.8,0.8-0.8h8.4c0.4,0,0.8,0.4,0.8,0.8v11c0,0.3-0.1,0.5-0.4,0.6c0,0-4.2,2.7-10.2,2.7
					c-8.3,0-14.9-6.5-14.9-14.7C182,170.5,188.6,163.9,196.9,163.9z"/>
			</g>
			<g>
				<path class="st0" d="M218.4,179.1L218.4,179.1l-9.1-13.7c-0.4-0.5,0-1.1,0.6-1.1h5.3c0.4,0,0.6,0.1,0.8,0.4l5.7,8.4l5.7-8.4
					c0.1-0.3,0.3-0.4,0.6-0.4h5.5c0.6,0,1,0.6,0.6,1.1l-9.3,13.7v13.1c0,0.4-0.4,0.8-0.8,0.8h-5c-0.5,0-0.8-0.4-0.8-0.8V179.1z"/>
			</g>
			<g>
				<path class="st0" d="M67.1,208.8L67.1,208.8c4.2,0,7.2,1.3,10,3.8c0.4,0.3,0.4,0.8,0,1.1l-3.2,3.3c-0.3,0.3-0.8,0.3-1,0
					c-1.5-1.4-3.6-2-5.6-2c-4.7,0-8.1,3.8-8.1,8.4c0,4.6,3.4,8.4,8.1,8.4c1.9,0,4.1-0.8,5.6-2c0.3-0.3,0.8-0.3,1,0.1l3.3,3.3
					c0.3,0.4,0.3,0.9-0.1,1.1c-2.8,2.7-6.3,3.9-10,4.1c-8.3,0-14.9-6.6-14.9-14.9C52.3,215.4,58.9,208.8,67.1,208.8z"/>
			</g>
			<g>
				<path class="st0" d="M94.8,231.8L94.8,231.8c4.6,0,8.3-3.7,8.3-8.3c0-4.4-3.7-8.3-8.3-8.3c-4.6,0-8.3,3.8-8.3,8.3
					C86.5,228.2,90.2,231.8,94.8,231.8z M94.8,208.8L94.8,208.8c8.3,0,14.9,6.6,14.9,14.7c0,8.3-6.6,14.7-14.9,14.7
					c-8.3,0-14.9-6.5-14.9-14.7C79.9,215.4,86.5,208.8,94.8,208.8z"/>
			</g>
			<g>
				<path class="st0" d="M114.3,210L114.3,210c0-0.4,0.4-0.8,0.8-0.8h5.1c0.4,0,0.8,0.4,0.8,0.8v16.6c0,2.9,2.2,5.2,5.1,5.2
					c3,0,5.2-2.3,5.2-5.2V210c0-0.4,0.3-0.8,0.8-0.8h5.1c0.4,0,0.8,0.4,0.8,0.8v17c0,6.2-5.2,11.3-11.8,11.3
					c-6.5,0-11.7-5.1-11.7-11.3V210z"/>
			</g>
			<g>
				<path class="st0" d="M144.6,209.5L144.6,209.5c0-0.4,0.4-0.6,0.8-0.6h1l16.5,15.7V210c0-0.4,0.4-0.8,0.9-0.8h4.9
					c0.4,0,0.8,0.4,0.8,0.8v27.7c0,0.4-0.4,0.6-0.8,0.6h-0.8c-0.1,0-0.4-0.1-0.5-0.1L151,221.8v15.4c0,0.4-0.3,0.8-0.8,0.8h-5
					c-0.4,0-0.8-0.4-0.8-0.8V209.5z"/>
			</g>
			<g>
				<path class="st0" d="M189.4,208.8L189.4,208.8c4.2,0,7.2,1.3,10,3.8c0.4,0.3,0.4,0.8,0,1.1l-3.2,3.3c-0.3,0.3-0.8,0.3-1,0
					c-1.5-1.4-3.6-2.2-5.6-2.2c-4.7,0-8.1,3.9-8.1,8.5c0,4.6,3.4,8.4,8.1,8.4c1.9,0,4.1-0.8,5.6-2c0.3-0.3,0.8-0.3,1,0l3.3,3.4
					c0.3,0.4,0.3,0.9-0.1,1.1c-2.8,2.7-6.3,3.9-10,3.9c-8.3,0-15-6.5-15-14.7C174.4,215.4,181.1,208.8,189.4,208.8z"/>
			</g>
			<g>
				<path class="st0" d="M204.3,210L204.3,210c0-0.4,0.4-0.8,0.9-0.8h5c0.4,0,0.8,0.4,0.8,0.8v27.2c0,0.4-0.4,0.8-0.8,0.8h-5
					c-0.5,0-0.9-0.4-0.9-0.8V210z"/>
			</g>
			<g>
				<path class="st0" d="M218.1,210L218.1,210c0-0.4,0.4-0.8,0.8-0.8h4.9c0.4,0,0.8,0.4,0.8,0.8v22h9.9c0.4,0,0.8,0.3,0.8,0.8v4.4
					c0,0.4-0.4,0.8-0.8,0.8h-15.6c-0.4,0-0.8-0.4-0.8-0.8V210z"/>
			</g>
			<g>
				<path class="st2" d="M245.8,119L245.8,119c0-0.3,0.4-0.6,0.8-0.6h5c0.4,0,0.8,0.4,0.8,0.6v118.5c0,0.4-0.4,0.8-0.8,0.8h-5
					c-0.4,0-0.8-0.4-0.8-0.8V119z"/>
			</g>
		</g>
	</g>
</g>
<g id="Guides">
	<g>
	</g>
	<g>
	</g>
	<g>
	</g>
	<g>
	</g>
	<g>
	</g>
</g>
</svg>
