<?xml version="1.0" encoding="UTF-8" standalone="no"?>
<svg
   xmlns:dc="http://purl.org/dc/elements/1.1/"
   xmlns:cc="http://creativecommons.org/ns#"
   xmlns:rdf="http://www.w3.org/1999/02/22-rdf-syntax-ns#"
   xmlns:svg="http://www.w3.org/2000/svg"
   xmlns="http://www.w3.org/2000/svg"
   xmlns:sodipodi="http://sodipodi.sourceforge.net/DTD/sodipodi-0.dtd"
   xmlns:inkscape="http://www.inkscape.org/namespaces/inkscape"
   version="1.1"
   x="0px"
   y="0px"
   viewBox="0 0 3023.6189 423.30713"
   xml:space="preserve"
   id="svg152"
   sodipodi:docname="EECA_BEC.svg"
   width="800mm"
   height="112mm"
   inkscape:version="1.0.2 (e86c870879, 2021-01-15, custom)"><metadata
   id="metadata158"><rdf:RDF><cc:Work
       rdf:about=""><dc:format>image/svg+xml</dc:format><dc:type
         rdf:resource="http://purl.org/dc/dcmitype/StillImage" /><dc:title></dc:title></cc:Work></rdf:RDF></metadata><defs
   id="defs156"><inkscape:perspective
     sodipodi:type="inkscape:persp3d"
     inkscape:vp_x="0 : 196.53544 : 1"
     inkscape:vp_y="0 : 999.99993 : 0"
     inkscape:vp_z="2226.1381 : 196.53544 : 1"
     inkscape:persp3d-origin="1113.0687 : 120.94492 : 1"
     id="perspective85" /></defs><sodipodi:namedview
   pagecolor="#ffffff"
   bordercolor="#666666"
   borderopacity="1"
   objecttolerance="10"
   gridtolerance="10"
   guidetolerance="10"
   inkscape:pageopacity="0"
   inkscape:pageshadow="2"
   inkscape:window-width="1920"
   inkscape:window-height="1018"
   id="namedview154"
   showgrid="false"
   units="mm"
   showguides="true"
   inkscape:guide-bbox="true"
   inkscape:zoom="0.34785123"
   inkscape:cx="1059.2781"
   inkscape:cy="666.89046"
   inkscape:window-x="-6"
   inkscape:window-y="-6"
   inkscape:window-maximized="1"
   inkscape:current-layer="svg152"
   inkscape:document-rotation="0"><sodipodi:guide
     position="1103.9199,351.43718"
     orientation="0,-1"
     id="guide254" /><sodipodi:guide
     position="1207.4124,40.959718"
     orientation="0,-1"
     id="guide256" /></sodipodi:namedview>
<style
   type="text/css"
   id="style2">
	.st0{fill:#F7901E;}
	.st1{fill:#1C2B39;}
	.st2{fill:#266091;}
</style>
<g
   id="Logos"
   transform="matrix(1.6994797,0,0,1.6994797,1436.0008,-49.937027)"
   inkscape:export-xdpi="600"
   inkscape:export-ydpi="600">
	<g
   id="g58">
		<path
   class="st0"
   d="m 893,108.2 -56,-56 v 35.5 l 30.3,30.3 c 6.1,6.1 9.5,14.3 9.5,23 v 10.5 c 0,7.1 -2.3,13.9 -6.5,19.5 L 893,148.3 c 11.1,-11 11.1,-29 0,-40.1 z"
   id="path4" />
		<path
   class="st1"
   d="m 863,122.3 -3.3,-3.3 c 3.2,4.9 2.7,11.6 -1.7,16 l -54.3,54.3 H 837 v 7 l 26,-26 c 5,-5 7.8,-11.7 7.8,-18.7 V 141 c 0,-7 -2.8,-13.7 -7.8,-18.7 z"
   id="path6" />
		<g
   id="g28">
			<path
   class="st1"
   d="m 304.5,118.9 c 5.1,-0.7 12.3,-1.4 17.6,-1.4 16.6,0 26.5,6 26.5,19.5 0,8.6 -5.8,14.5 -13.7,15.7 10,0.8 16.8,6.7 16.8,16.9 0,12.3 -9,20.3 -30.8,20.3 -5.7,0 -11.8,-0.6 -16.4,-1.3 z m 11.7,29.7 h 5.7 c 9.8,0 14.9,-3.8 14.9,-11 0,-6.8 -5.3,-10.1 -13.9,-10.1 -2,0 -4.7,0.2 -6.6,0.5 v 20.6 z m 0,30.9 c 2.2,0.2 4.7,0.4 6.3,0.4 11.3,0 17.1,-3.7 17.1,-11 0,-7.6 -6.3,-10.5 -15.8,-10.5 h -7.6 z"
   id="path8" />
			<path
   class="st1"
   d="m 402.2,187.5 c -6.1,1.5 -14.2,2.4 -20.3,2.4 -15,0 -24.2,-4.8 -24.2,-19.5 v -34 h 11.6 v 33.2 c 0,7.8 4.7,10.6 12.4,10.6 2.6,0 5.9,-0.2 9,-0.7 v -43.1 h 11.6 v 51.1 z"
   id="path10" />
			<path
   class="st1"
   d="m 411.3,174.6 c 4.8,3.7 10.6,5.9 15.9,5.9 5.2,0 8.6,-1.8 8.6,-5.9 0,-4.2 -3.1,-5.8 -9.8,-7.6 -10.9,-2.5 -15.5,-6.8 -15.5,-15.9 0,-10.6 8,-15.8 18.6,-15.8 5.9,0 10.6,1.3 15,4 V 150 c -4.6,-3.3 -9.1,-5.3 -14.6,-5.3 -5.1,0 -7.8,2.5 -7.8,5.9 0,3.4 2.2,5.2 8.3,6.8 11.9,2.6 17.1,7.1 17.1,16.5 0,11 -8.4,15.9 -19.7,15.9 -6.1,0 -12.3,-1.7 -16.2,-4.2 v -11 z"
   id="path12" />
			<path
   class="st1"
   d="m 453.7,120.4 c 0,-4 3.4,-7.2 7.3,-7.2 3.9,0 7.3,3.2 7.3,7.2 0,4.1 -3.4,7.4 -7.3,7.4 -3.9,0 -7.3,-3.3 -7.3,-7.4 z m 13.2,68.3 h -11.7 v -52.3 h 11.7 z"
   id="path14" />
			<path
   class="st1"
   d="m 477.7,139.7 c 7.3,-2.8 16.3,-4.5 24,-4.5 13.3,0 21.8,5.1 21.8,19.8 v 33.6 H 511.9 V 156 c 0,-7.6 -4.7,-10.3 -11.2,-10.3 -4.1,0 -8.3,0.6 -11.3,1.5 v 41.3 h -11.7 z"
   id="path16" />
			<path
   class="st1"
   d="m 542.3,165.2 v 0.2 c 0.7,9.3 8.7,14.4 16.9,14.4 7.2,0 12.4,-1.7 17.6,-5.1 V 185 c -4.7,3.3 -11.7,4.8 -18.4,4.8 -16.3,0 -27.4,-10.4 -27.4,-26.9 0,-16.6 10.9,-27.7 25.3,-27.7 15.2,0 22.4,9.8 22.4,24.1 v 5.9 z m 25.3,-7.5 c -0.2,-8.1 -4.2,-12.6 -11.8,-12.6 -6.7,0 -11.7,4.7 -13.2,12.6 z"
   id="path18" />
			<path
   class="st1"
   d="m 586.8,174.6 c 4.8,3.7 10.6,5.9 15.9,5.9 5.2,0 8.6,-1.8 8.6,-5.9 0,-4.2 -3.1,-5.8 -9.8,-7.6 -10.9,-2.5 -15.5,-6.8 -15.5,-15.9 0,-10.6 8,-15.8 18.6,-15.8 5.9,0 10.6,1.3 15,4 V 150 c -4.6,-3.3 -9.1,-5.3 -14.6,-5.3 -5.1,0 -7.8,2.5 -7.8,5.9 0,3.4 2.2,5.2 8.3,6.8 11.9,2.6 17.1,7.1 17.1,16.5 0,11 -8.4,15.9 -19.7,15.9 -6.1,0 -12.3,-1.7 -16.2,-4.2 v -11 z"
   id="path20" />
			<path
   class="st1"
   d="m 629.5,174.6 c 4.8,3.7 10.6,5.9 15.9,5.9 5.2,0 8.6,-1.8 8.6,-5.9 0,-4.2 -3.1,-5.8 -9.8,-7.6 -10.9,-2.5 -15.5,-6.8 -15.5,-15.9 0,-10.6 8,-15.8 18.6,-15.8 5.9,0 10.6,1.3 15,4 V 150 c -4.6,-3.3 -9.1,-5.3 -14.6,-5.3 -5.1,0 -7.8,2.5 -7.8,5.9 0,3.4 2.2,5.2 8.3,6.8 11.9,2.6 17.1,7.1 17.1,16.5 0,11 -8.4,15.9 -19.7,15.9 -6.1,0 -12.3,-1.7 -16.2,-4.2 v -11 z"
   id="path22" />
			<path
   class="st1"
   d="m 723.5,170.6 v -51.4 h 11.6 v 69.5 h -11.5 l -35.7,-50.9 v 50.9 h -11.6 v -69.5 h 12.2 z"
   id="path24" />
			<path
   class="st1"
   d="m 743.4,119.2 h 49.1 v 10.4 l -36.7,48.6 h 37.8 v 10.5 h -51.2 v -10.5 l 36.2,-48.4 h -35.1 v -10.6 z"
   id="path26" />
		</g>
		<g
   id="g56">
			<path
   class="st1"
   d="m 534.7,234.3 v 2.8 h -17.8 v -30.9 h 17.6 v 2.8 h -14.4 v 10.9 h 13.4 v 2.8 h -13.4 v 11.5 h 14.6 z"
   id="path30" />
			<path
   class="st1"
   d="m 539.7,215.6 c 3,-1.1 6.4,-1.7 9.5,-1.7 5.7,0 9.2,2.2 9.2,7.9 v 15.3 h -3.1 v -14.7 c 0,-4.6 -3.3,-5.6 -6.3,-5.6 -2.4,0 -4.5,0.4 -6.1,0.8 V 237 h -3.1 v -21.4 z"
   id="path32" />
			<path
   class="st1"
   d="m 565.9,225.9 v 0.1 c 0,5.6 4,8.8 8.4,8.8 3.2,0 5.5,-0.8 7.7,-2.5 v 3.1 c -2,1.5 -4.9,2.2 -7.7,2.2 -6.6,0 -11.5,-4.5 -11.5,-11.9 0,-6.8 4.7,-11.9 10.8,-11.9 5.7,0 9.5,3.4 9.5,9.9 v 2.1 h -17.2 z m 14,-2.6 c -0.2,-4.7 -2.8,-6.7 -6.6,-6.7 -3.5,0 -6.4,2.4 -7.3,6.7 z"
   id="path34" />
			<path
   class="st1"
   d="m 590.6,237.1 h -3.1 v -20.6 c 2.4,-1.5 5.3,-2.4 8.4,-2.4 1.2,0 2.5,0.2 3.8,0.5 v 3.1 c -1.4,-0.5 -3,-0.6 -4,-0.6 -2.2,0 -3.9,0.5 -5.1,1.1 z"
   id="path36" />
			<path
   class="st1"
   d="m 617.9,236.3 c -0.8,0.5 -2.9,1 -4.7,1 -7.4,0 -12.6,-3.9 -12.6,-11.6 0,-7.3 5.1,-11.8 13.1,-11.8 2.3,0 5.5,0.6 7.4,1.5 v 22 c 0,6.9 -5.2,9.6 -10.4,9.6 -2.8,0 -5.4,-0.6 -7,-1.4 v -3 c 2,0.9 4.6,1.7 7,1.7 3.7,0 7.3,-1.8 7.3,-7.5 v -0.5 z m 0,-18.9 c -1.2,-0.4 -2.7,-0.7 -4.3,-0.7 -6.3,0 -9.9,3.3 -9.9,8.9 0,5.5 3.6,8.9 9.5,8.9 1.9,0 3.1,-0.3 4.7,-0.9 z"
   id="path38" />
			<path
   class="st1"
   d="m 634.7,235 7.5,-20.6 h 3.2 l -12.3,32 H 630 l 3.1,-7.9 -9.5,-24.2 h 3.4 z"
   id="path40" />
			<path
   class="st1"
   d="m 679.3,211.7 c -2.2,-2.1 -5.3,-3.2 -8.6,-3.2 -7,0 -12.6,5.1 -12.6,13.1 0,8 5.7,13.1 12.6,13.1 3.3,0 6.5,-1 8.7,-3.1 v 3.7 c -2.4,1.5 -5.6,2.3 -8.7,2.3 -9.4,0 -16,-6.5 -16,-16 0,-9.5 7.1,-16 16,-16 3.1,0 6,0.8 8.5,2.3 v 3.8 z"
   id="path42" />
			<path
   class="st1"
   d="m 694.2,213.9 c 6.8,0 11.4,4.8 11.4,11.9 0,7 -4.6,11.9 -11.4,11.9 -6.8,0 -11.4,-4.8 -11.4,-11.9 0,-7.1 4.6,-11.9 11.4,-11.9 z m 0,2.7 c -4.8,0 -8.2,3.6 -8.2,9.2 0,5.5 3.4,9.2 8.2,9.2 4.8,0 8.2,-3.6 8.2,-9.2 0,-5.6 -3.5,-9.2 -8.2,-9.2 z"
   id="path44" />
			<path
   class="st1"
   d="m 727.8,236.8 c -2.8,0.5 -5.6,0.8 -7.9,0.8 -6.6,0 -10.3,-2.2 -10.3,-7.9 v -15.3 h 3.1 v 15.1 c 0,4.3 3.4,5.4 7,5.4 1.6,0 3.3,-0.1 5,-0.3 v -20.2 h 3.1 z"
   id="path46" />
			<path
   class="st1"
   d="m 734.1,215.6 c 3,-1.1 6.4,-1.7 9.5,-1.7 5.7,0 9.2,2.2 9.2,7.9 v 15.3 h -3.1 v -14.7 c 0,-4.6 -3.3,-5.6 -6.3,-5.6 -2.4,0 -4.5,0.4 -6.1,0.8 V 237 h -3.1 v -21.4 z"
   id="path48" />
			<path
   class="st1"
   d="m 775.4,218.9 c -1.9,-1.4 -4.2,-2.1 -6.3,-2.1 -4.7,0 -8.7,3.1 -8.7,9 0,5.7 4,8.9 8.9,8.9 2.4,0 4.4,-0.8 6.5,-2.1 v 3.3 c -2.2,1.1 -4.4,1.7 -6.8,1.7 -6.3,0 -11.8,-4.4 -11.8,-11.9 0,-7.6 5.6,-11.9 11.8,-11.9 2.5,0 4.5,0.6 6.5,1.7 v 3.4 z"
   id="path50" />
			<path
   class="st1"
   d="m 779.4,207.3 c 0,-1.3 1.1,-2.3 2.3,-2.3 1.3,0 2.3,1 2.3,2.3 0,1.2 -1,2.3 -2.3,2.3 -1.2,0.1 -2.3,-1 -2.3,-2.3 z m 3.9,29.8 h -3.1 v -22.7 h 3.1 z"
   id="path52" />
			<path
   class="st1"
   d="m 792.7,237.1 h -3.1 v -35.4 h 3.1 z"
   id="path54" />
		</g>
	</g>
	<g
   id="g138">
		<g
   id="g136">
			<g
   id="g62">
				<path
   class="st0"
   d="m 88.6,119.9 v 0 c -0.3,-0.6 0.1,-0.9 0.6,-0.9 h 4.9 c 0.3,0 0.6,0.1 0.6,0.4 l 3.7,14 h 0.1 L 105,119 c 0.1,-0.3 0.4,-0.5 0.8,-0.5 h 0.8 c 0.4,0 0.6,0.3 0.6,0.5 l 6.5,14.4 h 0.1 l 3.6,-14 c 0.1,-0.3 0.4,-0.4 0.8,-0.4 h 4.8 c 0.6,0 0.9,0.3 0.8,0.8 l -7.9,27.7 c 0,0.3 -0.4,0.5 -0.6,0.5 h -0.8 c -0.3,0 -0.5,-0.1 -0.6,-0.4 l -7.6,-16.9 H 106 l -7.5,16.9 c -0.1,0.3 -0.4,0.4 -0.8,0.4 h -0.6 c -0.4,0 -0.6,-0.3 -0.8,-0.5 z"
   id="path60" />
			</g>
			<g
   id="g66">
				<path
   class="st0"
   d="m 140.7,141.5 v 0 c 4.6,0 8.3,-3.8 8.3,-8.3 0,-4.4 -3.7,-8.3 -8.3,-8.3 -4.6,0 -8.3,3.8 -8.3,8.3 0.1,4.5 3.8,8.3 8.3,8.3 z m 0,-23 v 0 c 8.3,0 14.9,6.5 14.9,14.7 0,8.3 -6.6,14.7 -14.9,14.7 -8.3,0 -14.9,-6.5 -14.9,-14.7 0.1,-8.1 6.7,-14.7 14.9,-14.7 z"
   id="path64" />
			</g>
			<g
   id="g70">
				<path
   class="st0"
   d="m 173.2,131.1 v 0 c 1.6,0 3.2,-1.5 3.2,-3.3 0,-1.7 -1.5,-3 -3.2,-3 h -6.1 v 6.4 h 6.1 z m -12.5,-11.4 v 0 c 0,-0.4 0.3,-0.6 0.8,-0.6 h 12.3 c 5,0 9,3.8 9,8.6 0,3.8 -2.5,6.9 -6.1,8.3 l 5.7,10.5 c 0.3,0.5 0,1.1 -0.8,1.1 h -5.5 c -0.4,0 -0.6,-0.3 -0.6,-0.4 l -5.6,-10.9 h -2.8 v 10.5 c 0,0.4 -0.4,0.8 -0.8,0.8 h -5 c -0.5,0 -0.8,-0.4 -0.8,-0.8 v -27.1 z"
   id="path68" />
			</g>
			<g
   id="g74">
				<path
   class="st0"
   d="m 188.3,119.7 v 0 c 0,-0.4 0.4,-0.6 0.8,-0.6 h 4.9 c 0.4,0 0.8,0.3 0.8,0.6 v 21.8 h 9.9 c 0.4,0 0.8,0.4 0.8,0.9 v 4.4 c 0,0.4 -0.4,0.8 -0.8,0.8 h -15.6 c -0.4,0 -0.8,-0.4 -0.8,-0.8 z"
   id="path72" />
			</g>
			<g
   id="g78">
				<path
   class="st0"
   d="m 220,141.5 v 0 c 4.7,0 8,-3.7 8,-8.4 0,-4.6 -3.3,-8.3 -8,-8.3 h -4.1 l 0.1,16.6 h 4 z m -10.5,-21.8 v 0 c 0,-0.4 0.3,-0.6 0.6,-0.6 h 10.2 c 8,0 14.5,6.2 14.5,14.1 0,8 -6.5,14.5 -14.5,14.5 h -10 c -0.5,0 -0.8,-0.4 -0.8,-0.8 z"
   id="path76" />
			</g>
			<g
   id="g82">
				<path
   class="st0"
   d="m 76.1,165 v 0 c 0,-0.4 0.4,-0.8 0.9,-0.8 h 17.1 c 0.4,0 0.8,0.4 0.8,0.8 v 4.4 c 0,0.5 -0.4,0.9 -0.8,0.9 H 82.6 v 5.1 h 9.5 c 0.4,0 0.8,0.4 0.8,0.8 v 4.4 c 0,0.5 -0.4,0.8 -0.8,0.8 h -9.5 v 5.6 h 11.5 c 0.4,0 0.8,0.4 0.8,0.8 v 4.4 c 0,0.4 -0.4,0.8 -0.8,0.8 H 77 c -0.5,0 -0.9,-0.4 -0.9,-0.8 z"
   id="path80" />
			</g>
			<g
   id="g86">
				<path
   class="st0"
   d="m 100.4,164.6 v 0 c 0,-0.5 0.4,-0.8 0.8,-0.8 h 1.1 l 16.5,15.7 V 165 c 0,-0.4 0.4,-0.8 0.8,-0.8 h 5 c 0.4,0 0.8,0.4 0.8,0.8 v 27.7 c 0,0.4 -0.3,0.8 -0.8,0.8 H 124 c -0.1,0 -0.5,-0.1 -0.5,-0.3 L 107,177 v 15.2 c 0,0.4 -0.4,0.8 -0.8,0.8 h -5 c -0.5,0 -0.8,-0.4 -0.8,-0.8 z"
   id="path84" />
			</g>
			<g
   id="g90">
				<path
   class="st0"
   d="m 132,165 v 0 c 0,-0.4 0.4,-0.8 0.9,-0.8 h 17 c 0.5,0 0.9,0.4 0.9,0.8 v 4.4 c 0,0.5 -0.4,0.8 -0.9,0.8 h -11.4 v 5.2 h 9.5 c 0.4,0 0.8,0.3 0.8,0.8 v 4.4 c 0,0.5 -0.4,0.8 -0.8,0.8 h -9.5 v 5.6 h 11.4 c 0.5,0 0.9,0.4 0.9,0.8 v 4.4 c 0,0.4 -0.4,0.8 -0.8,0.8 h -17.1 c -0.5,0 -0.9,-0.4 -0.9,-0.8 z"
   id="path88" />
			</g>
			<g
   id="g94">
				<path
   class="st0"
   d="m 168.9,176.6 v 0 c 1.6,0 3.2,-1.6 3.2,-3.3 0,-1.8 -1.5,-3.2 -3.2,-3.2 h -6.1 v 6.5 z M 156.2,165 v 0 c 0,-0.4 0.4,-0.8 0.9,-0.8 h 12.3 c 4.9,0 9,3.9 9,8.9 0,3.7 -2.5,6.7 -6.1,8.3 l 5.7,10.4 c 0.3,0.5 0,1.1 -0.8,1.1 h -5.5 c -0.4,0 -0.6,-0.1 -0.8,-0.4 l -5.5,-10.8 h -2.8 v 10.4 c 0,0.4 -0.4,0.8 -0.9,0.8 h -4.8 c -0.5,0 -0.9,-0.4 -0.9,-0.8 V 165 Z"
   id="path92" />
			</g>
			<g
   id="g98">
				<path
   class="st0"
   d="m 196.9,163.9 v 0 c 3.4,0 7.2,1.4 10,3.8 0.4,0.4 0.4,0.8 0.1,1.1 l -3.3,3.4 c -0.4,0.4 -0.8,0.4 -1.1,0.1 -1.5,-1.5 -3.4,-2 -5.3,-2 -4.6,0 -8.3,3.8 -8.3,8.3 0,4.6 3.7,8.3 8.3,8.3 1.1,0 2.4,-0.3 3.7,-0.6 v -2.4 h -2.7 c -0.4,0 -0.8,-0.4 -0.8,-0.8 V 179 c 0,-0.5 0.4,-0.8 0.8,-0.8 h 8.4 c 0.4,0 0.8,0.4 0.8,0.8 v 11 c 0,0.3 -0.1,0.5 -0.4,0.6 0,0 -4.2,2.7 -10.2,2.7 -8.3,0 -14.9,-6.5 -14.9,-14.7 0,-8.1 6.6,-14.7 14.9,-14.7 z"
   id="path96" />
			</g>
			<g
   id="g102">
				<path
   class="st0"
   d="m 218.4,179.1 v 0 l -9.1,-13.7 c -0.4,-0.5 0,-1.1 0.6,-1.1 h 5.3 c 0.4,0 0.6,0.1 0.8,0.4 l 5.7,8.4 5.7,-8.4 c 0.1,-0.3 0.3,-0.4 0.6,-0.4 h 5.5 c 0.6,0 1,0.6 0.6,1.1 l -9.3,13.7 v 13.1 c 0,0.4 -0.4,0.8 -0.8,0.8 h -5 c -0.5,0 -0.8,-0.4 -0.8,-0.8 v -13.1 z"
   id="path100" />
			</g>
			<g
   id="g106">
				<path
   class="st0"
   d="m 67.1,208.8 v 0 c 4.2,0 7.2,1.3 10,3.8 0.4,0.3 0.4,0.8 0,1.1 l -3.2,3.3 c -0.3,0.3 -0.8,0.3 -1,0 -1.5,-1.4 -3.6,-2 -5.6,-2 -4.7,0 -8.1,3.8 -8.1,8.4 0,4.6 3.4,8.4 8.1,8.4 1.9,0 4.1,-0.8 5.6,-2 0.3,-0.3 0.8,-0.3 1,0.1 l 3.3,3.3 c 0.3,0.4 0.3,0.9 -0.1,1.1 -2.8,2.7 -6.3,3.9 -10,4.1 -8.3,0 -14.9,-6.6 -14.9,-14.9 0.1,-8.1 6.7,-14.7 14.9,-14.7 z"
   id="path104" />
			</g>
			<g
   id="g110">
				<path
   class="st0"
   d="m 94.8,231.8 v 0 c 4.6,0 8.3,-3.7 8.3,-8.3 0,-4.4 -3.7,-8.3 -8.3,-8.3 -4.6,0 -8.3,3.8 -8.3,8.3 0,4.7 3.7,8.3 8.3,8.3 z m 0,-23 v 0 c 8.3,0 14.9,6.6 14.9,14.7 0,8.3 -6.6,14.7 -14.9,14.7 -8.3,0 -14.9,-6.5 -14.9,-14.7 0,-8.1 6.6,-14.7 14.9,-14.7 z"
   id="path108" />
			</g>
			<g
   id="g114">
				<path
   class="st0"
   d="m 114.3,210 v 0 c 0,-0.4 0.4,-0.8 0.8,-0.8 h 5.1 c 0.4,0 0.8,0.4 0.8,0.8 v 16.6 c 0,2.9 2.2,5.2 5.1,5.2 3,0 5.2,-2.3 5.2,-5.2 V 210 c 0,-0.4 0.3,-0.8 0.8,-0.8 h 5.1 c 0.4,0 0.8,0.4 0.8,0.8 v 17 c 0,6.2 -5.2,11.3 -11.8,11.3 -6.5,0 -11.7,-5.1 -11.7,-11.3 v -17 z"
   id="path112" />
			</g>
			<g
   id="g118">
				<path
   class="st0"
   d="m 144.6,209.5 v 0 c 0,-0.4 0.4,-0.6 0.8,-0.6 h 1 l 16.5,15.7 V 210 c 0,-0.4 0.4,-0.8 0.9,-0.8 h 4.9 c 0.4,0 0.8,0.4 0.8,0.8 v 27.7 c 0,0.4 -0.4,0.6 -0.8,0.6 h -0.8 c -0.1,0 -0.4,-0.1 -0.5,-0.1 L 151,221.8 v 15.4 c 0,0.4 -0.3,0.8 -0.8,0.8 h -5 c -0.4,0 -0.8,-0.4 -0.8,-0.8 v -27.7 z"
   id="path116" />
			</g>
			<g
   id="g122">
				<path
   class="st0"
   d="m 189.4,208.8 v 0 c 4.2,0 7.2,1.3 10,3.8 0.4,0.3 0.4,0.8 0,1.1 l -3.2,3.3 c -0.3,0.3 -0.8,0.3 -1,0 -1.5,-1.4 -3.6,-2.2 -5.6,-2.2 -4.7,0 -8.1,3.9 -8.1,8.5 0,4.6 3.4,8.4 8.1,8.4 1.9,0 4.1,-0.8 5.6,-2 0.3,-0.3 0.8,-0.3 1,0 l 3.3,3.4 c 0.3,0.4 0.3,0.9 -0.1,1.1 -2.8,2.7 -6.3,3.9 -10,3.9 -8.3,0 -15,-6.5 -15,-14.7 0,-8 6.7,-14.6 15,-14.6 z"
   id="path120" />
			</g>
			<g
   id="g126">
				<path
   class="st0"
   d="m 204.3,210 v 0 c 0,-0.4 0.4,-0.8 0.9,-0.8 h 5 c 0.4,0 0.8,0.4 0.8,0.8 v 27.2 c 0,0.4 -0.4,0.8 -0.8,0.8 h -5 c -0.5,0 -0.9,-0.4 -0.9,-0.8 z"
   id="path124" />
			</g>
			<g
   id="g130">
				<path
   class="st0"
   d="m 218.1,210 v 0 c 0,-0.4 0.4,-0.8 0.8,-0.8 h 4.9 c 0.4,0 0.8,0.4 0.8,0.8 v 22 h 9.9 c 0.4,0 0.8,0.3 0.8,0.8 v 4.4 c 0,0.4 -0.4,0.8 -0.8,0.8 h -15.6 c -0.4,0 -0.8,-0.4 -0.8,-0.8 z"
   id="path128" />
			</g>
			<g
   id="g134">
				<path
   class="st2"
   d="m 245.8,119 v 0 c 0,-0.3 0.4,-0.6 0.8,-0.6 h 5 c 0.4,0 0.8,0.4 0.8,0.6 v 118.5 c 0,0.4 -0.4,0.8 -0.8,0.8 h -5 c -0.4,0 -0.8,-0.4 -0.8,-0.8 z"
   id="path132" />
			</g>
		</g>
	</g>
</g>
<g
   id="Guides">
	<g
   id="g141">
	</g>
	<g
   id="g143">
	</g>
	<g
   id="g145">
	</g>
	<g
   id="g147">
	</g>
	<g
   id="g149">
	</g>
</g>
<path
   class="st0"
   d="m 463.84501,73.227929 c 29.5033,0 46.79035,11.063705 60.85046,23.049422 1.15251,0.921951 1.84398,2.30493 1.84398,3.918429 -0.23027,2.53541 -2.30495,4.60987 -4.84038,4.60987 -1.15249,0 -2.30493,-0.46098 -3.22694,-1.15251 -17.05658,-15.443097 -33.88262,-22.35792 -55.08809,-22.35792 -41.71945,0 -72.83622,33.19118 -72.83622,77.2156 v 0.46097 c 0,43.56343 32.03872,77.90708 73.29719,77.90708 21.89692,0 38.72303,-7.14532 56.24061,-23.9714 0.69145,-0.92201 1.84393,-1.38299 3.22693,-1.38299 2.30493,0.23027 4.14884,2.07446 4.37938,4.37939 0,1.15248 -0.46097,2.30496 -1.38297,2.99644 -19.36152,18.20905 -38.26207,25.81539 -62.69446,25.81539 -47.02083,0 -82.28643,-36.64859 -82.28643,-85.05244 v -0.46097 c -0.23024,-48.1733 36.18763,-85.974361 82.51694,-85.974361 m 214.82062,121.239981 0.46097,0.92201 19.82251,43.33291 c 0.46097,1.15244 2.07446,3.9184 4.60989,3.9184 2.30491,0 4.14889,-1.84394 4.37938,-4.1489 0,0 0,0 0,0 0,-1.1525 -0.23024,-2.07445 -0.69147,-2.99645 L 635.33273,79.451272 c -1.61343,-3.457441 -3.6879,-5.070893 -6.91484,-5.070893 h -0.46097 c -3.22695,0 -5.30139,1.382978 -6.9148,5.070893 L 548.89735,235.95686 c -0.46096,0.92201 -0.69146,2.07444 -0.92193,3.22693 0.23025,2.07447 2.07445,3.68793 4.14889,3.68793 1.38297,0 3.22688,-0.46099 4.37941,-3.45742 L 576.32619,195.6204 627.95692,83.139186 Z M 252.02079,84.291634 h 102.80044 c 2.30496,0 4.1489,-1.843967 4.1489,-4.148901 0,-2.304934 -1.84394,-4.148902 -4.1489,-4.148902 v 0 H 245.79745 c -2.53543,0 -4.6099,2.074462 -4.6099,4.60989 v 3.457421 z m -10.83324,69.839806 v 82.97792 c 0,2.53543 2.07447,4.60987 4.6099,4.60987 h 110.40671 c 2.30497,0 3.91843,-1.84396 4.14892,-4.14891 0,-2.30493 -1.84395,-3.91839 -4.14892,-4.14889 H 250.17681 v -70.99225 h 93.81121 c 2.30493,0 4.14889,-1.84391 4.14889,-4.14883 0,-2.30494 -1.84396,-4.14891 -4.14889,-4.14891 0,0 0,0 0,0 z M 100.58607,84.291634 h 102.80044 c 2.30493,0 4.14889,-1.843967 4.14889,-4.148901 0,-2.304934 -1.84396,-4.148902 -4.14889,-4.148902 H 94.3627 c -2.53541,0 -4.60988,2.074462 -4.60988,4.60989 v 3.457421 z M 89.75282,154.13144 v 82.97792 c 0,2.53543 2.07447,4.60987 4.60988,4.60987 h 110.17626 c 2.30494,0 3.9184,-1.84396 4.1489,-4.14891 0,-2.30493 -1.84396,-3.91839 -4.1489,-4.14889 H 98.74208 v -70.99225 h 93.58074 c 2.30491,0 4.14887,-1.84391 4.14887,-4.14883 0,-2.30494 -1.84396,-4.14891 -4.14887,-4.14891 z m 12.21622,140.832 H 91.36632 c -1.15251,0 -1.84397,-0.92201 -2.07447,-1.84396 0,-1.15251 0.92196,-1.84398 2.07447,-1.84398 h 25.58483 c 1.15248,0 1.84398,0.92196 1.84398,1.84398 0,1.15244 -0.92199,1.84396 -1.84398,1.84396 h -10.6027 v 31.11669 c 0,1.15248 -0.92198,2.07446 -2.07447,2.07446 -1.15248,0 -2.07445,-0.92198 -2.07445,-2.07446 0,0 0,0 0,0 z m 26.50684,32.96065 c -1.15245,0 -2.07447,-0.92195 -2.07447,-2.07447 v -32.49968 c 0,-1.15248 0.92202,-2.07444 2.07447,-2.07444 h 22.81894 c 1.15245,0.23072 1.84397,1.15251 1.61342,2.07444 0,0.92198 -0.69147,1.6135 -1.61342,1.6135 h -20.74448 v 12.44663 h 18.43953 c 1.15244,0 1.84393,0.92199 1.84393,1.84397 0,0.922 -0.92196,1.84396 -1.84393,1.84396 0,0 0,0 0,0 h -18.43953 v 12.90768 h 20.97496 c 1.15246,0 1.84398,0.92199 1.84398,1.84394 0,1.15252 -0.92201,1.84396 -1.84398,1.84396 0,0 0,0 0,0 l -23.04942,0.23074 m 58.08456,-32.73018 h -10.83326 c -1.15248,0 -1.84394,-0.92203 -1.84394,-1.84396 0,-1.15247 0.922,-1.84396 1.84394,-1.84396 h 25.58488 c 1.15245,0 1.84396,0.922 1.84396,1.84396 0,1.15249 -0.92201,1.84396 -1.84396,1.84396 0,0 0,0 0,0 h -10.60274 v 31.1167 c 0,1.15251 -0.922,2.07447 -2.07445,2.07447 -1.15248,0 -2.07443,-0.92196 -2.07443,-2.07447 z m 17.28706,31.1167 c 0,-0.46097 0,-0.69147 0.23025,-1.15244 l 14.98214,-32.73018 c 0.46097,-1.15249 1.38297,-1.84394 2.53541,-1.84394 h 0.23025 c 1.15249,0 2.30493,0.69145 2.53543,1.84394 l 14.98213,32.4997 c 0.23027,0.23073 0.23027,0.69145 0.23027,1.15244 0,1.1525 -0.92196,2.07444 -2.07445,2.07444 -0.92198,0 -1.84398,-0.69145 -2.07446,-1.61347 l -3.91841,-8.52828 h -20.2835 l -3.9184,8.52828 c -0.23024,0.92202 -1.15245,1.38299 -2.07444,1.38299 -0.69145,0.23027 -1.61343,-0.46097 -1.38291,-1.61348 -0.23028,0 -0.23028,0 0,0 m 26.04582,-11.98565 -8.52829,-18.90054 -8.52828,18.90054 z m 17.51758,-20.97501 c 0,-1.15247 0.92195,-2.07445 2.07446,-2.07445 h 13.82959 c 3.91843,-0.23026 7.60636,1.15249 10.37227,3.68793 1.84396,1.84398 2.99642,4.60987 2.76593,7.14531 v 0 c 0,5.99286 -4.14893,9.45024 -9.91124,10.60273 l 9.21975,11.75518 c 0.46102,0.46099 0.69149,0.92201 0.69149,1.61348 0,1.1525 -0.92197,2.07444 -2.07446,2.07444 -0.69147,0 -1.61342,-0.46097 -1.84396,-1.15243 l -10.37221,-13.36871 h -10.60275 v 12.4467 c 0,1.1525 -0.92194,2.07444 -2.07441,2.07444 -1.15249,0 -2.07446,-0.92194 -2.07446,-2.07444 v 0 z m 15.44308,16.59563 c 5.5319,0 9.45024,-2.76597 9.45024,-7.60636 v -0.23072 c 0,-4.60987 -3.45737,-7.14529 -9.45024,-7.14529 h -11.29421 v 14.98211 z m 22.81892,-17.0566 c 0,-1.15249 0.92202,-2.07444 2.07446,-2.07444 1.15248,0 2.07445,0.92195 2.07445,2.07444 v 33.19115 c 0,1.1525 -0.92197,2.07444 -2.07445,2.07444 -1.15244,0 -2.07446,-0.92194 -2.07446,-2.07444 z m 39.87554,2.07445 h -10.60277 c -1.15247,0 -1.84394,-0.92201 -1.84394,-1.84397 0,0 0,0 0,0 0,-1.15248 0.92201,-1.84396 1.84394,-1.84396 h 25.35439 c 1.15244,0 1.84396,0.92198 2.07446,1.84396 0,1.15242 -0.92202,1.84397 -2.07446,1.84397 h -10.60273 v 31.1167 c -0.23024,1.1525 -1.1525,2.07444 -2.30495,1.84396 -0.922,0 -1.84394,-0.92195 -1.84394,-1.84396 z m 24.66285,-2.07445 c 0,-1.15249 0.92202,-2.07444 2.07447,-2.07444 1.15248,0 2.07441,0.92195 2.07441,2.07444 v 33.19115 c 0,1.1525 -0.92193,2.07444 -2.07441,2.07444 -1.15245,0 -2.07447,-0.92194 -2.07447,-2.07444 z m 12.21622,33.42163 c 0,-0.46097 0,-0.69147 0.23025,-1.15244 l 14.98212,-32.73018 c 0.46097,-1.15249 1.38298,-1.84394 2.53543,-1.84394 h 0.23028 c 1.15248,0 2.3049,0.69145 2.53541,1.84394 l 14.98212,32.4997 c 0.23026,0.23073 0.23026,0.69145 0.23026,1.15244 0,1.1525 -0.92197,2.07444 -2.07444,2.07444 v 0 c -0.92194,0 -1.84396,-0.69145 -2.07446,-1.61347 l -3.91837,-8.52852 h -19.82249 l -3.91841,8.52828 c -0.23073,0.92201 -1.15244,1.383 -2.07445,1.383 -0.92196,0.23025 -1.84394,-0.69148 -1.84394,-1.61346 v 0 m 26.2763,-11.98569 -8.52825,-18.90053 -8.52826,18.90053 z m 17.51763,-21.43597 c 0,-1.15248 0.92194,-2.07445 2.07438,-2.07445 1.15251,0 2.07447,0.92197 2.07447,2.07445 v 20.053 L 431.3439,291.506 c 0.46099,-0.46099 0.92198,-0.69148 1.61347,-0.69148 1.15245,0 2.07444,0.92197 2.07444,2.07445 0,0.46097 -0.23023,1.15246 -0.69151,1.38295 l -13.13816,12.90767 14.06016,17.28706 c 0.46098,0.46099 0.46098,0.92201 0.46098,1.61348 0,1.15248 -0.92195,2.07446 -2.07445,2.07446 -0.69146,0 -1.38295,-0.46101 -1.61345,-0.92198 l -13.82964,-17.05657 -7.83683,7.83677 v 8.06732 c 0,1.15248 -0.92196,2.07446 -2.07447,2.07446 -1.15244,0 -2.07438,-0.92198 -2.07438,-2.07446 z m 37.80103,0 c 0,-1.15248 0.92196,-2.07445 2.07444,-2.07445 1.15245,0 2.07446,0.92197 2.07446,2.07445 v 33.19116 c 0,1.15248 -0.92201,2.07446 -2.07446,2.07446 -1.15248,0 -2.07444,-0.92198 -2.07444,-2.07446 z m 29.96427,0.46097 c 0,-1.15248 0.92196,-2.07444 2.07443,-2.07444 h 11.75519 c 8.29782,0 13.82968,4.37939 13.82968,11.75519 v 0.23074 c 0,7.83677 -6.68438,11.98566 -14.52114,11.98566 h -8.98929 v 11.06371 c 0,1.15248 -0.92197,2.07446 -2.07444,2.07446 -1.15247,0 -2.07443,-0.92198 -2.07443,-2.07446 z m 13.36865,17.74806 c 5.99285,0 10.14176,-3.2269 10.14176,-8.06731 v 0 c 0,-5.30135 -3.91839,-8.06725 -9.91126,-8.06725 h -9.21977 V 311.098 Z m 36.64859,17.51756 c -8.98925,0 -15.21263,-5.53183 -15.21263,-15.9041 v -19.59198 c 0,-1.15251 0.92198,-2.07447 2.07445,-2.07447 1.15245,0 2.07447,0.92196 2.07447,2.07447 v 19.36149 c 0,7.83679 4.37937,12.4467 11.29418,12.4467 6.91483,0 11.06372,-4.14889 11.06372,-12.21621 v -19.59198 c 0,-1.15251 0.92201,-2.07447 2.07445,-2.07447 1.15251,0 2.07447,0.92196 2.07447,2.07447 v 19.13099 c -0.23028,10.60277 -6.45384,16.36509 -15.44311,16.36509 m -6.91483,-41.71944 c -0.92198,0 -1.61347,-0.69149 -1.61347,-1.61347 0,-0.92196 0.69149,-1.61343 1.61347,-1.61343 h 13.82963 c 0.92203,0 1.61348,0.69147 1.61348,1.61343 0,0.92198 -0.69145,1.61347 -1.61348,1.61347 z m 32.03866,6.22336 c 0,-1.15251 0.92201,-2.07447 2.07445,-2.07447 h 0.46098 c 0.92196,0 1.61344,0.46099 2.07446,1.15245 l 22.35793,28.58132 v -27.6593 c 0,-1.15251 0.92195,-2.07447 2.07442,-2.07447 1.15249,0 2.07447,0.92196 2.07447,2.07447 v 33.19115 c 0,0.92198 -0.69148,1.84396 -1.84397,1.84396 0,0 0,0 -0.23024,0 h -0.23073 c -0.922,0 -1.61347,-0.46101 -2.07445,-1.38299 l -22.81896,-29.27274 v 28.35076 c 0,1.15252 -0.92195,2.07447 -2.07444,2.07447 -1.15244,0 -2.07445,-0.92195 -2.07445,-2.07447 0,0 0,0 0,0 z m 58.5456,35.49608 c -9.91126,0.46096 -18.20909,-7.37582 -18.67006,-17.28709 0,-0.46097 0,-1.15243 0,-1.61341 v -0.23072 c -0.23024,-10.14172 7.60629,-18.67003 17.74805,-18.9005 0.23026,0 0.46097,0 0.69146,0 4.60993,-0.23073 8.98933,1.15243 12.4467,3.91842 0.922,0.69147 1.1525,2.07439 0.46099,2.99638 -0.46099,0.46098 -0.92198,0.922 -1.61343,0.922 -0.46099,0 -0.92199,-0.23028 -1.383,-0.46102 -2.9964,-2.30492 -6.45382,-3.45736 -10.14175,-3.22688 -8.06727,0 -14.06012,6.91482 -14.06012,15.21261 v 0 c 0,8.7588 5.53185,15.21264 14.52116,15.21264 3.91837,0 7.60629,-1.38298 10.60269,-3.68793 v -9.21975 h -9.91124 c -0.922,0 -1.84395,-0.92202 -1.84395,-1.84399 0,-0.92198 0.92195,-1.84394 1.84395,-1.84394 h 11.7552 c 1.15249,0 2.07444,0.92196 2.07444,2.07445 v 11.29422 c 0,0.92198 -0.46096,2.07442 -1.38294,2.53541 -3.6879,2.5355 -8.29779,4.14892 -13.13815,4.14892 m 21.66644,-2.30495 c 0,-0.46097 0,-0.69148 0.23074,-1.15244 l 14.98214,-32.7302 c 0.46097,-1.15249 1.38292,-1.84395 2.53544,-1.84395 h 0.23023 c 1.15246,0 2.30495,0.69146 2.53545,1.84395 l 14.98211,32.49971 c 0.23023,0.23074 0.23023,0.69145 0.23023,1.15244 0,1.1525 -0.92193,2.07445 -2.07441,2.07445 -0.92198,0 -1.84399,-0.69147 -2.07447,-1.61346 l -3.91841,-8.52831 h -20.28347 l -3.68792,8.75879 c -0.23025,0.922 -1.15247,1.38298 -2.07445,1.38298 -0.92196,0 -1.84396,-0.69147 -1.61343,-1.84396 -0.23072,0 -0.23072,0 0,0 m 26.04584,-11.98566 -8.5283,-18.90057 -8.52829,18.90057 z m 32.73019,14.29061 c -10.14176,0.23071 -18.67005,-8.06725 -18.67005,-18.20906 0,-0.23068 0,-0.46097 0,-0.69145 v -0.23072 c 0,-10.37222 8.2978,-18.67 18.67005,-18.67 10.37224,0 18.66999,8.29778 18.66999,18.67 0,0 0,0 0,0 v 0 c 0.23026,10.37224 -8.06726,18.90053 -18.20902,18.90053 -0.23022,0.23028 -0.46097,0.23028 -0.46097,0.23028 m 0,-3.91844 c 8.06727,0 14.5211,-6.45377 14.5211,-14.5211 0,-0.23025 0,-0.46098 0,-0.69154 v -0.23067 c 0.23073,-8.06731 -6.22333,-14.75161 -14.29061,-14.98215 0,0 0,0 0,0 -8.06732,0 -14.52116,6.45384 -14.52116,14.52116 0,0.2307 0,0.46099 0,0.69145 v 0 c -0.23025,8.06731 5.99287,14.98215 14.06018,15.21263 0,0 0.23025,0 0.23025,0 M 113.26183,370.56553 H 102.19811 V 344.5197 h 11.06372 v 2.53543 h -8.0673 v 8.75877 h 6.6843 v 2.53542 h -6.6843 v 9.21976 h 8.0673 z m 14.52114,-25.81536 h 2.76592 v 25.81536 h -2.76592 l -8.06731,-19.59201 h -0.23024 v 19.59201 H 116.7195 V 344.5197 h 3.2269 l 7.37585,18.4395 h 0.23072 z m 17.97853,25.81536 H 134.6978 V 344.5197 h 11.0637 v 2.53543 h -8.06729 v 8.75877 h 6.68439 v 2.53542 h -6.68439 v 9.21976 h 8.06729 z m 13.59917,-18.43954 c 0,-2.99642 -0.92197,-4.84038 -4.84037,-4.84038 h -2.30493 v 9.68072 h 2.53542 c 3.68791,0 4.60988,-1.8439 4.60988,-4.84034 m 0.69152,18.43954 c -0.46099,-0.922 -0.92201,-1.84396 -0.92201,-2.76595 l -0.92197,-5.07086 c -0.46097,-2.76592 -1.61347,-3.45744 -3.9184,-3.45744 h -2.07444 v 11.29425 h -2.99643 V 344.5197 h 5.76234 c 5.30139,0 7.37584,2.76591 7.37584,7.14529 0.23025,2.99641 -1.84396,5.99285 -4.84037,6.45384 v 0 c 2.07445,0.23073 3.2269,1.84397 3.68789,4.3794 l 0.92198,4.60988 c 0.23024,1.1525 0.46098,2.07445 1.15245,2.9964 z m 19.36152,-12.90769 v 12.90769 h -2.30497 l -0.46096,-3.22693 c -0.46097,2.07444 -2.30494,3.45743 -4.37938,3.45743 -4.84042,0 -7.37585,-4.84036 -7.37585,-12.9077 0,-8.06729 2.53543,-13.59912 7.60635,-13.59912 4.37937,0 5.7623,3.45738 6.22334,7.14528 l -2.76599,0.92199 c -0.23024,-2.76593 -1.15242,-5.30135 -3.68785,-5.30135 -2.99648,0 -4.60993,4.60986 -4.60993,10.8332 0,6.22336 1.38297,10.37228 4.60993,10.37228 2.30491,0 3.68785,-2.30494 3.68785,-6.22335 v -1.84397 h -3.68785 v -2.53545 z m 8.98925,-0.92198 4.3794,-12.21616 h 2.9964 l -5.99285,15.67359 v 10.14175 h -2.99642 v -10.14175 l -5.99285,-15.67359 h 3.22695 z m 27.8898,13.82967 h -11.0637 V 344.5197 h 11.0637 v 2.53543 h -8.06729 v 8.75877 h 6.68431 v 2.53542 h -6.68431 v 9.21976 h 8.06729 z m 3.68788,0 V 344.5197 h 10.60274 v 2.53543 h -7.60627 v 8.98926 h 6.45384 v 2.76592 h -6.45384 v 11.52473 z m 13.82968,0 V 344.5197 h 10.60278 v 2.53543 h -7.60636 v 8.98926 h 6.45386 v 2.76592 h -6.45386 v 11.52473 z m 13.82966,-25.81536 h 2.99647 v 25.81536 h -2.76599 z m 6.45382,12.90767 c 0,-8.29778 2.53543,-13.13814 7.37586,-13.13814 4.14888,0 5.76231,3.45736 5.99282,7.14529 l -2.76593,0.92196 c -0.23025,-2.76591 -1.15244,-5.30134 -3.45738,-5.30134 -2.76596,0 -4.14888,4.37938 -4.14888,10.60272 0,6.22336 1.38292,10.60277 4.14888,10.60277 2.30494,0 3.22687,-2.53543 3.45738,-5.30141 l 2.76593,0.922 c -0.46101,3.68789 -1.84394,7.14532 -6.22331,7.14532 -4.84041,-0.23072 -7.14537,-5.30134 -7.14537,-13.59917 m 16.36511,-12.90767 h 2.9964 v 25.81536 h -2.9964 z m 18.43954,25.81536 H 278.06521 V 344.5197 h 11.06372 v 2.53543 h -8.06725 v 8.75877 h 6.68433 v 2.53542 h -6.68433 v 9.21976 h 8.06725 z m 14.52112,-26.04583 h 2.76592 v 26.04583 h -2.76592 l -8.06728,-19.59201 h -0.23075 v 19.59201 h -2.7659 V 344.5197 h 3.22689 l 7.37584,18.4395 h 0.23027 v -18.4395 z m 6.22336,12.90766 c 0,-8.29779 2.53544,-13.13815 7.37583,-13.13815 4.14888,0 5.53185,3.45738 5.99284,7.14528 l -2.76589,0.92199 c -0.23027,-2.76593 -1.15254,-5.30135 -3.45744,-5.30135 -2.76593,0 -4.14894,4.37936 -4.14894,10.60271 0,6.22336 1.38301,10.60277 4.14894,10.60277 2.3049,0 3.22693,-2.5355 3.45744,-5.30141 l 2.76589,0.922 c -0.46099,3.68788 -1.84396,7.14532 -6.22333,7.14532 -4.6099,-0.2307 -7.14534,-5.07085 -7.14534,-13.59916 m 22.12746,-0.6915 4.37938,-11.98569 h 2.99647 l -5.76239,15.67359 v 10.14177 h -2.99645 v -10.14177 l -5.99282,-15.67359 h 3.2269 z m 20.05297,-6.91482 c 0,1.84395 0.69152,3.68792 1.6135,5.30139 2.0744,-0.92201 3.22692,-2.99644 3.22692,-5.30139 0,-1.84398 -0.92202,-3.22691 -2.30494,-3.22691 -1.38299,0 -2.53548,1.38293 -2.53548,3.22691 m 2.07446,18.43957 c 1.38297,0 2.76596,-0.92201 3.45744,-2.07446 l -5.07087,-7.60634 c -1.61347,1.1525 -2.30494,3.22695 -2.07444,5.07086 0,2.53548 1.38292,4.60994 3.68787,4.60994 m 4.84042,0 c -2.07446,2.76591 -5.99286,3.45736 -8.75879,1.38292 -1.84396,-1.38292 -2.76596,-3.68786 -2.53547,-5.99286 0,-2.76592 1.38298,-5.53184 3.68791,-7.14531 -1.38297,-1.84396 -2.07446,-4.14888 -2.07446,-6.68432 -0.23022,-2.99641 2.07446,-5.30134 4.84039,-5.53183 0,0 0.23025,0 0.23025,0 2.76597,0 5.07092,2.07441 5.30141,4.84036 0,0.23073 0,0.46098 0,0.69147 0,2.99641 -1.84399,5.76239 -4.60988,7.14529 l 3.91835,6.22336 c 0.69153,-2.53544 0.92201,-5.07086 0.69153,-7.60626 l 2.76591,0.69145 c 0,3.22695 -0.46097,6.45384 -1.84398,9.45023 l 2.99647,4.84042 h -3.22694 z m 13.13814,-10.60277 c 0,-8.29778 2.53543,-13.13814 7.37582,-13.13814 4.14891,0 5.5319,3.45736 5.99286,7.14529 l -2.76591,0.92196 c -0.23073,-2.76591 -1.1525,-5.30134 -3.45744,-5.30134 -2.76591,0 -4.14889,4.37938 -4.14889,10.60272 0,6.22336 1.38298,10.60277 4.14889,10.60277 2.30494,0 3.22688,-2.53543 3.45744,-5.30141 l 2.76591,0.922 c -0.46096,3.68789 -1.84395,7.14532 -6.22335,7.14532 -4.84038,-0.46098 -7.14533,-5.30134 -7.14533,-13.59917 m 23.27993,-13.36863 c 5.07088,0 7.60631,4.84036 7.60631,13.36863 0,8.52831 -2.53543,13.36868 -7.60631,13.36868 -5.07089,0 -7.60632,-4.84037 -7.60632,-13.36868 0,-8.52827 2.53543,-13.36863 7.60632,-13.36863 m 0,2.76592 c -3.22692,0 -4.37943,4.14887 -4.37943,10.60271 0,6.45385 1.38299,10.60277 4.37943,10.60277 2.99643,0 4.37937,-4.14892 4.37937,-10.60277 0,-6.45384 -1.38294,-10.60271 -4.37937,-10.60271 m 21.89696,-2.30496 h 2.76593 v 25.81536 h -2.76593 l -8.0673,-19.59201 h -0.23024 v 19.59201 h -2.76597 V 344.5197 h 3.45742 l 7.37585,18.4395 h 0.23024 z m 12.21619,26.04586 c -4.14891,0 -6.91483,-2.76591 -6.68435,-8.06731 l 2.76592,-0.69146 c -0.23027,3.68785 1.38299,6.22335 3.91843,6.22335 2.30493,0 3.68791,-1.38301 3.68791,-3.91844 0,-5.53186 -9.68079,-6.45384 -9.68079,-13.59913 -0.23026,-3.45743 2.53549,-6.22334 5.99288,-6.45383 0.23023,0 0.23023,0 0.46096,0 3.91841,0 6.22335,2.53542 6.22335,7.14528 l -2.76592,0.6915 c 0,-2.76593 -0.92197,-5.07086 -3.45743,-5.07086 -1.84398,0 -3.45739,1.38294 -3.45739,3.22689 0,0.23026 0,0.23026 0,0.46098 0,5.30133 9.68074,6.22329 9.68074,13.59914 0.23025,3.4574 -2.53543,6.45384 -5.99286,6.68433 -0.46097,0 -0.69145,0 -0.69145,-0.23074 m 20.514,-0.23023 H 438.7197 v -26.04587 h 11.06376 v 2.53545 h -8.0673 v 8.75876 h 6.68432 v 2.53543 h -6.68432 v 9.21976 h 8.0673 z m 13.59916,-18.43957 c 0,-2.99641 -0.92201,-4.84035 -4.84039,-4.84035 h -2.30493 v 9.68071 h 2.53543 c 3.9184,0 4.84035,-1.84392 4.60989,-4.84036 m 0.92194,18.43957 c -0.46096,-0.92202 -0.92194,-1.84398 -0.92194,-2.76596 l -0.92201,-4.84039 c -0.46099,-2.76591 -1.61341,-3.45741 -3.91838,-3.45741 h -2.07447 v 11.06376 h -2.99643 v -26.04587 h 5.76237 c 5.30135,0 7.3758,2.76595 7.3758,7.14532 0.23028,2.99641 -1.84391,5.99285 -4.84037,6.45384 v 0 c 2.07447,0.23073 3.22694,1.84398 3.68793,4.37939 l 0.92195,4.60988 c 0.23025,1.15248 0.46097,2.07445 1.15249,2.99638 z m 16.59561,-26.04587 h 2.9964 l -6.22333,26.04587 h -3.22691 l -5.99285,-25.81536 h 3.22692 l 4.60989,20.74444 v 0 z m 7.83681,16.13459 h 5.53183 l -2.7659,-12.4467 v 0 z m 5.76233,2.30493 h -6.45384 l -1.61342,7.37585 h -2.99648 l 5.76238,-25.81537 h 3.91842 l 5.76233,26.04587 h -2.99642 z m 9.91127,7.60635 v -23.27992 h -5.30139 v -2.53544 h 13.8297 v 2.53544 h -5.30139 v 23.27992 z m 11.2942,-26.04587 h 2.99642 v 26.04587 h -2.99642 z m 14.06018,-0.23071 c 5.07085,0 7.60628,4.84038 7.60628,13.36866 0,8.52829 -2.53543,13.36866 -7.60628,13.36866 -5.0709,0 -7.60632,-4.84037 -7.60632,-13.36866 0,-8.52828 2.53542,-13.36866 7.60632,-13.36866 m 0,2.53543 c -3.22693,0 -4.37937,4.14889 -4.37937,10.60273 0,6.45384 1.38294,10.60275 4.37937,10.60275 2.99642,0 4.37939,-4.14891 4.37939,-10.60275 0,-6.45384 -1.15248,-10.60273 -4.37939,-10.60273 m 21.89696,-2.30495 h 2.76591 v 26.04585 h -2.76591 l -8.06732,-19.59201 h -0.23025 v 19.59201 h -2.76592 V 344.5194 h 3.22689 l 7.37581,18.43952 h 0.23073 z m 20.05298,16.13458 h 5.53184 l -2.76594,-12.44671 v 0 z m 5.99286,2.30494 h -6.45384 l -1.61346,7.37584 h -2.99643 l 5.76234,-25.81536 h 3.9184 l 5.99287,26.04585 h -2.99645 z m 13.59915,5.30139 c 2.9964,0 3.68794,-2.53548 3.68794,-5.99287 v -17.51756 h 2.9964 v 17.74807 c 0,5.30135 -2.07447,8.29778 -6.68434,8.29778 -4.60988,0 -6.68431,-3.22693 -6.68431,-8.29778 v -17.74807 h 2.99638 v 17.51756 c 0,3.22689 0.69153,5.99287 3.68793,5.99287 m 14.75166,2.30494 v -23.27993 h -5.30142 v -2.53544 h 13.82969 v 2.53544 h -5.30138 v 23.27993 z m 11.29417,0 v -25.81537 h 2.99643 v 11.52473 h 8.06729 v -11.52473 h 2.99648 v 25.81537 h -2.99648 v -11.75523 h -8.06729 v 11.75523 z m 24.89341,-26.27633 c 5.07087,0 7.60632,4.84038 7.60632,13.36866 0,8.52829 -2.53545,13.36866 -7.60632,13.36866 -5.07089,0 -7.60632,-4.84037 -7.60632,-13.36866 0,-8.52828 2.53543,-13.36866 7.60632,-13.36866 m 0,2.76592 c -3.22693,0 -4.37937,4.14888 -4.37937,10.60274 0,6.45384 1.38294,10.60273 4.37937,10.60273 2.99643,0 4.37942,-4.14889 4.37942,-10.60273 0,-6.45386 -1.15251,-10.60274 -4.37942,-10.60274 m 21.20546,5.07086 c 0,-2.9964 -0.92199,-4.84038 -4.84039,-4.84038 h -2.30492 v 9.68073 h 2.53542 c 3.6879,0 4.60989,-1.84392 4.60989,-4.84035 m 0.69151,18.43955 c -0.461,-0.92199 -0.92201,-1.84394 -0.92201,-2.76595 l -0.92198,-4.84038 c -0.46097,-2.7659 -1.61345,-3.45737 -3.9184,-3.45737 h -2.30492 v 11.0637 h -2.9964 V 344.5194 h 5.76231 c 5.3014,0 7.37584,2.76592 7.37584,7.14531 0.23074,2.99642 -1.84396,5.99287 -4.84041,6.45384 v 0 c 2.07446,0.23072 3.22694,1.84397 3.6879,4.3794 l 0.92198,4.60987 c 0.23073,1.15249 0.46096,2.07446 1.15249,2.99641 z m 5.9928,-25.81537 h 2.99647 v 25.81537 h -2.99647 z m 11.29425,25.81537 v -23.27993 h -5.30138 v -2.53544 h 13.82969 v 2.53544 h -5.3014 v 23.27993 z m 17.28709,-13.82967 4.37937,-11.9857 h 2.99642 l -5.99286,15.6736 v 10.14177 h -2.9964 v -10.14177 l -5.99287,-15.6736 h 3.22693 z"
   id="path4-5"
   style="fill:#1a1a18;stroke-width:2.30495"
   inkscape:export-xdpi="600"
   inkscape:export-ydpi="600" /></svg>
