<?xml version="1.0" encoding="UTF-8" standalone="no"?>
<svg
   xmlns:dc="http://purl.org/dc/elements/1.1/"
   xmlns:cc="http://creativecommons.org/ns#"
   xmlns:rdf="http://www.w3.org/1999/02/22-rdf-syntax-ns#"
   xmlns:svg="http://www.w3.org/2000/svg"
   xmlns="http://www.w3.org/2000/svg"
   xmlns:sodipodi="http://sodipodi.sourceforge.net/DTD/sodipodi-0.dtd"
   xmlns:inkscape="http://www.inkscape.org/namespaces/inkscape"
   version="1.1"
   x="0px"
   y="0px"
   viewBox="0 0 2373.5425 423.30713"
   xml:space="preserve"
   id="svg152"
   sodipodi:docname="EECA_BEC.svg"
   width="628mm"
   height="112mm"
   inkscape:version="1.0.2 (e86c870879, 2021-01-15, custom)"><metadata
   id="metadata158"><rdf:RDF><cc:Work
       rdf:about=""><dc:format>image/svg+xml</dc:format><dc:type
         rdf:resource="http://purl.org/dc/dcmitype/StillImage" /><dc:title></dc:title></cc:Work></rdf:RDF></metadata><defs
   id="defs156"><inkscape:perspective
     sodipodi:type="inkscape:persp3d"
     inkscape:vp_x="0 : 196.53544 : 1"
     inkscape:vp_y="0 : 999.99993 : 0"
     inkscape:vp_z="2226.1409 : 196.53544 : 1"
     inkscape:persp3d-origin="1113.0703 : 120.94492 : 1"
     id="perspective85" /></defs><sodipodi:namedview
   pagecolor="#ffffff"
   bordercolor="#666666"
   borderopacity="1"
   objecttolerance="10"
   gridtolerance="10"
   guidetolerance="10"
   inkscape:pageopacity="0"
   inkscape:pageshadow="2"
   inkscape:window-width="1920"
   inkscape:window-height="1018"
   id="namedview154"
   showgrid="false"
   units="mm"
   showguides="true"
   inkscape:guide-bbox="true"
   inkscape:zoom="0.34785123"
   inkscape:cx="1059.2781"
   inkscape:cy="666.89046"
   inkscape:window-x="-6"
   inkscape:window-y="-6"
   inkscape:window-maximized="1"
   inkscape:current-layer="svg152"
   inkscape:document-rotation="0"><sodipodi:guide
     position="1198.7885,807.14283"
     orientation="0,-1"
     id="guide254" /><sodipodi:guide
     position="1434.5214,-417.51876"
     orientation="0,-1"
     id="guide256" /></sodipodi:namedview>
<style
   type="text/css"
   id="style2">
	.st0{fill:#F7901E;}
	.st1{fill:#1C2B39;}
	.st2{fill:#266091;}
</style>
<g
   id="Logos"
   transform="matrix(1.6994797,0,0,1.6994797,768.00082,-49.937027)"
   inkscape:export-xdpi="600"
   inkscape:export-ydpi="600">
	<g
   id="g58">
		<path
   class="st0"
   d="m 893,108.2 -56,-56 v 35.5 l 30.3,30.3 c 6.1,6.1 9.5,14.3 9.5,23 v 10.5 c 0,7.1 -2.3,13.9 -6.5,19.5 L 893,148.3 c 11.1,-11 11.1,-29 0,-40.1 z"
   id="path4" />
		<path
   class="st1"
   d="m 863,122.3 -3.3,-3.3 c 3.2,4.9 2.7,11.6 -1.7,16 l -54.3,54.3 H 837 v 7 l 26,-26 c 5,-5 7.8,-11.7 7.8,-18.7 V 141 c 0,-7 -2.8,-13.7 -7.8,-18.7 z"
   id="path6" />
		<g
   id="g28">
			<path
   class="st1"
   d="m 304.5,118.9 c 5.1,-0.7 12.3,-1.4 17.6,-1.4 16.6,0 26.5,6 26.5,19.5 0,8.6 -5.8,14.5 -13.7,15.7 10,0.8 16.8,6.7 16.8,16.9 0,12.3 -9,20.3 -30.8,20.3 -5.7,0 -11.8,-0.6 -16.4,-1.3 z m 11.7,29.7 h 5.7 c 9.8,0 14.9,-3.8 14.9,-11 0,-6.8 -5.3,-10.1 -13.9,-10.1 -2,0 -4.7,0.2 -6.6,0.5 v 20.6 z m 0,30.9 c 2.2,0.2 4.7,0.4 6.3,0.4 11.3,0 17.1,-3.7 17.1,-11 0,-7.6 -6.3,-10.5 -15.8,-10.5 h -7.6 z"
   id="path8" />
			<path
   class="st1"
   d="m 402.2,187.5 c -6.1,1.5 -14.2,2.4 -20.3,2.4 -15,0 -24.2,-4.8 -24.2,-19.5 v -34 h 11.6 v 33.2 c 0,7.8 4.7,10.6 12.4,10.6 2.6,0 5.9,-0.2 9,-0.7 v -43.1 h 11.6 v 51.1 z"
   id="path10" />
			<path
   class="st1"
   d="m 411.3,174.6 c 4.8,3.7 10.6,5.9 15.9,5.9 5.2,0 8.6,-1.8 8.6,-5.9 0,-4.2 -3.1,-5.8 -9.8,-7.6 -10.9,-2.5 -15.5,-6.8 -15.5,-15.9 0,-10.6 8,-15.8 18.6,-15.8 5.9,0 10.6,1.3 15,4 V 150 c -4.6,-3.3 -9.1,-5.3 -14.6,-5.3 -5.1,0 -7.8,2.5 -7.8,5.9 0,3.4 2.2,5.2 8.3,6.8 11.9,2.6 17.1,7.1 17.1,16.5 0,11 -8.4,15.9 -19.7,15.9 -6.1,0 -12.3,-1.7 -16.2,-4.2 v -11 z"
   id="path12" />
			<path
   class="st1"
   d="m 453.7,120.4 c 0,-4 3.4,-7.2 7.3,-7.2 3.9,0 7.3,3.2 7.3,7.2 0,4.1 -3.4,7.4 -7.3,7.4 -3.9,0 -7.3,-3.3 -7.3,-7.4 z m 13.2,68.3 h -11.7 v -52.3 h 11.7 z"
   id="path14" />
			<path
   class="st1"
   d="m 477.7,139.7 c 7.3,-2.8 16.3,-4.5 24,-4.5 13.3,0 21.8,5.1 21.8,19.8 v 33.6 H 511.9 V 156 c 0,-7.6 -4.7,-10.3 -11.2,-10.3 -4.1,0 -8.3,0.6 -11.3,1.5 v 41.3 h -11.7 z"
   id="path16" />
			<path
   class="st1"
   d="m 542.3,165.2 v 0.2 c 0.7,9.3 8.7,14.4 16.9,14.4 7.2,0 12.4,-1.7 17.6,-5.1 V 185 c -4.7,3.3 -11.7,4.8 -18.4,4.8 -16.3,0 -27.4,-10.4 -27.4,-26.9 0,-16.6 10.9,-27.7 25.3,-27.7 15.2,0 22.4,9.8 22.4,24.1 v 5.9 z m 25.3,-7.5 c -0.2,-8.1 -4.2,-12.6 -11.8,-12.6 -6.7,0 -11.7,4.7 -13.2,12.6 z"
   id="path18" />
			<path
   class="st1"
   d="m 586.8,174.6 c 4.8,3.7 10.6,5.9 15.9,5.9 5.2,0 8.6,-1.8 8.6,-5.9 0,-4.2 -3.1,-5.8 -9.8,-7.6 -10.9,-2.5 -15.5,-6.8 -15.5,-15.9 0,-10.6 8,-15.8 18.6,-15.8 5.9,0 10.6,1.3 15,4 V 150 c -4.6,-3.3 -9.1,-5.3 -14.6,-5.3 -5.1,0 -7.8,2.5 -7.8,5.9 0,3.4 2.2,5.2 8.3,6.8 11.9,2.6 17.1,7.1 17.1,16.5 0,11 -8.4,15.9 -19.7,15.9 -6.1,0 -12.3,-1.7 -16.2,-4.2 v -11 z"
   id="path20" />
			<path
   class="st1"
   d="m 629.5,174.6 c 4.8,3.7 10.6,5.9 15.9,5.9 5.2,0 8.6,-1.8 8.6,-5.9 0,-4.2 -3.1,-5.8 -9.8,-7.6 -10.9,-2.5 -15.5,-6.8 -15.5,-15.9 0,-10.6 8,-15.8 18.6,-15.8 5.9,0 10.6,1.3 15,4 V 150 c -4.6,-3.3 -9.1,-5.3 -14.6,-5.3 -5.1,0 -7.8,2.5 -7.8,5.9 0,3.4 2.2,5.2 8.3,6.8 11.9,2.6 17.1,7.1 17.1,16.5 0,11 -8.4,15.9 -19.7,15.9 -6.1,0 -12.3,-1.7 -16.2,-4.2 v -11 z"
   id="path22" />
			<path
   class="st1"
   d="m 723.5,170.6 v -51.4 h 11.6 v 69.5 h -11.5 l -35.7,-50.9 v 50.9 h -11.6 v -69.5 h 12.2 z"
   id="path24" />
			<path
   class="st1"
   d="m 743.4,119.2 h 49.1 v 10.4 l -36.7,48.6 h 37.8 v 10.5 h -51.2 v -10.5 l 36.2,-48.4 h -35.1 v -10.6 z"
   id="path26" />
		</g>
		<g
   id="g56">
			<path
   class="st1"
   d="m 534.7,234.3 v 2.8 h -17.8 v -30.9 h 17.6 v 2.8 h -14.4 v 10.9 h 13.4 v 2.8 h -13.4 v 11.5 h 14.6 z"
   id="path30" />
			<path
   class="st1"
   d="m 539.7,215.6 c 3,-1.1 6.4,-1.7 9.5,-1.7 5.7,0 9.2,2.2 9.2,7.9 v 15.3 h -3.1 v -14.7 c 0,-4.6 -3.3,-5.6 -6.3,-5.6 -2.4,0 -4.5,0.4 -6.1,0.8 V 237 h -3.1 v -21.4 z"
   id="path32" />
			<path
   class="st1"
   d="m 565.9,225.9 v 0.1 c 0,5.6 4,8.8 8.4,8.8 3.2,0 5.5,-0.8 7.7,-2.5 v 3.1 c -2,1.5 -4.9,2.2 -7.7,2.2 -6.6,0 -11.5,-4.5 -11.5,-11.9 0,-6.8 4.7,-11.9 10.8,-11.9 5.7,0 9.5,3.4 9.5,9.9 v 2.1 h -17.2 z m 14,-2.6 c -0.2,-4.7 -2.8,-6.7 -6.6,-6.7 -3.5,0 -6.4,2.4 -7.3,6.7 z"
   id="path34" />
			<path
   class="st1"
   d="m 590.6,237.1 h -3.1 v -20.6 c 2.4,-1.5 5.3,-2.4 8.4,-2.4 1.2,0 2.5,0.2 3.8,0.5 v 3.1 c -1.4,-0.5 -3,-0.6 -4,-0.6 -2.2,0 -3.9,0.5 -5.1,1.1 z"
   id="path36" />
			<path
   class="st1"
   d="m 617.9,236.3 c -0.8,0.5 -2.9,1 -4.7,1 -7.4,0 -12.6,-3.9 -12.6,-11.6 0,-7.3 5.1,-11.8 13.1,-11.8 2.3,0 5.5,0.6 7.4,1.5 v 22 c 0,6.9 -5.2,9.6 -10.4,9.6 -2.8,0 -5.4,-0.6 -7,-1.4 v -3 c 2,0.9 4.6,1.7 7,1.7 3.7,0 7.3,-1.8 7.3,-7.5 v -0.5 z m 0,-18.9 c -1.2,-0.4 -2.7,-0.7 -4.3,-0.7 -6.3,0 -9.9,3.3 -9.9,8.9 0,5.5 3.6,8.9 9.5,8.9 1.9,0 3.1,-0.3 4.7,-0.9 z"
   id="path38" />
			<path
   class="st1"
   d="m 634.7,235 7.5,-20.6 h 3.2 l -12.3,32 H 630 l 3.1,-7.9 -9.5,-24.2 h 3.4 z"
   id="path40" />
			<path
   class="st1"
   d="m 679.3,211.7 c -2.2,-2.1 -5.3,-3.2 -8.6,-3.2 -7,0 -12.6,5.1 -12.6,13.1 0,8 5.7,13.1 12.6,13.1 3.3,0 6.5,-1 8.7,-3.1 v 3.7 c -2.4,1.5 -5.6,2.3 -8.7,2.3 -9.4,0 -16,-6.5 -16,-16 0,-9.5 7.1,-16 16,-16 3.1,0 6,0.8 8.5,2.3 v 3.8 z"
   id="path42" />
			<path
   class="st1"
   d="m 694.2,213.9 c 6.8,0 11.4,4.8 11.4,11.9 0,7 -4.6,11.9 -11.4,11.9 -6.8,0 -11.4,-4.8 -11.4,-11.9 0,-7.1 4.6,-11.9 11.4,-11.9 z m 0,2.7 c -4.8,0 -8.2,3.6 -8.2,9.2 0,5.5 3.4,9.2 8.2,9.2 4.8,0 8.2,-3.6 8.2,-9.2 0,-5.6 -3.5,-9.2 -8.2,-9.2 z"
   id="path44" />
			<path
   class="st1"
   d="m 727.8,236.8 c -2.8,0.5 -5.6,0.8 -7.9,0.8 -6.6,0 -10.3,-2.2 -10.3,-7.9 v -15.3 h 3.1 v 15.1 c 0,4.3 3.4,5.4 7,5.4 1.6,0 3.3,-0.1 5,-0.3 v -20.2 h 3.1 z"
   id="path46" />
			<path
   class="st1"
   d="m 734.1,215.6 c 3,-1.1 6.4,-1.7 9.5,-1.7 5.7,0 9.2,2.2 9.2,7.9 v 15.3 h -3.1 v -14.7 c 0,-4.6 -3.3,-5.6 -6.3,-5.6 -2.4,0 -4.5,0.4 -6.1,0.8 V 237 h -3.1 v -21.4 z"
   id="path48" />
			<path
   class="st1"
   d="m 775.4,218.9 c -1.9,-1.4 -4.2,-2.1 -6.3,-2.1 -4.7,0 -8.7,3.1 -8.7,9 0,5.7 4,8.9 8.9,8.9 2.4,0 4.4,-0.8 6.5,-2.1 v 3.3 c -2.2,1.1 -4.4,1.7 -6.8,1.7 -6.3,0 -11.8,-4.4 -11.8,-11.9 0,-7.6 5.6,-11.9 11.8,-11.9 2.5,0 4.5,0.6 6.5,1.7 v 3.4 z"
   id="path50" />
			<path
   class="st1"
   d="m 779.4,207.3 c 0,-1.3 1.1,-2.3 2.3,-2.3 1.3,0 2.3,1 2.3,2.3 0,1.2 -1,2.3 -2.3,2.3 -1.2,0.1 -2.3,-1 -2.3,-2.3 z m 3.9,29.8 h -3.1 v -22.7 h 3.1 z"
   id="path52" />
			<path
   class="st1"
   d="m 792.7,237.1 h -3.1 v -35.4 h 3.1 z"
   id="path54" />
		</g>
	</g>
	<g
   id="g138">
		<g
   id="g136">
			<g
   id="g62">
				<path
   class="st0"
   d="m 88.6,119.9 v 0 c -0.3,-0.6 0.1,-0.9 0.6,-0.9 h 4.9 c 0.3,0 0.6,0.1 0.6,0.4 l 3.7,14 h 0.1 L 105,119 c 0.1,-0.3 0.4,-0.5 0.8,-0.5 h 0.8 c 0.4,0 0.6,0.3 0.6,0.5 l 6.5,14.4 h 0.1 l 3.6,-14 c 0.1,-0.3 0.4,-0.4 0.8,-0.4 h 4.8 c 0.6,0 0.9,0.3 0.8,0.8 l -7.9,27.7 c 0,0.3 -0.4,0.5 -0.6,0.5 h -0.8 c -0.3,0 -0.5,-0.1 -0.6,-0.4 l -7.6,-16.9 H 106 l -7.5,16.9 c -0.1,0.3 -0.4,0.4 -0.8,0.4 h -0.6 c -0.4,0 -0.6,-0.3 -0.8,-0.5 z"
   id="path60" />
			</g>
			<g
   id="g66">
				<path
   class="st0"
   d="m 140.7,141.5 v 0 c 4.6,0 8.3,-3.8 8.3,-8.3 0,-4.4 -3.7,-8.3 -8.3,-8.3 -4.6,0 -8.3,3.8 -8.3,8.3 0.1,4.5 3.8,8.3 8.3,8.3 z m 0,-23 v 0 c 8.3,0 14.9,6.5 14.9,14.7 0,8.3 -6.6,14.7 -14.9,14.7 -8.3,0 -14.9,-6.5 -14.9,-14.7 0.1,-8.1 6.7,-14.7 14.9,-14.7 z"
   id="path64" />
			</g>
			<g
   id="g70">
				<path
   class="st0"
   d="m 173.2,131.1 v 0 c 1.6,0 3.2,-1.5 3.2,-3.3 0,-1.7 -1.5,-3 -3.2,-3 h -6.1 v 6.4 h 6.1 z m -12.5,-11.4 v 0 c 0,-0.4 0.3,-0.6 0.8,-0.6 h 12.3 c 5,0 9,3.8 9,8.6 0,3.8 -2.5,6.9 -6.1,8.3 l 5.7,10.5 c 0.3,0.5 0,1.1 -0.8,1.1 h -5.5 c -0.4,0 -0.6,-0.3 -0.6,-0.4 l -5.6,-10.9 h -2.8 v 10.5 c 0,0.4 -0.4,0.8 -0.8,0.8 h -5 c -0.5,0 -0.8,-0.4 -0.8,-0.8 v -27.1 z"
   id="path68" />
			</g>
			<g
   id="g74">
				<path
   class="st0"
   d="m 188.3,119.7 v 0 c 0,-0.4 0.4,-0.6 0.8,-0.6 h 4.9 c 0.4,0 0.8,0.3 0.8,0.6 v 21.8 h 9.9 c 0.4,0 0.8,0.4 0.8,0.9 v 4.4 c 0,0.4 -0.4,0.8 -0.8,0.8 h -15.6 c -0.4,0 -0.8,-0.4 -0.8,-0.8 z"
   id="path72" />
			</g>
			<g
   id="g78">
				<path
   class="st0"
   d="m 220,141.5 v 0 c 4.7,0 8,-3.7 8,-8.4 0,-4.6 -3.3,-8.3 -8,-8.3 h -4.1 l 0.1,16.6 h 4 z m -10.5,-21.8 v 0 c 0,-0.4 0.3,-0.6 0.6,-0.6 h 10.2 c 8,0 14.5,6.2 14.5,14.1 0,8 -6.5,14.5 -14.5,14.5 h -10 c -0.5,0 -0.8,-0.4 -0.8,-0.8 z"
   id="path76" />
			</g>
			<g
   id="g82">
				<path
   class="st0"
   d="m 76.1,165 v 0 c 0,-0.4 0.4,-0.8 0.9,-0.8 h 17.1 c 0.4,0 0.8,0.4 0.8,0.8 v 4.4 c 0,0.5 -0.4,0.9 -0.8,0.9 H 82.6 v 5.1 h 9.5 c 0.4,0 0.8,0.4 0.8,0.8 v 4.4 c 0,0.5 -0.4,0.8 -0.8,0.8 h -9.5 v 5.6 h 11.5 c 0.4,0 0.8,0.4 0.8,0.8 v 4.4 c 0,0.4 -0.4,0.8 -0.8,0.8 H 77 c -0.5,0 -0.9,-0.4 -0.9,-0.8 z"
   id="path80" />
			</g>
			<g
   id="g86">
				<path
   class="st0"
   d="m 100.4,164.6 v 0 c 0,-0.5 0.4,-0.8 0.8,-0.8 h 1.1 l 16.5,15.7 V 165 c 0,-0.4 0.4,-0.8 0.8,-0.8 h 5 c 0.4,0 0.8,0.4 0.8,0.8 v 27.7 c 0,0.4 -0.3,0.8 -0.8,0.8 H 124 c -0.1,0 -0.5,-0.1 -0.5,-0.3 L 107,177 v 15.2 c 0,0.4 -0.4,0.8 -0.8,0.8 h -5 c -0.5,0 -0.8,-0.4 -0.8,-0.8 z"
   id="path84" />
			</g>
			<g
   id="g90">
				<path
   class="st0"
   d="m 132,165 v 0 c 0,-0.4 0.4,-0.8 0.9,-0.8 h 17 c 0.5,0 0.9,0.4 0.9,0.8 v 4.4 c 0,0.5 -0.4,0.8 -0.9,0.8 h -11.4 v 5.2 h 9.5 c 0.4,0 0.8,0.3 0.8,0.8 v 4.4 c 0,0.5 -0.4,0.8 -0.8,0.8 h -9.5 v 5.6 h 11.4 c 0.5,0 0.9,0.4 0.9,0.8 v 4.4 c 0,0.4 -0.4,0.8 -0.8,0.8 h -17.1 c -0.5,0 -0.9,-0.4 -0.9,-0.8 z"
   id="path88" />
			</g>
			<g
   id="g94">
				<path
   class="st0"
   d="m 168.9,176.6 v 0 c 1.6,0 3.2,-1.6 3.2,-3.3 0,-1.8 -1.5,-3.2 -3.2,-3.2 h -6.1 v 6.5 z M 156.2,165 v 0 c 0,-0.4 0.4,-0.8 0.9,-0.8 h 12.3 c 4.9,0 9,3.9 9,8.9 0,3.7 -2.5,6.7 -6.1,8.3 l 5.7,10.4 c 0.3,0.5 0,1.1 -0.8,1.1 h -5.5 c -0.4,0 -0.6,-0.1 -0.8,-0.4 l -5.5,-10.8 h -2.8 v 10.4 c 0,0.4 -0.4,0.8 -0.9,0.8 h -4.8 c -0.5,0 -0.9,-0.4 -0.9,-0.8 V 165 Z"
   id="path92" />
			</g>
			<g
   id="g98">
				<path
   class="st0"
   d="m 196.9,163.9 v 0 c 3.4,0 7.2,1.4 10,3.8 0.4,0.4 0.4,0.8 0.1,1.1 l -3.3,3.4 c -0.4,0.4 -0.8,0.4 -1.1,0.1 -1.5,-1.5 -3.4,-2 -5.3,-2 -4.6,0 -8.3,3.8 -8.3,8.3 0,4.6 3.7,8.3 8.3,8.3 1.1,0 2.4,-0.3 3.7,-0.6 v -2.4 h -2.7 c -0.4,0 -0.8,-0.4 -0.8,-0.8 V 179 c 0,-0.5 0.4,-0.8 0.8,-0.8 h 8.4 c 0.4,0 0.8,0.4 0.8,0.8 v 11 c 0,0.3 -0.1,0.5 -0.4,0.6 0,0 -4.2,2.7 -10.2,2.7 -8.3,0 -14.9,-6.5 -14.9,-14.7 0,-8.1 6.6,-14.7 14.9,-14.7 z"
   id="path96" />
			</g>
			<g
   id="g102">
				<path
   class="st0"
   d="m 218.4,179.1 v 0 l -9.1,-13.7 c -0.4,-0.5 0,-1.1 0.6,-1.1 h 5.3 c 0.4,0 0.6,0.1 0.8,0.4 l 5.7,8.4 5.7,-8.4 c 0.1,-0.3 0.3,-0.4 0.6,-0.4 h 5.5 c 0.6,0 1,0.6 0.6,1.1 l -9.3,13.7 v 13.1 c 0,0.4 -0.4,0.8 -0.8,0.8 h -5 c -0.5,0 -0.8,-0.4 -0.8,-0.8 v -13.1 z"
   id="path100" />
			</g>
			<g
   id="g106">
				<path
   class="st0"
   d="m 67.1,208.8 v 0 c 4.2,0 7.2,1.3 10,3.8 0.4,0.3 0.4,0.8 0,1.1 l -3.2,3.3 c -0.3,0.3 -0.8,0.3 -1,0 -1.5,-1.4 -3.6,-2 -5.6,-2 -4.7,0 -8.1,3.8 -8.1,8.4 0,4.6 3.4,8.4 8.1,8.4 1.9,0 4.1,-0.8 5.6,-2 0.3,-0.3 0.8,-0.3 1,0.1 l 3.3,3.3 c 0.3,0.4 0.3,0.9 -0.1,1.1 -2.8,2.7 -6.3,3.9 -10,4.1 -8.3,0 -14.9,-6.6 -14.9,-14.9 0.1,-8.1 6.7,-14.7 14.9,-14.7 z"
   id="path104" />
			</g>
			<g
   id="g110">
				<path
   class="st0"
   d="m 94.8,231.8 v 0 c 4.6,0 8.3,-3.7 8.3,-8.3 0,-4.4 -3.7,-8.3 -8.3,-8.3 -4.6,0 -8.3,3.8 -8.3,8.3 0,4.7 3.7,8.3 8.3,8.3 z m 0,-23 v 0 c 8.3,0 14.9,6.6 14.9,14.7 0,8.3 -6.6,14.7 -14.9,14.7 -8.3,0 -14.9,-6.5 -14.9,-14.7 0,-8.1 6.6,-14.7 14.9,-14.7 z"
   id="path108" />
			</g>
			<g
   id="g114">
				<path
   class="st0"
   d="m 114.3,210 v 0 c 0,-0.4 0.4,-0.8 0.8,-0.8 h 5.1 c 0.4,0 0.8,0.4 0.8,0.8 v 16.6 c 0,2.9 2.2,5.2 5.1,5.2 3,0 5.2,-2.3 5.2,-5.2 V 210 c 0,-0.4 0.3,-0.8 0.8,-0.8 h 5.1 c 0.4,0 0.8,0.4 0.8,0.8 v 17 c 0,6.2 -5.2,11.3 -11.8,11.3 -6.5,0 -11.7,-5.1 -11.7,-11.3 v -17 z"
   id="path112" />
			</g>
			<g
   id="g118">
				<path
   class="st0"
   d="m 144.6,209.5 v 0 c 0,-0.4 0.4,-0.6 0.8,-0.6 h 1 l 16.5,15.7 V 210 c 0,-0.4 0.4,-0.8 0.9,-0.8 h 4.9 c 0.4,0 0.8,0.4 0.8,0.8 v 27.7 c 0,0.4 -0.4,0.6 -0.8,0.6 h -0.8 c -0.1,0 -0.4,-0.1 -0.5,-0.1 L 151,221.8 v 15.4 c 0,0.4 -0.3,0.8 -0.8,0.8 h -5 c -0.4,0 -0.8,-0.4 -0.8,-0.8 v -27.7 z"
   id="path116" />
			</g>
			<g
   id="g122">
				<path
   class="st0"
   d="m 189.4,208.8 v 0 c 4.2,0 7.2,1.3 10,3.8 0.4,0.3 0.4,0.8 0,1.1 l -3.2,3.3 c -0.3,0.3 -0.8,0.3 -1,0 -1.5,-1.4 -3.6,-2.2 -5.6,-2.2 -4.7,0 -8.1,3.9 -8.1,8.5 0,4.6 3.4,8.4 8.1,8.4 1.9,0 4.1,-0.8 5.6,-2 0.3,-0.3 0.8,-0.3 1,0 l 3.3,3.4 c 0.3,0.4 0.3,0.9 -0.1,1.1 -2.8,2.7 -6.3,3.9 -10,3.9 -8.3,0 -15,-6.5 -15,-14.7 0,-8 6.7,-14.6 15,-14.6 z"
   id="path120" />
			</g>
			<g
   id="g126">
				<path
   class="st0"
   d="m 204.3,210 v 0 c 0,-0.4 0.4,-0.8 0.9,-0.8 h 5 c 0.4,0 0.8,0.4 0.8,0.8 v 27.2 c 0,0.4 -0.4,0.8 -0.8,0.8 h -5 c -0.5,0 -0.9,-0.4 -0.9,-0.8 z"
   id="path124" />
			</g>
			<g
   id="g130">
				<path
   class="st0"
   d="m 218.1,210 v 0 c 0,-0.4 0.4,-0.8 0.8,-0.8 h 4.9 c 0.4,0 0.8,0.4 0.8,0.8 v 22 h 9.9 c 0.4,0 0.8,0.3 0.8,0.8 v 4.4 c 0,0.4 -0.4,0.8 -0.8,0.8 h -15.6 c -0.4,0 -0.8,-0.4 -0.8,-0.8 z"
   id="path128" />
			</g>
			<g
   id="g134">
				<path
   class="st2"
   d="m 245.8,119 v 0 c 0,-0.3 0.4,-0.6 0.8,-0.6 h 5 c 0.4,0 0.8,0.4 0.8,0.6 v 118.5 c 0,0.4 -0.4,0.8 -0.8,0.8 h -5 c -0.4,0 -0.8,-0.4 -0.8,-0.8 z"
   id="path132" />
			</g>
		</g>
	</g>
</g>
<g
   id="Guides">
	<g
   id="g141">
	</g>
	<g
   id="g143">
	</g>
	<g
   id="g145">
	</g>
	<g
   id="g147">
	</g>
	<g
   id="g149">
	</g>
</g>
<path
   class="st0"
   d="m 494.68384,64.603553 c 30.35707,0 48.14437,11.383866 62.61136,23.716427 1.18586,0.94863 1.89734,2.37163 1.89734,4.03182 -0.23694,2.60878 -2.37165,4.74327 -4.98045,4.74327 -1.18584,0 -2.37163,-0.47432 -3.32033,-1.18586 -17.55016,-15.889991 -34.86311,-23.004915 -56.68223,-23.004915 -42.92673,0 -74.94395,34.151665 -74.94395,79.450065 v 0.47431 c 0,44.82407 32.96585,80.16156 75.41826,80.16156 22.53058,0 39.8436,-7.35209 57.86811,-24.66508 0.71145,-0.9487 1.89729,-1.42302 3.32031,-1.42302 2.37163,0.23694 4.2689,2.13449 4.50611,4.50613 0,1.18583 -0.47431,2.37166 -1.42299,3.08315 -19.92181,18.73598 -39.3693,26.56243 -64.50872,26.56243 -48.38152,0 -84.66764,-37.70913 -84.66764,-87.51369 v -0.47431 c -0.2369,-49.56734 37.23483,-88.462287 84.90482,-88.462287 m 221.03711,124.748427 0.47431,0.94869 20.39613,44.58688 c 0.47431,1.18579 2.1345,4.03179 4.7433,4.03179 2.37161,0 4.26895,-1.8973 4.50611,-4.26896 0,0 0,0 0,0 0,-1.18585 -0.23691,-2.13448 -0.71148,-3.08316 L 671.13408,71.006987 c -1.66012,-3.557493 -3.79462,-5.217635 -7.11494,-5.217635 h -0.47431 c -3.32033,0 -5.4548,1.422999 -7.1149,5.217635 l -74.2325,161.034553 c -0.4743,0.94869 -0.71147,2.13447 -0.94861,3.32031 0.23692,2.1345 2.13448,3.79465 4.26895,3.79465 1.42299,0 3.32026,-0.47433 4.50614,-3.55747 l 20.3961,-45.06121 53.12482,-115.736198 z M 276.72985,75.987419 h 105.77528 c 2.37166,0 4.26896,-1.897327 4.26896,-4.268962 0,-2.371634 -1.8973,-4.268963 -4.26896,-4.268963 v 0 H 270.32641 c -2.6088,0 -4.7433,2.134493 -4.7433,4.743291 v 3.557472 z m -11.14674,71.860831 v 85.37914 c 0,2.6088 2.1345,4.74327 4.7433,4.74327 h 113.60167 c 2.37167,0 4.03182,-1.89732 4.26898,-4.26897 0,-2.37163 -1.89731,-4.03178 -4.26898,-4.26895 H 274.83251 v -73.04663 h 96.52592 c 2.37163,0 4.26895,-1.89727 4.26895,-4.26889 0,-2.37164 -1.89732,-4.26897 -4.26895,-4.26897 0,0 0,0 0,0 z M 120.9129,75.987419 h 105.77529 c 2.37163,0 4.26895,-1.897327 4.26895,-4.268962 0,-2.371634 -1.89732,-4.268963 -4.26895,-4.268963 H 114.50944 c -2.60878,0 -4.74328,2.134493 -4.74328,4.743291 v 3.557472 z m -11.14674,71.860831 v 85.37914 c 0,2.6088 2.1345,4.74327 4.74328,4.74327 h 113.36454 c 2.37165,0 4.0318,-1.89732 4.26897,-4.26897 0,-2.37163 -1.89732,-4.03178 -4.26897,-4.26895 H 119.01555 v -73.04663 h 96.28878 c 2.37161,0 4.26893,-1.89727 4.26893,-4.26889 0,-2.37164 -1.89732,-4.26897 -4.26893,-4.26897 z m 12.56973,144.9074 h -10.90954 c -1.18586,0 -1.89733,-0.94869 -2.1345,-1.89732 0,-1.18586 0.94864,-1.89734 2.1345,-1.89734 h 26.32521 c 1.18583,0 1.89734,0.94864 1.89734,1.89734 0,1.18579 -0.94867,1.89732 -1.89734,1.89732 h -10.90953 v 32.01715 c 0,1.18583 -0.94866,2.13449 -2.1345,2.13449 -1.18583,0 -2.13448,-0.94866 -2.13448,-2.13449 0,0 0,0 0,0 z m 27.2739,33.91447 c -1.1858,0 -2.1345,-0.94863 -2.1345,-2.1345 v -33.44016 c 0,-1.18583 0.9487,-2.13447 2.1345,-2.13447 h 23.47927 c 1.1858,0.2374 1.89734,1.18586 1.66011,2.13447 0,0.94866 -0.71148,1.66019 -1.66011,1.66019 h -21.34478 v 12.80681 h 18.97313 c 1.18579,0 1.89729,0.94868 1.89729,1.89734 0,0.94868 -0.94864,1.89732 -1.89729,1.89732 0,0 0,0 0,0 h -18.97313 v 13.2812 h 21.58193 c 1.18581,0 1.89735,0.94867 1.89735,1.8973 0,1.18587 -0.9487,1.89732 -1.89735,1.89732 0,0 0,0 0,0 l -23.71642,0.23742 m 59.76541,-33.67733 h -11.14675 c -1.18583,0 -1.8973,-0.94871 -1.8973,-1.89732 0,-1.18582 0.94868,-1.89732 1.8973,-1.89732 h 26.32526 c 1.18579,0 1.89732,0.94868 1.89732,1.89732 0,1.18584 -0.9487,1.89732 -1.89732,1.89732 0,0 0,0 0,0 h -10.90957 v 32.01716 c 0,1.18586 -0.94868,2.1345 -2.13448,2.1345 -1.18583,0 -2.13446,-0.94864 -2.13446,-2.1345 z m 17.78732,32.01716 c 0,-0.47431 0,-0.71148 0.23691,-1.18579 l 15.41569,-33.67733 c 0.47431,-1.18584 1.42299,-1.8973 2.60878,-1.8973 h 0.23692 c 1.18584,0 2.37163,0.71146 2.6088,1.8973 l 15.41568,33.44018 c 0.23693,0.2374 0.23693,0.71146 0.23693,1.18579 0,1.18585 -0.94864,2.13447 -2.13448,2.13447 -0.94866,0 -1.89734,-0.71146 -2.13449,-1.66016 l -4.0318,-8.77508 H 234.751 l -4.0318,8.77508 c -0.2369,0.9487 -1.18579,1.42301 -2.13447,1.42301 -0.71146,0.23693 -1.66012,-0.47431 -1.42292,-1.66017 -0.23695,0 -0.23695,0 0,0 m 26.79953,-12.33249 -8.77508,-19.44749 -8.77507,19.44749 z m 18.0245,-21.58199 c 0,-1.18582 0.94863,-2.13448 2.1345,-2.13448 h 14.22979 c 4.03182,-0.23692 7.82647,1.18584 10.67242,3.79465 1.89732,1.89734 3.08313,4.74327 2.84597,7.35208 v 0 c 0,6.16628 -4.26899,9.72371 -10.19805,10.90955 l 9.48655,12.09536 c 0.47436,0.47433 0.7115,0.94869 0.7115,1.66017 0,1.18585 -0.94865,2.13447 -2.13449,2.13447 -0.71148,0 -1.66011,-0.47431 -1.89732,-1.18578 l -10.67236,-13.75558 h -10.90958 v 12.80689 c 0,1.18585 -0.94861,2.13447 -2.13443,2.13447 -1.18584,0 -2.1345,-0.94862 -2.1345,-2.13447 v 0 z m 15.88998,17.07587 c 5.69198,0 9.72371,-2.84601 9.72371,-7.82647 v -0.2374 c 0,-4.74327 -3.55742,-7.35206 -9.72371,-7.35206 h -11.62105 v 15.41567 z m 23.47925,-17.55018 c 0,-1.18584 0.9487,-2.13447 2.13449,-2.13447 1.18583,0 2.13448,0.94863 2.13448,2.13447 v 34.15164 c 0,1.18585 -0.94865,2.13447 -2.13448,2.13447 -1.18579,0 -2.13449,-0.94862 -2.13449,-2.13447 z m 41.02946,2.13448 h -10.90959 c -1.18582,0 -1.8973,-0.94869 -1.8973,-1.89733 0,0 0,0 0,0 0,-1.18583 0.94869,-1.89732 1.8973,-1.89732 h 26.08809 c 1.18579,0 1.89733,0.94866 2.1345,1.89732 0,1.18577 -0.94871,1.89733 -2.1345,1.89733 h -10.90955 v 32.01716 c -0.2369,1.18585 -1.18585,2.13447 -2.37165,1.89732 -0.94868,0 -1.8973,-0.94863 -1.8973,-1.89732 z m 25.37655,-2.13448 c 0,-1.18584 0.9487,-2.13447 2.1345,-2.13447 1.18583,0 2.13444,0.94863 2.13444,2.13447 v 34.15164 c 0,1.18585 -0.94861,2.13447 -2.13444,2.13447 -1.1858,0 -2.1345,-0.94862 -2.1345,-2.13447 z m 12.56973,34.38879 c 0,-0.47431 0,-0.71148 0.23691,-1.18579 l 15.41568,-33.67733 c 0.47431,-1.18584 1.423,-1.8973 2.6088,-1.8973 h 0.23694 c 1.18583,0 2.3716,0.71146 2.60878,1.8973 l 15.41567,33.44018 c 0.23693,0.2374 0.23693,0.71146 0.23693,1.18579 0,1.18585 -0.94865,2.13447 -2.13447,2.13447 v 0 c -0.94862,0 -1.89732,-0.71146 -2.13449,-1.66016 l -4.03176,-8.77532 h -20.39612 l -4.0318,8.77507 c -0.23741,0.94869 -1.18579,1.42302 -2.13448,1.42302 -0.94864,0.23691 -1.8973,-0.71149 -1.8973,-1.66015 v 0 m 27.03668,-12.33253 -8.77504,-19.44748 -8.77505,19.44748 z m 18.02456,-22.05629 c 0,-1.18583 0.94862,-2.13448 2.13441,-2.13448 1.18586,0 2.1345,0.94865 2.1345,2.13448 v 20.6333 l 21.58196,-22.05629 c 0.47433,-0.47433 0.94866,-0.71149 1.66017,-0.71149 1.18579,0 2.13447,0.94865 2.13447,2.13448 0,0.47431 -0.2369,1.18581 -0.71153,1.42297 l -13.51835,13.2812 14.46704,17.78731 c 0.47432,0.47433 0.47432,0.94869 0.47432,1.66017 0,1.18583 -0.94863,2.13449 -2.13449,2.13449 -0.71146,0 -1.42297,-0.47435 -1.66014,-0.94866 l -14.22984,-17.55015 -8.06361,8.06355 v 8.30077 c 0,1.18583 -0.94864,2.13449 -2.1345,2.13449 -1.18579,0 -2.13441,-0.94866 -2.13441,-2.13449 z m 38.89492,0 c 0,-1.18583 0.94864,-2.13448 2.13447,-2.13448 1.1858,0 2.13449,0.94865 2.13449,2.13448 v 34.15165 c 0,1.18583 -0.94869,2.13449 -2.13449,2.13449 -1.18583,0 -2.13447,-0.94866 -2.13447,-2.13449 z m 30.83137,0.47431 c 0,-1.18583 0.94864,-2.13447 2.13446,-2.13447 h 12.09537 c 8.53794,0 14.22988,4.50612 14.22988,12.09536 v 0.23742 c 0,8.06355 -6.87781,12.3325 -14.94135,12.3325 h -9.24942 v 11.38388 c 0,1.18583 -0.94865,2.13449 -2.13448,2.13449 -1.18582,0 -2.13446,-0.94866 -2.13446,-2.13449 z m 13.75552,18.26166 c 6.16627,0 10.43524,-3.32028 10.43524,-8.30077 v 0 c 0,-5.45476 -4.03178,-8.3007 -10.19807,-8.3007 h -9.48657 v 16.60147 z m 37.70913,18.02448 c -9.24939,0 -15.65286,-5.69191 -15.65286,-16.36433 v -20.15894 c 0,-1.18586 0.94866,-2.1345 2.13448,-2.1345 1.1858,0 2.1345,0.94864 2.1345,2.1345 v 19.92178 c 0,8.06357 4.5061,12.80688 11.62102,12.80688 7.11493,0 11.38388,-4.26895 11.38388,-12.56972 v -20.15894 c 0,-1.18586 0.94869,-2.1345 2.13448,-2.1345 1.18586,0 2.1345,0.94864 2.1345,2.1345 v 19.68461 c -0.23694,10.90959 -6.6406,16.83866 -15.89,16.83866 m -7.11494,-42.92672 c -0.94866,0 -1.66016,-0.7115 -1.66016,-1.66016 0,-0.94864 0.7115,-1.66012 1.66016,-1.66012 h 14.22984 c 0.94871,0 1.66017,0.71148 1.66017,1.66012 0,0.94866 -0.71146,1.66016 -1.66017,1.66016 z m 32.9658,6.40345 c 0,-1.18586 0.94869,-2.1345 2.13448,-2.1345 h 0.47432 c 0.94864,0 1.66013,0.47433 2.13449,1.1858 l 23.00493,29.40841 v -28.45971 c 0,-1.18586 0.94863,-2.1345 2.13445,-2.1345 1.18584,0 2.1345,0.94864 2.1345,2.1345 v 34.15164 c 0,0.94866 -0.71149,1.89732 -1.89733,1.89732 0,0 0,0 -0.23691,0 h -0.2374 c -0.94868,0 -1.66016,-0.47435 -2.13448,-1.42301 l -23.4793,-30.11984 v 29.17118 c 0,1.18587 -0.94863,2.1345 -2.13447,2.1345 -1.18579,0 -2.13448,-0.94863 -2.13448,-2.1345 0,0 0,0 0,0 z m 60.23979,36.52327 c -10.19807,0.4743 -18.73602,-7.58926 -19.21033,-17.78734 0,-0.47431 0,-1.18578 0,-1.6601 v -0.2374 c -0.2369,-10.4352 7.8264,-19.2103 18.26164,-19.44744 0.23693,0 0.47431,0 0.71147,0 4.74334,-0.23741 9.24947,1.18578 12.80689,4.03181 0.94868,0.71148 1.18585,2.13442 0.47433,3.08309 -0.47433,0.47432 -0.94866,0.94868 -1.66012,0.94868 -0.47433,0 -0.94867,-0.23695 -1.42302,-0.47436 -3.08311,-2.37162 -6.64059,-3.55741 -10.43524,-3.32026 -8.30072,0 -14.46699,7.11492 -14.46699,15.65283 v 0 c 0,9.01226 5.69193,15.65286 14.94137,15.65286 4.03176,0 7.82641,-1.423 10.90952,-3.79465 v -9.48655 h -10.19806 c -0.94868,0 -1.89731,-0.9487 -1.89731,-1.89735 0,-0.94866 0.94863,-1.8973 1.89731,-1.8973 h 12.09538 c 1.18584,0 2.13447,0.94864 2.13447,2.13448 v 11.62105 c 0,0.94866 -0.4743,2.13445 -1.42296,2.60878 -3.79462,2.60888 -8.53791,4.26898 -13.51835,4.26898 m 22.29343,-2.37165 c 0,-0.47431 0,-0.71149 0.23742,-1.18579 l 15.41569,-33.67734 c 0.47431,-1.18584 1.42294,-1.89731 2.60881,-1.89731 h 0.23689 c 1.18581,0 2.37165,0.71147 2.60882,1.89731 l 15.41567,33.44018 c 0.23689,0.23742 0.23689,0.71146 0.23689,1.18579 0,1.18586 -0.94861,2.13448 -2.13444,2.13448 -0.94866,0 -1.89735,-0.71147 -2.1345,-1.66015 l -4.0318,-8.7751 h -20.87044 l -3.79464,9.01225 c -0.23691,0.94869 -1.18582,1.423 -2.13448,1.423 -0.94864,0 -1.89732,-0.71147 -1.66012,-1.89732 -0.23739,0 -0.23739,0 0,0 m 26.79956,-12.3325 -8.77509,-19.44751 -8.77509,19.44751 z m 33.67734,14.70415 c -10.43525,0.23739 -19.21033,-8.3007 -19.21033,-18.73599 0,-0.23736 0,-0.47431 0,-0.71146 v -0.2374 c 0,-10.67237 8.53792,-19.21027 19.21033,-19.21027 10.67239,0 19.21026,8.5379 19.21026,19.21027 0,0 0,0 0,0 v 0 c 0.23692,10.6724 -8.30071,19.44748 -18.73596,19.44748 -0.23688,0.23694 -0.4743,0.23694 -0.4743,0.23694 m 0,-4.03183 c 8.30072,0 14.94131,-6.64053 14.94131,-14.94131 0,-0.23691 0,-0.47432 0,-0.71155 v -0.23735 c 0.2374,-8.30076 -6.40342,-15.17849 -14.70415,-15.4157 0,0 0,0 0,0 -8.30078,0 -14.94138,6.6406 -14.94138,14.94137 0,0.23738 0,0.47433 0,0.71146 v 0 c -0.23691,8.30076 6.16629,15.4157 14.46706,15.65285 0,0 0.23691,0 0.23691,0 m -591.48731,47.1966 h -11.38388 v -26.79955 h 11.38388 v 2.6088 h -8.30075 v 9.01224 h 6.87773 v 2.60879 h -6.87773 v 9.48656 h 8.30075 z m 14.94136,-26.56241 h 2.84596 v 26.56241 h -2.84596 l -8.30076,-20.15896 h -0.23691 v 20.15896 h -2.84596 v -26.79955 h 3.32028 l 7.5893,18.97311 h 0.23739 z m 18.49879,26.56241 h -11.38386 v -26.79955 h 11.38386 v 2.6088 h -8.30074 v 9.01224 h 6.87782 v 2.60879 h -6.87782 v 9.48656 h 8.30074 z m 13.9927,-18.97314 c 0,-3.08313 -0.94865,-4.98046 -4.98044,-4.98046 h -2.37163 v 9.96087 h 2.60879 c 3.79463,0 4.74328,-1.89726 4.74328,-4.98041 m 0.71154,18.97314 c -0.47433,-0.94868 -0.9487,-1.89732 -0.9487,-2.84599 l -0.94865,-5.2176 c -0.47431,-2.84596 -1.66016,-3.55749 -4.03179,-3.55749 h -2.13447 v 11.62108 h -3.08314 v -26.79955 h 5.92909 c 5.45481,0 7.58929,2.84595 7.58929,7.35207 0.23691,3.08312 -1.89732,6.16627 -4.98045,6.6406 v 0 c 2.13449,0.2374 3.32028,1.89733 3.79461,4.50613 l 0.94867,4.74328 c 0.2369,1.18585 0.47432,2.13448 1.1858,3.08311 z m 19.9218,-13.28121 v 13.28121 h -2.37167 l -0.4743,-3.32031 c -0.47431,2.13447 -2.37164,3.55748 -4.50611,3.55748 -4.98049,0 -7.58929,-4.98043 -7.58929,-13.28122 0,-8.30075 2.6088,-13.99266 7.82646,-13.99266 4.5061,0 5.92905,3.55743 6.40343,7.35206 l -2.84603,0.94867 c -0.23691,-2.84597 -1.18577,-5.45477 -3.79457,-5.45477 -3.08319,0 -4.74333,4.74327 -4.74333,11.1467 0,6.40345 1.42299,10.67243 4.74333,10.67243 2.37161,0 3.79457,-2.37164 3.79457,-6.40344 v -1.89733 h -3.79457 v -2.60882 z m 9.24938,-0.94866 4.50613,-12.56968 h 3.08311 l -6.16627,16.12716 v 10.43523 h -3.08313 v -10.43523 l -6.16627,-16.12716 h 3.32033 z m 28.69688,14.22987 h -11.38386 v -26.79955 h 11.38386 v 2.6088 h -8.30074 v 9.01224 h 6.87774 v 2.60879 h -6.87774 v 9.48656 h 8.30074 z m 3.7946,0 v -26.79955 h 10.90956 v 2.6088 h -7.82638 v 9.2494 h 6.6406 v 2.84596 h -6.6406 v 11.85823 z m 14.22988,0 v -26.79955 h 10.9096 v 2.6088 h -7.82647 v 9.2494 h 6.64062 v 2.84596 h -6.64062 v 11.85823 z m 14.22986,-26.56241 h 3.08319 v 26.56241 h -2.84604 z m 6.64058,13.2812 c 0,-8.5379 2.60881,-13.51834 7.58931,-13.51834 4.26894,0 5.92906,3.55741 6.16624,7.35207 l -2.84597,0.94864 c -0.23692,-2.84596 -1.18579,-5.45476 -3.55743,-5.45476 -2.846,0 -4.26894,4.50612 -4.26894,10.90955 0,6.40345 1.42294,10.90959 4.26894,10.90959 2.37164,0 3.32025,-2.6088 3.55743,-5.45482 l 2.84597,0.94868 c -0.47435,3.79461 -1.8973,7.35209 -6.4034,7.35209 -4.98048,-0.2374 -7.35215,-5.45475 -7.35215,-13.9927 m 16.83869,-13.2812 h 3.08311 v 26.56241 h -3.08311 z m 18.97314,26.56241 h -11.14673 v -26.79955 h 11.38388 v 2.6088 h -8.3007 v 9.01224 h 6.87776 v 2.60879 h -6.87776 v 9.48656 h 8.3007 z m 14.94134,-26.79955 h 2.84596 v 26.79955 h -2.84596 l -8.30074,-20.15896 h -0.23742 v 20.15896 h -2.84594 v -26.79955 h 3.32027 l 7.58928,18.97311 h 0.23693 v -18.97311 z m 6.40345,13.28119 c 0,-8.53791 2.60881,-13.51835 7.58927,-13.51835 4.26894,0 5.69193,3.55743 6.16626,7.35206 l -2.84593,0.94867 c -0.23693,-2.84597 -1.18589,-5.45477 -3.55749,-5.45477 -2.84597,0 -4.269,4.5061 -4.269,10.90954 0,6.40345 1.42303,10.90959 4.269,10.90959 2.3716,0 3.32031,-2.60887 3.55749,-5.45482 l 2.84593,0.94868 c -0.47433,3.7946 -1.89732,7.35209 -6.40342,7.35209 -4.7433,-0.23738 -7.35211,-5.21759 -7.35211,-13.99269 m 22.76778,-0.71151 4.50611,-12.33254 h 3.08319 l -5.92915,16.12716 v 10.43525 h -3.08316 v -10.43525 l -6.16624,-16.12716 h 3.32028 z m 20.63327,-7.11493 c 0,1.89732 0.71153,3.79465 1.66019,5.45481 2.13443,-0.94869 3.3203,-3.08315 3.3203,-5.45481 0,-1.89734 -0.9487,-3.32029 -2.37164,-3.32029 -1.42301,0 -2.60885,1.42295 -2.60885,3.32029 m 2.13449,18.97318 c 1.42299,0 2.846,-0.94869 3.55749,-2.13449 l -5.21761,-7.82645 c -1.66016,1.18585 -2.37164,3.32033 -2.13447,5.2176 0,2.60885 1.42294,4.74334 3.79459,4.74334 m 4.98049,0 c -2.13449,2.84595 -6.16628,3.55741 -9.01225,1.42294 -1.89732,-1.42294 -2.846,-3.79458 -2.60884,-6.16628 0,-2.84596 1.423,-5.69192 3.79463,-7.35208 -1.42299,-1.89732 -2.13449,-4.26894 -2.13449,-6.87776 -0.23689,-3.08311 2.13449,-5.45475 4.98046,-5.69191 0,0 0.23691,0 0.23691,0 2.84601,0 5.21766,2.13444 5.45482,4.98044 0,0.2374 0,0.47432 0,0.71147 0,3.08313 -1.89735,5.92915 -4.74328,7.35207 l 4.03174,6.40345 c 0.71154,-2.60881 0.94869,-5.2176 0.71154,-7.82637 l 2.84595,0.71146 c 0,3.32033 -0.47431,6.6406 -1.89734,9.7237 l 3.08318,4.98049 h -3.32032 z m 13.51833,-10.90959 c 0,-8.5379 2.6088,-13.51834 7.58926,-13.51834 4.26897,0 5.69199,3.55741 6.16629,7.35207 l -2.84596,0.94864 c -0.2374,-2.84596 -1.18585,-5.45476 -3.55749,-5.45476 -2.84595,0 -4.26895,4.50612 -4.26895,10.90955 0,6.40345 1.423,10.90959 4.26895,10.90959 2.37164,0 3.32026,-2.6088 3.55749,-5.45482 l 2.84596,0.94868 c -0.4743,3.79461 -1.89732,7.35209 -6.40345,7.35209 -4.98045,-0.47432 -7.3521,-5.45475 -7.3521,-13.9927 m 23.95361,-13.7555 c 5.21762,0 7.82642,4.98044 7.82642,13.7555 0,8.7751 -2.6088,13.75554 -7.82642,13.75554 -5.21763,0 -7.82643,-4.98044 -7.82643,-13.75554 0,-8.77506 2.6088,-13.7555 7.82643,-13.7555 m 0,2.84596 c -3.3203,0 -4.50616,4.26894 -4.50616,10.90954 0,6.64061 1.42301,10.90959 4.50616,10.90959 3.08314,0 4.5061,-4.26898 4.5061,-10.90959 0,-6.6406 -1.42296,-10.90954 -4.5061,-10.90954 m 22.53061,-2.37166 h 2.84597 v 26.56241 h -2.84597 l -8.30075,-20.15896 h -0.2369 v 20.15896 h -2.84601 v -26.79955 h 3.55747 l 7.58929,18.97311 h 0.2369 z m 12.5697,26.79958 c -4.26897,0 -7.11493,-2.84595 -6.87778,-8.30076 l 2.84596,-0.71147 c -0.23693,3.79457 1.42301,6.40344 4.03182,6.40344 2.37163,0 3.79464,-1.42303 3.79464,-4.03183 0,-5.69194 -9.96094,-6.6406 -9.96094,-13.99266 -0.23692,-3.55749 2.60886,-6.40344 6.1663,-6.6406 0.2369,0 0.2369,0 0.4743,0 4.0318,0 6.40345,2.6088 6.40345,7.35206 l -2.84596,0.71151 c 0,-2.84597 -0.94866,-5.21761 -3.55749,-5.21761 -1.89734,0 -3.55744,1.42296 -3.55744,3.32028 0,0.23692 0,0.23692 0,0.47431 0,5.45474 9.96089,6.40338 9.96089,13.99268 0.23691,3.55745 -2.6088,6.6406 -6.16629,6.87776 -0.47431,0 -0.71146,0 -0.71146,-0.23742 m 21.10764,-0.23689 H 468.83146 V 343.7459 h 11.38392 v 2.60882 h -8.30075 v 9.01222 h 6.87775 v 2.60881 h -6.87775 v 9.48656 h 8.30075 z m 13.99269,-18.97318 c 0,-3.08312 -0.94869,-4.98042 -4.98046,-4.98042 h -2.37163 v 9.96085 h 2.6088 c 4.03179,0 4.98042,-1.89727 4.74329,-4.98043 m 0.94862,18.97318 c -0.4743,-0.9487 -0.94862,-1.89734 -0.94862,-2.846 l -0.94869,-4.98046 c -0.47433,-2.84595 -1.6601,-3.55746 -4.03177,-3.55746 h -2.1345 v 11.38392 h -3.08314 V 343.7459 h 5.92912 c 5.45476,0 7.58924,2.84599 7.58924,7.35209 0.23695,3.08312 -1.89727,6.16628 -4.98044,6.64061 v 0 c 2.1345,0.2374 3.32032,1.89734 3.79465,4.50612 l 0.94863,4.74328 c 0.23691,1.18583 0.47431,2.13448 1.18584,3.08309 z m 17.07586,-26.79959 h 3.08311 l -6.40343,26.79959 h -3.32029 l -6.16627,-26.56241 h 3.3203 l 4.74329,21.34475 v 0 z m 8.06359,16.6015 h 5.69191 l -2.84594,-12.80689 v 0 z m 5.92908,2.37163 h -6.6406 l -1.66011,7.58929 h -3.08319 l 5.92913,-26.56242 h 4.03181 l 5.92908,26.79959 h -3.08313 z m 10.19808,7.82646 v -23.9536 h -5.4548 v -2.60881 h 14.2299 v 2.60881 h -5.4548 v 23.9536 z m 11.62103,-26.79959 h 3.08313 v 26.79959 h -3.08313 z m 14.46706,-0.23738 c 5.21759,0 7.82639,4.98045 7.82639,13.75552 0,8.77508 -2.6088,13.75552 -7.82639,13.75552 -5.21764,0 -7.82643,-4.98044 -7.82643,-13.75552 0,-8.77507 2.60879,-13.75552 7.82643,-13.75552 m 0,2.6088 c -3.32031,0 -4.5061,4.26895 -4.5061,10.90955 0,6.6406 1.42296,10.90957 4.5061,10.90957 3.08313,0 4.50612,-4.26897 4.50612,-10.90957 0,-6.6406 -1.18583,-10.90955 -4.50612,-10.90955 m 22.53061,-2.37165 h 2.84595 v 26.79956 H 585.042 l -8.30077,-20.15896 h -0.23691 v 20.15896 h -2.84596 v -26.79956 h 3.32027 l 7.58925,18.97312 h 0.2374 z m 20.63328,16.60148 h 5.69192 l -2.84598,-12.80689 v 0 z m 6.16628,2.37164 h -6.6406 l -1.66015,7.58928 h -3.08314 l 5.92909,-26.5624 h 4.03179 l 6.16629,26.79956 h -3.08316 z m 13.99268,5.4548 c 3.08311,0 3.79466,-2.60885 3.79466,-6.16629 v -18.02448 h 3.08311 v 18.26166 c 0,5.45476 -2.1345,8.5379 -6.87777,8.5379 -4.74328,0 -6.87774,-3.32031 -6.87774,-8.5379 v -18.26166 h 3.08309 v 18.02448 c 0,3.32027 0.71154,6.16629 3.79465,6.16629 m 15.17854,2.37164 v -23.9536 h -5.45483 v -2.60881 h 14.2299 v 2.60881 h -5.4548 v 23.9536 z m 11.62101,0 v -26.56241 h 3.08314 v 11.85823 h 8.30074 v -11.85823 h 3.08319 v 26.56241 h -3.08319 v -12.0954 h -8.30074 v 12.0954 z m 25.61377,-27.03671 c 5.21761,0 7.82643,4.98045 7.82643,13.75552 0,8.77508 -2.60882,13.75552 -7.82643,13.75552 -5.21763,0 -7.82643,-4.98044 -7.82643,-13.75552 0,-8.77507 2.6088,-13.75552 7.82643,-13.75552 m 0,2.84596 c -3.32031,0 -4.5061,4.26894 -4.5061,10.90956 0,6.6406 1.42296,10.90955 4.5061,10.90955 3.08314,0 4.50615,-4.26895 4.50615,-10.90955 0,-6.64062 -1.18586,-10.90956 -4.50615,-10.90956 m 21.81911,5.2176 c 0,-3.08311 -0.94867,-4.98045 -4.98047,-4.98045 h -2.37162 v 9.96087 h 2.60879 c 3.79463,0 4.7433,-1.89728 4.7433,-4.98042 m 0.71152,18.97315 c -0.47434,-0.94867 -0.94869,-1.8973 -0.94869,-2.84599 l -0.94866,-4.98045 c -0.47431,-2.84594 -1.66014,-3.55742 -4.03179,-3.55742 h -2.37163 v 11.38386 h -3.08311 v -26.79956 h 5.92906 c 5.45482,0 7.58929,2.84596 7.58929,7.35208 0.23741,3.08313 -1.89732,6.16629 -4.98048,6.6406 v 0 c 2.13449,0.2374 3.32032,1.89733 3.79462,4.50613 l 0.94866,4.74327 c 0.2374,1.18584 0.4743,2.13449 1.18584,3.08312 z m 6.16622,-26.56241 h 3.08318 v 26.56241 h -3.08318 z m 11.62108,26.56241 v -23.9536 h -5.45479 v -2.60881 h 14.22989 v 2.60881 h -5.45481 v 23.9536 z m 17.78735,-14.22987 4.5061,-12.33254 h 3.08313 l -6.16629,16.12716 v 10.43525 h -3.08311 v -10.43525 l -6.16629,-16.12716 h 3.32031 z"
   id="path4-5"
   style="fill:#1a1a18;stroke-width:2.37165"
   inkscape:export-xdpi="600"
   inkscape:export-ydpi="600" /></svg>
