<?xml version="1.0" encoding="utf-8"?>
<!-- Generator: Adobe Illustrator 25.1.0, SVG Export Plug-In . SVG Version: 6.00 Build 0)  -->
<svg version="1.1" id="Layer_1" xmlns="http://www.w3.org/2000/svg" xmlns:xlink="http://www.w3.org/1999/xlink" x="0px" y="0px"
	 viewBox="0 0 328.8 188.3" style="enable-background:new 0 0 328.8 188.3;" xml:space="preserve">
<style type="text/css">
	.st0{fill:#1A1A18;}
</style>
<path class="st0" d="M192.6,29c12.8,0,20.3,4.8,26.4,10c0.5,0.4,0.8,1,0.8,1.7c-0.1,1.1-1,2-2.1,2c-0.5,0-1-0.2-1.4-0.5
	c-7.4-6.7-14.7-9.7-23.9-9.7c-18.1,0-31.6,14.4-31.6,33.5v0.2c0,18.9,13.9,33.8,31.8,33.8c9.5,0,16.8-3.1,24.4-10.4
	c0.3-0.4,0.8-0.6,1.4-0.6c1,0.1,1.8,0.9,1.9,1.9c0,0.5-0.2,1-0.6,1.3c-8.4,7.9-16.6,11.2-27.2,11.2c-20.4,0-35.7-15.9-35.7-36.9
	v-0.2C156.7,45.4,172.5,29,192.6,29 M285.8,81.6L286,82l8.6,18.8c0.2,0.5,0.9,1.7,2,1.7c1,0,1.8-0.8,1.9-1.8c0,0,0,0,0,0
	c0-0.5-0.1-0.9-0.3-1.3l-31.2-67.7c-0.7-1.5-1.6-2.2-3-2.2h-0.2c-1.4,0-2.3,0.6-3,2.2l-31.3,67.9c-0.2,0.4-0.3,0.9-0.4,1.4
	c0.1,0.9,0.9,1.6,1.8,1.6c0.6,0,1.4-0.2,1.9-1.5l8.6-19l22.4-48.8L285.8,81.6z M100.7,33.8h44.6c1,0,1.8-0.8,1.8-1.8
	c0-1-0.8-1.8-1.8-1.8l0,0H98c-1.1,0-2,0.9-2,2v1.5L100.7,33.8z M96,64.1v36c0,1.1,0.9,2,2,2h47.9c1,0,1.7-0.8,1.8-1.8
	c0-1-0.8-1.7-1.8-1.8H99.9V67.7h40.7c1,0,1.8-0.8,1.8-1.8c0-1-0.8-1.8-1.8-1.8c0,0,0,0,0,0L96,64.1z M35,33.8h44.6
	c1,0,1.8-0.8,1.8-1.8c0-1-0.8-1.8-1.8-1.8H32.3c-1.1,0-2,0.9-2,2v1.5L35,33.8z M30.3,64.1v36c0,1.1,0.9,2,2,2h47.8
	c1,0,1.7-0.8,1.8-1.8c0-1-0.8-1.7-1.8-1.8H34.2V67.7h40.6c1,0,1.8-0.8,1.8-1.8c0-1-0.8-1.8-1.8-1.8L30.3,64.1z M35.6,125.2H31
	c-0.5,0-0.8-0.4-0.9-0.8c0-0.5,0.4-0.8,0.9-0.8h11.1c0.5,0,0.8,0.4,0.8,0.8c0,0.5-0.4,0.8-0.8,0.8h-4.6v13.5c0,0.5-0.4,0.9-0.9,0.9
	s-0.9-0.4-0.9-0.9c0,0,0,0,0,0L35.6,125.2z M47.1,139.5c-0.5,0-0.9-0.4-0.9-0.9v-14.1c0-0.5,0.4-0.9,0.9-0.9H57
	c0.5,0.1,0.8,0.5,0.7,0.9c0,0.4-0.3,0.7-0.7,0.7h-9v5.4h8c0.5,0,0.8,0.4,0.8,0.8c0,0.4-0.4,0.8-0.8,0.8c0,0,0,0,0,0h-8v5.6h9.1
	c0.5,0,0.8,0.4,0.8,0.8c0,0.5-0.4,0.8-0.8,0.8c0,0,0,0,0,0L47.1,139.5 M72.3,125.3h-4.7c-0.5,0-0.8-0.4-0.8-0.8
	c0-0.5,0.4-0.8,0.8-0.8h11.1c0.5,0,0.8,0.4,0.8,0.8c0,0.5-0.4,0.8-0.8,0.8c0,0,0,0,0,0h-4.6v13.5c0,0.5-0.4,0.9-0.9,0.9
	c-0.5,0-0.9-0.4-0.9-0.9L72.3,125.3z M79.8,138.8c0-0.2,0-0.3,0.1-0.5l6.5-14.2c0.2-0.5,0.6-0.8,1.1-0.8h0.1c0.5,0,1,0.3,1.1,0.8
	l6.5,14.1c0.1,0.1,0.1,0.3,0.1,0.5c0,0.5-0.4,0.9-0.9,0.9c-0.4,0-0.8-0.3-0.9-0.7l-1.7-3.7h-8.8l-1.7,3.7c-0.1,0.4-0.5,0.6-0.9,0.6
	C80.1,139.6,79.7,139.3,79.8,138.8C79.7,138.8,79.7,138.8,79.8,138.8 M91.1,133.6l-3.7-8.2l-3.7,8.2H91.1z M98.7,124.5
	c0-0.5,0.4-0.9,0.9-0.9h6c1.7-0.1,3.3,0.5,4.5,1.6c0.8,0.8,1.3,2,1.2,3.1l0,0c0,2.6-1.8,4.1-4.3,4.6l4,5.1c0.2,0.2,0.3,0.4,0.3,0.7
	c0,0.5-0.4,0.9-0.9,0.9c-0.3,0-0.7-0.2-0.8-0.5l-4.5-5.8h-4.6v5.4c0,0.5-0.4,0.9-0.9,0.9c-0.5,0-0.9-0.4-0.9-0.9l0,0L98.7,124.5z
	 M105.4,131.7c2.4,0,4.1-1.2,4.1-3.3v-0.1c0-2-1.5-3.1-4.1-3.1h-4.9v6.5H105.4z M115.3,124.3c0-0.5,0.4-0.9,0.9-0.9s0.9,0.4,0.9,0.9
	v14.4c0,0.5-0.4,0.9-0.9,0.9s-0.9-0.4-0.9-0.9V124.3z M132.6,125.2h-4.6c-0.5,0-0.8-0.4-0.8-0.8c0,0,0,0,0,0c0-0.5,0.4-0.8,0.8-0.8
	H139c0.5,0,0.8,0.4,0.9,0.8c0,0.5-0.4,0.8-0.9,0.8h-4.6v13.5c-0.1,0.5-0.5,0.9-1,0.8c-0.4,0-0.8-0.4-0.8-0.8V125.2z M143.3,124.3
	c0-0.5,0.4-0.9,0.9-0.9c0.5,0,0.9,0.4,0.9,0.9v14.4c0,0.5-0.4,0.9-0.9,0.9c-0.5,0-0.9-0.4-0.9-0.9V124.3z M148.6,138.8
	c0-0.2,0-0.3,0.1-0.5l6.5-14.2c0.2-0.5,0.6-0.8,1.1-0.8h0.1c0.5,0,1,0.3,1.1,0.8l6.5,14.1c0.1,0.1,0.1,0.3,0.1,0.5
	c0,0.5-0.4,0.9-0.9,0.9l0,0c-0.4,0-0.8-0.3-0.9-0.7l-1.7-3.7H152l-1.7,3.7c-0.1,0.4-0.5,0.6-0.9,0.6
	C149,139.6,148.6,139.2,148.6,138.8L148.6,138.8 M160,133.6l-3.7-8.2l-3.7,8.2H160z M167.6,124.3c0-0.5,0.4-0.9,0.9-0.9
	c0.5,0,0.9,0.4,0.9,0.9v8.7l9.1-9.3c0.2-0.2,0.4-0.3,0.7-0.3c0.5,0,0.9,0.4,0.9,0.9c0,0.2-0.1,0.5-0.3,0.6l-5.7,5.6l6.1,7.5
	c0.2,0.2,0.2,0.4,0.2,0.7c0,0.5-0.4,0.9-0.9,0.9c-0.3,0-0.6-0.2-0.7-0.4l-6-7.4l-3.4,3.4v3.5c0,0.5-0.4,0.9-0.9,0.9
	c-0.5,0-0.9-0.4-0.9-0.9L167.6,124.3z M184,124.3c0-0.5,0.4-0.9,0.9-0.9c0.5,0,0.9,0.4,0.9,0.9v14.4c0,0.5-0.4,0.9-0.9,0.9
	c-0.5,0-0.9-0.4-0.9-0.9V124.3z M197,124.5c0-0.5,0.4-0.9,0.9-0.9h5.1c3.6,0,6,1.9,6,5.1v0.1c0,3.4-2.9,5.2-6.3,5.2h-3.9v4.8
	c0,0.5-0.4,0.9-0.9,0.9c-0.5,0-0.9-0.4-0.9-0.9L197,124.5z M202.8,132.2c2.6,0,4.4-1.4,4.4-3.5l0,0c0-2.3-1.7-3.5-4.3-3.5h-4v7
	L202.8,132.2z M218.7,139.8c-3.9,0-6.6-2.4-6.6-6.9v-8.5c0-0.5,0.4-0.9,0.9-0.9c0.5,0,0.9,0.4,0.9,0.9v8.4c0,3.4,1.9,5.4,4.9,5.4
	s4.8-1.8,4.8-5.3v-8.5c0-0.5,0.4-0.9,0.9-0.9c0.5,0,0.9,0.4,0.9,0.9v8.3C225.3,137.3,222.6,139.8,218.7,139.8 M215.7,121.7
	c-0.4,0-0.7-0.3-0.7-0.7c0-0.4,0.3-0.7,0.7-0.7h6c0.4,0,0.7,0.3,0.7,0.7c0,0.4-0.3,0.7-0.7,0.7H215.7z M229.6,124.4
	c0-0.5,0.4-0.9,0.9-0.9h0.2c0.4,0,0.7,0.2,0.9,0.5l9.7,12.4v-12c0-0.5,0.4-0.9,0.9-0.9c0.5,0,0.9,0.4,0.9,0.9v14.4
	c0,0.4-0.3,0.8-0.8,0.8c0,0,0,0-0.1,0h-0.1c-0.4,0-0.7-0.2-0.9-0.6l-9.9-12.7v12.3c0,0.5-0.4,0.9-0.9,0.9c-0.5,0-0.9-0.4-0.9-0.9
	c0,0,0,0,0,0L229.6,124.4z M255,139.8c-4.3,0.2-7.9-3.2-8.1-7.5c0-0.2,0-0.5,0-0.7v-0.1c-0.1-4.4,3.3-8.1,7.7-8.2c0.1,0,0.2,0,0.3,0
	c2-0.1,3.9,0.5,5.4,1.7c0.4,0.3,0.5,0.9,0.2,1.3c-0.2,0.2-0.4,0.4-0.7,0.4c-0.2,0-0.4-0.1-0.6-0.2c-1.3-1-2.8-1.5-4.4-1.4
	c-3.5,0-6.1,3-6.1,6.6l0,0c0,3.8,2.4,6.6,6.3,6.6c1.7,0,3.3-0.6,4.6-1.6v-4h-4.3c-0.4,0-0.8-0.4-0.8-0.8c0-0.4,0.4-0.8,0.8-0.8h5.1
	c0.5,0,0.9,0.4,0.9,0.9v4.9c0,0.4-0.2,0.9-0.6,1.1C259.1,139.1,257.1,139.8,255,139.8 M264.4,138.8c0-0.2,0-0.3,0.1-0.5l6.5-14.2
	c0.2-0.5,0.6-0.8,1.1-0.8h0.1c0.5,0,1,0.3,1.1,0.8l6.5,14.1c0.1,0.1,0.1,0.3,0.1,0.5c0,0.5-0.4,0.9-0.9,0.9c-0.4,0-0.8-0.3-0.9-0.7
	l-1.7-3.7h-8.8L266,139c-0.1,0.4-0.5,0.6-0.9,0.6C264.7,139.6,264.3,139.3,264.4,138.8C264.3,138.8,264.3,138.8,264.4,138.8
	 M275.7,133.6l-3.7-8.2l-3.7,8.2H275.7z M289.9,139.8c-4.4,0.1-8.1-3.5-8.1-7.9c0-0.1,0-0.2,0-0.3v-0.1c0-4.5,3.6-8.1,8.1-8.1
	c4.5,0,8.1,3.6,8.1,8.1c0,0,0,0,0,0l0,0c0.1,4.5-3.5,8.2-7.9,8.2C290,139.8,289.9,139.8,289.9,139.8 M289.9,138.1
	c3.5,0,6.3-2.8,6.3-6.3c0-0.1,0-0.2,0-0.3v-0.1c0.1-3.5-2.7-6.4-6.2-6.5c0,0,0,0,0,0c-3.5,0-6.3,2.8-6.3,6.3c0,0.1,0,0.2,0,0.3l0,0
	c-0.1,3.5,2.6,6.5,6.1,6.6C289.8,138.1,289.9,138.1,289.9,138.1 M40.5,158h-4.8v-11.3h4.8v1.1H37v3.8h2.9v1.1H37v4h3.5L40.5,158z
	 M46.8,146.8H48V158h-1.2l-3.5-8.5h-0.1v8.5H42v-11.3h1.4l3.2,8h0.1L46.8,146.8z M54.6,158h-4.8v-11.3h4.8v1.1h-3.5v3.8H54v1.1h-2.9
	v4h3.5V158z M60.5,150c0-1.3-0.4-2.1-2.1-2.1h-1v4.2h1.1C60.1,152.1,60.5,151.3,60.5,150 M60.8,158c-0.2-0.4-0.4-0.8-0.4-1.2
	l-0.4-2.2c-0.2-1.2-0.7-1.5-1.7-1.5h-0.9v4.9h-1.3v-11.3h2.5c2.3,0,3.2,1.2,3.2,3.1c0.1,1.3-0.8,2.6-2.1,2.8l0,0
	c0.9,0.1,1.4,0.8,1.6,1.9l0.4,2c0.1,0.5,0.2,0.9,0.5,1.3L60.8,158z M69.2,152.4v5.6h-1l-0.2-1.4c-0.2,0.9-1,1.5-1.9,1.5
	c-2.1,0-3.2-2.1-3.2-5.6s1.1-5.9,3.3-5.9c1.9,0,2.5,1.5,2.7,3.1l-1.2,0.4c-0.1-1.2-0.5-2.3-1.6-2.3c-1.3,0-2,2-2,4.7s0.6,4.5,2,4.5
	c1,0,1.6-1,1.6-2.7v-0.8h-1.6v-1.1L69.2,152.4z M73.1,152l1.9-5.3h1.3l-2.6,6.8v4.4h-1.3v-4.4l-2.6-6.8h1.4L73.1,152L73.1,152z
	 M85.2,158h-4.8v-11.3h4.8v1.1h-3.5v3.8h2.9v1.1h-2.9v4h3.5V158z M86.8,158v-11.3h4.6v1.1h-3.3v3.9h2.8v1.2h-2.8v5L86.8,158z
	 M92.8,158v-11.3h4.6v1.1h-3.3v3.9h2.8v1.2h-2.8v5L92.8,158z M98.8,146.8h1.3V158h-1.2L98.8,146.8z M101.6,152.4
	c0-3.6,1.1-5.7,3.2-5.7c1.8,0,2.5,1.5,2.6,3.1l-1.2,0.4c-0.1-1.2-0.5-2.3-1.5-2.3c-1.2,0-1.8,1.9-1.8,4.6s0.6,4.6,1.8,4.6
	c1,0,1.4-1.1,1.5-2.3l1.2,0.4c-0.2,1.6-0.8,3.1-2.7,3.1C102.6,158.2,101.6,156,101.6,152.4 M108.7,146.8h1.3V158h-1.3V146.8z
	 M116.7,158H112v-11.3h4.8v1.1h-3.5v3.8h2.9v1.1h-2.9v4h3.5L116.7,158z M123,146.7h1.2V158H123l-3.5-8.5h-0.1v8.5h-1.2v-11.3h1.4
	l3.2,8h0.1V146.7z M125.7,152.3c0-3.6,1.1-5.7,3.2-5.7c1.8,0,2.4,1.5,2.6,3.1l-1.2,0.4c-0.1-1.2-0.5-2.3-1.5-2.3
	c-1.2,0-1.8,1.9-1.8,4.6s0.6,4.6,1.8,4.6c1,0,1.4-1.1,1.5-2.3l1.2,0.4c-0.2,1.6-0.8,3.1-2.7,3.1C126.8,158.1,125.7,156,125.7,152.3
	 M135.3,152l1.9-5.2h1.3l-2.5,6.8v4.4h-1.3v-4.4l-2.6-6.8h1.4L135.3,152L135.3,152z M144,149c0,0.8,0.3,1.6,0.7,2.3
	c0.9-0.4,1.4-1.3,1.4-2.3c0-0.8-0.4-1.4-1-1.4S144,148.2,144,149 M144.9,157c0.6,0,1.2-0.4,1.5-0.9l-2.2-3.3c-0.7,0.5-1,1.4-0.9,2.2
	C143.3,156.1,143.9,157,144.9,157 M147,157c-0.9,1.2-2.6,1.5-3.8,0.6c-0.8-0.6-1.2-1.6-1.1-2.6c0-1.2,0.6-2.4,1.6-3.1
	c-0.6-0.8-0.9-1.8-0.9-2.9c-0.1-1.3,0.9-2.3,2.1-2.4c0,0,0.1,0,0.1,0c1.2,0,2.2,0.9,2.3,2.1c0,0.1,0,0.2,0,0.3c0,1.3-0.8,2.5-2,3.1
	l1.7,2.7c0.3-1.1,0.4-2.2,0.3-3.3l1.2,0.3c0,1.4-0.2,2.8-0.8,4.1l1.3,2.1h-1.4L147,157z M152.7,152.4c0-3.6,1.1-5.7,3.2-5.7
	c1.8,0,2.4,1.5,2.6,3.1l-1.2,0.4c-0.1-1.2-0.5-2.3-1.5-2.3c-1.2,0-1.8,1.9-1.8,4.6s0.6,4.6,1.8,4.6c1,0,1.4-1.1,1.5-2.3l1.2,0.4
	c-0.2,1.6-0.8,3.1-2.7,3.1C153.7,158.1,152.7,156,152.7,152.4 M162.8,146.6c2.2,0,3.3,2.1,3.3,5.8s-1.1,5.8-3.3,5.8
	s-3.3-2.1-3.3-5.8S160.6,146.6,162.8,146.6 M162.8,147.8c-1.4,0-1.9,1.8-1.9,4.6s0.6,4.6,1.9,4.6s1.9-1.8,1.9-4.6
	S164.1,147.8,162.8,147.8 M172.3,146.8h1.2V158h-1.2l-3.5-8.5h-0.1v8.5h-1.2v-11.3h1.5l3.2,8h0.1L172.3,146.8z M177.6,158.1
	c-1.8,0-3-1.2-2.9-3.5l1.2-0.3c-0.1,1.6,0.6,2.7,1.7,2.7c1,0,1.6-0.6,1.6-1.7c0-2.4-4.2-2.8-4.2-5.9c-0.1-1.5,1.1-2.7,2.6-2.8
	c0.1,0,0.1,0,0.2,0c1.7,0,2.7,1.1,2.7,3.1l-1.2,0.3c0-1.2-0.4-2.2-1.5-2.2c-0.8,0-1.5,0.6-1.5,1.4c0,0.1,0,0.1,0,0.2
	c0,2.3,4.2,2.7,4.2,5.9c0.1,1.5-1.1,2.8-2.6,2.9C177.7,158.2,177.6,158.2,177.6,158.1 M186.5,158h-4.8v-11.3h4.8v1.1H183v3.8h2.9
	v1.1H183v4h3.5V158z M192.4,150c0-1.3-0.4-2.1-2.1-2.1h-1v4.2h1.1C192.1,152.1,192.5,151.3,192.4,150 M192.8,158
	c-0.2-0.4-0.4-0.8-0.4-1.2l-0.4-2.1c-0.2-1.2-0.7-1.5-1.7-1.5h-0.9v4.8h-1.3v-11.3h2.5c2.3,0,3.2,1.2,3.2,3.1
	c0.1,1.3-0.8,2.6-2.1,2.8l0,0c0.9,0.1,1.4,0.8,1.6,1.9l0.4,2c0.1,0.5,0.2,0.9,0.5,1.3L192.8,158z M200,146.7h1.3l-2.7,11.3h-1.4
	l-2.6-11.2h1.4l2,9l0,0L200,146.7z M203.4,153.7h2.4l-1.2-5.4l0,0L203.4,153.7z M205.9,154.7h-2.8l-0.7,3.2h-1.3l2.5-11.2h1.7
	l2.5,11.3h-1.3L205.9,154.7z M210.2,158v-10.1h-2.3v-1.1h6v1.1h-2.3V158L210.2,158z M215.1,146.7h1.3V158h-1.3V146.7z M221.2,146.6
	c2.2,0,3.3,2.1,3.3,5.8s-1.1,5.8-3.3,5.8s-3.3-2.1-3.3-5.8S219,146.6,221.2,146.6 M221.2,147.7c-1.4,0-1.9,1.8-1.9,4.6
	s0.6,4.6,1.9,4.6s1.9-1.8,1.9-4.6S222.6,147.7,221.2,147.7 M230.7,146.7h1.2V158h-1.2l-3.5-8.5h-0.1v8.5h-1.2v-11.3h1.4l3.2,8h0.1
	L230.7,146.7z M239.4,153.7h2.4l-1.2-5.4l0,0L239.4,153.7z M242,154.7h-2.8l-0.7,3.2h-1.3l2.5-11.2h1.7L244,158h-1.3L242,154.7z
	 M247.9,157c1.3,0,1.6-1.1,1.6-2.6v-7.6h1.3v7.7c0,2.3-0.9,3.6-2.9,3.6s-2.9-1.4-2.9-3.6v-7.7h1.3v7.6
	C246.3,155.8,246.6,157,247.9,157 M254.3,158v-10.1H252v-1.1h6v1.1h-2.3V158L254.3,158z M259.2,158v-11.2h1.3v5h3.5v-5h1.3V158H264
	v-5.1h-3.5v5.1L259.2,158z M270,146.6c2.2,0,3.3,2.1,3.3,5.8s-1.1,5.8-3.3,5.8s-3.3-2.1-3.3-5.8S267.8,146.6,270,146.6 M270,147.8
	c-1.4,0-1.9,1.8-1.9,4.6s0.6,4.6,1.9,4.6s1.9-1.8,1.9-4.6S271.4,147.8,270,147.8 M279.2,150c0-1.3-0.4-2.1-2.1-2.1h-1v4.2h1.1
	C278.8,152.1,279.2,151.3,279.2,150 M279.5,158c-0.2-0.4-0.4-0.8-0.4-1.2l-0.4-2.1c-0.2-1.2-0.7-1.5-1.7-1.5H276v4.8h-1.3v-11.3h2.5
	c2.3,0,3.2,1.2,3.2,3.1c0.1,1.3-0.8,2.6-2.1,2.8l0,0c0.9,0.1,1.4,0.8,1.6,1.9l0.4,2c0.1,0.5,0.2,0.9,0.5,1.3L279.5,158z
	 M282.1,146.8h1.3V158h-1.3V146.8z M287,158v-10.1h-2.3v-1.1h6v1.1h-2.3V158H287z M294.5,152l1.9-5.2h1.3l-2.6,6.8v4.4h-1.3v-4.4
	l-2.6-6.8h1.4L294.5,152L294.5,152z"/>
</svg>
