<?xml version="1.0" encoding="UTF-8" standalone="no"?>
<svg
   xmlns:dc="http://purl.org/dc/elements/1.1/"
   xmlns:cc="http://creativecommons.org/ns#"
   xmlns:rdf="http://www.w3.org/1999/02/22-rdf-syntax-ns#"
   xmlns:svg="http://www.w3.org/2000/svg"
   xmlns="http://www.w3.org/2000/svg"
   xmlns:sodipodi="http://sodipodi.sourceforge.net/DTD/sodipodi-0.dtd"
   xmlns:inkscape="http://www.inkscape.org/namespaces/inkscape"
   version="1.1"
   x="0px"
   y="0px"
   viewBox="0 0 2494.4855 491.33867"
   xml:space="preserve"
   id="svg152"
   sodipodi:docname="EECA_BEC.svg"
   width="660mm"
   height="130mm"
   inkscape:version="1.0.2 (e86c870879, 2021-01-15, custom)"><metadata
   id="metadata158"><rdf:RDF><cc:Work
       rdf:about=""><dc:format>image/svg+xml</dc:format><dc:type
         rdf:resource="http://purl.org/dc/dcmitype/StillImage" /><dc:title /></cc:Work></rdf:RDF></metadata><defs
   id="defs156"><inkscape:perspective
     sodipodi:type="inkscape:persp3d"
     inkscape:vp_x="0 : 264.56696 : 1"
     inkscape:vp_y="0 : 999.99998 : 0"
     inkscape:vp_z="2226.1379 : 264.56696 : 1"
     inkscape:persp3d-origin="1113.0686 : 188.97638 : 1"
     id="perspective85" /></defs><sodipodi:namedview
   pagecolor="#ffffff"
   bordercolor="#666666"
   borderopacity="1"
   objecttolerance="10"
   gridtolerance="10"
   guidetolerance="10"
   inkscape:pageopacity="0"
   inkscape:pageshadow="2"
   inkscape:window-width="1366"
   inkscape:window-height="705"
   id="namedview154"
   showgrid="false"
   units="mm"
   showguides="true"
   inkscape:guide-bbox="true"
   inkscape:zoom="0.34785123"
   inkscape:cx="1059.2781"
   inkscape:cy="666.89046"
   inkscape:window-x="-8"
   inkscape:window-y="-8"
   inkscape:window-maximized="1"
   inkscape:current-layer="svg152"
   inkscape:document-rotation="0"
   inkscape:snap-text-baseline="false"><sodipodi:guide
     position="1103.9199,351.43718"
     orientation="0,-1"
     id="guide254" /><sodipodi:guide
     position="1207.4124,40.959718"
     orientation="0,-1"
     id="guide256" /></sodipodi:namedview>
<style
   type="text/css"
   id="style2">
	.st0{fill:#F7901E;}
	.st1{fill:#1C2B39;}
	.st2{fill:#266091;}
</style>
<g
   id="Logos"
   transform="matrix(1.6994797,0,0,1.6994797,906.0008,56.062976)"
   inkscape:export-xdpi="600"
   inkscape:export-ydpi="600">
	<g
   id="g58">
		<path
   class="st0"
   d="m 893,108.2 -56,-56 v 35.5 l 30.3,30.3 c 6.1,6.1 9.5,14.3 9.5,23 v 10.5 c 0,7.1 -2.3,13.9 -6.5,19.5 L 893,148.3 c 11.1,-11 11.1,-29 0,-40.1 z"
   id="path4" />
		<path
   class="st1"
   d="m 863,122.3 -3.3,-3.3 c 3.2,4.9 2.7,11.6 -1.7,16 l -54.3,54.3 H 837 v 7 l 26,-26 c 5,-5 7.8,-11.7 7.8,-18.7 V 141 c 0,-7 -2.8,-13.7 -7.8,-18.7 z"
   id="path6" />
		<g
   id="g28">
			<path
   class="st1"
   d="m 304.5,118.9 c 5.1,-0.7 12.3,-1.4 17.6,-1.4 16.6,0 26.5,6 26.5,19.5 0,8.6 -5.8,14.5 -13.7,15.7 10,0.8 16.8,6.7 16.8,16.9 0,12.3 -9,20.3 -30.8,20.3 -5.7,0 -11.8,-0.6 -16.4,-1.3 z m 11.7,29.7 h 5.7 c 9.8,0 14.9,-3.8 14.9,-11 0,-6.8 -5.3,-10.1 -13.9,-10.1 -2,0 -4.7,0.2 -6.6,0.5 v 20.6 z m 0,30.9 c 2.2,0.2 4.7,0.4 6.3,0.4 11.3,0 17.1,-3.7 17.1,-11 0,-7.6 -6.3,-10.5 -15.8,-10.5 h -7.6 z"
   id="path8" />
			<path
   class="st1"
   d="m 402.2,187.5 c -6.1,1.5 -14.2,2.4 -20.3,2.4 -15,0 -24.2,-4.8 -24.2,-19.5 v -34 h 11.6 v 33.2 c 0,7.8 4.7,10.6 12.4,10.6 2.6,0 5.9,-0.2 9,-0.7 v -43.1 h 11.6 v 51.1 z"
   id="path10" />
			<path
   class="st1"
   d="m 411.3,174.6 c 4.8,3.7 10.6,5.9 15.9,5.9 5.2,0 8.6,-1.8 8.6,-5.9 0,-4.2 -3.1,-5.8 -9.8,-7.6 -10.9,-2.5 -15.5,-6.8 -15.5,-15.9 0,-10.6 8,-15.8 18.6,-15.8 5.9,0 10.6,1.3 15,4 V 150 c -4.6,-3.3 -9.1,-5.3 -14.6,-5.3 -5.1,0 -7.8,2.5 -7.8,5.9 0,3.4 2.2,5.2 8.3,6.8 11.9,2.6 17.1,7.1 17.1,16.5 0,11 -8.4,15.9 -19.7,15.9 -6.1,0 -12.3,-1.7 -16.2,-4.2 v -11 z"
   id="path12" />
			<path
   class="st1"
   d="m 453.7,120.4 c 0,-4 3.4,-7.2 7.3,-7.2 3.9,0 7.3,3.2 7.3,7.2 0,4.1 -3.4,7.4 -7.3,7.4 -3.9,0 -7.3,-3.3 -7.3,-7.4 z m 13.2,68.3 h -11.7 v -52.3 h 11.7 z"
   id="path14" />
			<path
   class="st1"
   d="m 477.7,139.7 c 7.3,-2.8 16.3,-4.5 24,-4.5 13.3,0 21.8,5.1 21.8,19.8 v 33.6 H 511.9 V 156 c 0,-7.6 -4.7,-10.3 -11.2,-10.3 -4.1,0 -8.3,0.6 -11.3,1.5 v 41.3 h -11.7 z"
   id="path16" />
			<path
   class="st1"
   d="m 542.3,165.2 v 0.2 c 0.7,9.3 8.7,14.4 16.9,14.4 7.2,0 12.4,-1.7 17.6,-5.1 V 185 c -4.7,3.3 -11.7,4.8 -18.4,4.8 -16.3,0 -27.4,-10.4 -27.4,-26.9 0,-16.6 10.9,-27.7 25.3,-27.7 15.2,0 22.4,9.8 22.4,24.1 v 5.9 z m 25.3,-7.5 c -0.2,-8.1 -4.2,-12.6 -11.8,-12.6 -6.7,0 -11.7,4.7 -13.2,12.6 z"
   id="path18" />
			<path
   class="st1"
   d="m 586.8,174.6 c 4.8,3.7 10.6,5.9 15.9,5.9 5.2,0 8.6,-1.8 8.6,-5.9 0,-4.2 -3.1,-5.8 -9.8,-7.6 -10.9,-2.5 -15.5,-6.8 -15.5,-15.9 0,-10.6 8,-15.8 18.6,-15.8 5.9,0 10.6,1.3 15,4 V 150 c -4.6,-3.3 -9.1,-5.3 -14.6,-5.3 -5.1,0 -7.8,2.5 -7.8,5.9 0,3.4 2.2,5.2 8.3,6.8 11.9,2.6 17.1,7.1 17.1,16.5 0,11 -8.4,15.9 -19.7,15.9 -6.1,0 -12.3,-1.7 -16.2,-4.2 v -11 z"
   id="path20" />
			<path
   class="st1"
   d="m 629.5,174.6 c 4.8,3.7 10.6,5.9 15.9,5.9 5.2,0 8.6,-1.8 8.6,-5.9 0,-4.2 -3.1,-5.8 -9.8,-7.6 -10.9,-2.5 -15.5,-6.8 -15.5,-15.9 0,-10.6 8,-15.8 18.6,-15.8 5.9,0 10.6,1.3 15,4 V 150 c -4.6,-3.3 -9.1,-5.3 -14.6,-5.3 -5.1,0 -7.8,2.5 -7.8,5.9 0,3.4 2.2,5.2 8.3,6.8 11.9,2.6 17.1,7.1 17.1,16.5 0,11 -8.4,15.9 -19.7,15.9 -6.1,0 -12.3,-1.7 -16.2,-4.2 v -11 z"
   id="path22" />
			<path
   class="st1"
   d="m 723.5,170.6 v -51.4 h 11.6 v 69.5 h -11.5 l -35.7,-50.9 v 50.9 h -11.6 v -69.5 h 12.2 z"
   id="path24" />
			<path
   class="st1"
   d="m 743.4,119.2 h 49.1 v 10.4 l -36.7,48.6 h 37.8 v 10.5 h -51.2 v -10.5 l 36.2,-48.4 h -35.1 v -10.6 z"
   id="path26" />
		</g>
		<g
   id="g56">
			<path
   class="st1"
   d="m 534.7,234.3 v 2.8 h -17.8 v -30.9 h 17.6 v 2.8 h -14.4 v 10.9 h 13.4 v 2.8 h -13.4 v 11.5 h 14.6 z"
   id="path30" />
			<path
   class="st1"
   d="m 539.7,215.6 c 3,-1.1 6.4,-1.7 9.5,-1.7 5.7,0 9.2,2.2 9.2,7.9 v 15.3 h -3.1 v -14.7 c 0,-4.6 -3.3,-5.6 -6.3,-5.6 -2.4,0 -4.5,0.4 -6.1,0.8 V 237 h -3.1 v -21.4 z"
   id="path32" />
			<path
   class="st1"
   d="m 565.9,225.9 v 0.1 c 0,5.6 4,8.8 8.4,8.8 3.2,0 5.5,-0.8 7.7,-2.5 v 3.1 c -2,1.5 -4.9,2.2 -7.7,2.2 -6.6,0 -11.5,-4.5 -11.5,-11.9 0,-6.8 4.7,-11.9 10.8,-11.9 5.7,0 9.5,3.4 9.5,9.9 v 2.1 h -17.2 z m 14,-2.6 c -0.2,-4.7 -2.8,-6.7 -6.6,-6.7 -3.5,0 -6.4,2.4 -7.3,6.7 z"
   id="path34" />
			<path
   class="st1"
   d="m 590.6,237.1 h -3.1 v -20.6 c 2.4,-1.5 5.3,-2.4 8.4,-2.4 1.2,0 2.5,0.2 3.8,0.5 v 3.1 c -1.4,-0.5 -3,-0.6 -4,-0.6 -2.2,0 -3.9,0.5 -5.1,1.1 z"
   id="path36" />
			<path
   class="st1"
   d="m 617.9,236.3 c -0.8,0.5 -2.9,1 -4.7,1 -7.4,0 -12.6,-3.9 -12.6,-11.6 0,-7.3 5.1,-11.8 13.1,-11.8 2.3,0 5.5,0.6 7.4,1.5 v 22 c 0,6.9 -5.2,9.6 -10.4,9.6 -2.8,0 -5.4,-0.6 -7,-1.4 v -3 c 2,0.9 4.6,1.7 7,1.7 3.7,0 7.3,-1.8 7.3,-7.5 v -0.5 z m 0,-18.9 c -1.2,-0.4 -2.7,-0.7 -4.3,-0.7 -6.3,0 -9.9,3.3 -9.9,8.9 0,5.5 3.6,8.9 9.5,8.9 1.9,0 3.1,-0.3 4.7,-0.9 z"
   id="path38" />
			<path
   class="st1"
   d="m 634.7,235 7.5,-20.6 h 3.2 l -12.3,32 H 630 l 3.1,-7.9 -9.5,-24.2 h 3.4 z"
   id="path40" />
			<path
   class="st1"
   d="m 679.3,211.7 c -2.2,-2.1 -5.3,-3.2 -8.6,-3.2 -7,0 -12.6,5.1 -12.6,13.1 0,8 5.7,13.1 12.6,13.1 3.3,0 6.5,-1 8.7,-3.1 v 3.7 c -2.4,1.5 -5.6,2.3 -8.7,2.3 -9.4,0 -16,-6.5 -16,-16 0,-9.5 7.1,-16 16,-16 3.1,0 6,0.8 8.5,2.3 v 3.8 z"
   id="path42" />
			<path
   class="st1"
   d="m 694.2,213.9 c 6.8,0 11.4,4.8 11.4,11.9 0,7 -4.6,11.9 -11.4,11.9 -6.8,0 -11.4,-4.8 -11.4,-11.9 0,-7.1 4.6,-11.9 11.4,-11.9 z m 0,2.7 c -4.8,0 -8.2,3.6 -8.2,9.2 0,5.5 3.4,9.2 8.2,9.2 4.8,0 8.2,-3.6 8.2,-9.2 0,-5.6 -3.5,-9.2 -8.2,-9.2 z"
   id="path44" />
			<path
   class="st1"
   d="m 727.8,236.8 c -2.8,0.5 -5.6,0.8 -7.9,0.8 -6.6,0 -10.3,-2.2 -10.3,-7.9 v -15.3 h 3.1 v 15.1 c 0,4.3 3.4,5.4 7,5.4 1.6,0 3.3,-0.1 5,-0.3 v -20.2 h 3.1 z"
   id="path46" />
			<path
   class="st1"
   d="m 734.1,215.6 c 3,-1.1 6.4,-1.7 9.5,-1.7 5.7,0 9.2,2.2 9.2,7.9 v 15.3 h -3.1 v -14.7 c 0,-4.6 -3.3,-5.6 -6.3,-5.6 -2.4,0 -4.5,0.4 -6.1,0.8 V 237 h -3.1 v -21.4 z"
   id="path48" />
			<path
   class="st1"
   d="m 775.4,218.9 c -1.9,-1.4 -4.2,-2.1 -6.3,-2.1 -4.7,0 -8.7,3.1 -8.7,9 0,5.7 4,8.9 8.9,8.9 2.4,0 4.4,-0.8 6.5,-2.1 v 3.3 c -2.2,1.1 -4.4,1.7 -6.8,1.7 -6.3,0 -11.8,-4.4 -11.8,-11.9 0,-7.6 5.6,-11.9 11.8,-11.9 2.5,0 4.5,0.6 6.5,1.7 v 3.4 z"
   id="path50" />
			<path
   class="st1"
   d="m 779.4,207.3 c 0,-1.3 1.1,-2.3 2.3,-2.3 1.3,0 2.3,1 2.3,2.3 0,1.2 -1,2.3 -2.3,2.3 -1.2,0.1 -2.3,-1 -2.3,-2.3 z m 3.9,29.8 h -3.1 v -22.7 h 3.1 z"
   id="path52" />
			<path
   class="st1"
   d="m 792.7,237.1 h -3.1 v -35.4 h 3.1 z"
   id="path54" />
		</g>
	</g>
	<g
   id="g138">
		<g
   id="g136">
			<g
   id="g62">
				<path
   class="st0"
   d="m 88.6,119.9 v 0 c -0.3,-0.6 0.1,-0.9 0.6,-0.9 h 4.9 c 0.3,0 0.6,0.1 0.6,0.4 l 3.7,14 h 0.1 L 105,119 c 0.1,-0.3 0.4,-0.5 0.8,-0.5 h 0.8 c 0.4,0 0.6,0.3 0.6,0.5 l 6.5,14.4 h 0.1 l 3.6,-14 c 0.1,-0.3 0.4,-0.4 0.8,-0.4 h 4.8 c 0.6,0 0.9,0.3 0.8,0.8 l -7.9,27.7 c 0,0.3 -0.4,0.5 -0.6,0.5 h -0.8 c -0.3,0 -0.5,-0.1 -0.6,-0.4 l -7.6,-16.9 H 106 l -7.5,16.9 c -0.1,0.3 -0.4,0.4 -0.8,0.4 h -0.6 c -0.4,0 -0.6,-0.3 -0.8,-0.5 z"
   id="path60" />
			</g>
			<g
   id="g66">
				<path
   class="st0"
   d="m 140.7,141.5 v 0 c 4.6,0 8.3,-3.8 8.3,-8.3 0,-4.4 -3.7,-8.3 -8.3,-8.3 -4.6,0 -8.3,3.8 -8.3,8.3 0.1,4.5 3.8,8.3 8.3,8.3 z m 0,-23 v 0 c 8.3,0 14.9,6.5 14.9,14.7 0,8.3 -6.6,14.7 -14.9,14.7 -8.3,0 -14.9,-6.5 -14.9,-14.7 0.1,-8.1 6.7,-14.7 14.9,-14.7 z"
   id="path64" />
			</g>
			<g
   id="g70">
				<path
   class="st0"
   d="m 173.2,131.1 v 0 c 1.6,0 3.2,-1.5 3.2,-3.3 0,-1.7 -1.5,-3 -3.2,-3 h -6.1 v 6.4 h 6.1 z m -12.5,-11.4 v 0 c 0,-0.4 0.3,-0.6 0.8,-0.6 h 12.3 c 5,0 9,3.8 9,8.6 0,3.8 -2.5,6.9 -6.1,8.3 l 5.7,10.5 c 0.3,0.5 0,1.1 -0.8,1.1 h -5.5 c -0.4,0 -0.6,-0.3 -0.6,-0.4 l -5.6,-10.9 h -2.8 v 10.5 c 0,0.4 -0.4,0.8 -0.8,0.8 h -5 c -0.5,0 -0.8,-0.4 -0.8,-0.8 v -27.1 z"
   id="path68" />
			</g>
			<g
   id="g74">
				<path
   class="st0"
   d="m 188.3,119.7 v 0 c 0,-0.4 0.4,-0.6 0.8,-0.6 h 4.9 c 0.4,0 0.8,0.3 0.8,0.6 v 21.8 h 9.9 c 0.4,0 0.8,0.4 0.8,0.9 v 4.4 c 0,0.4 -0.4,0.8 -0.8,0.8 h -15.6 c -0.4,0 -0.8,-0.4 -0.8,-0.8 z"
   id="path72" />
			</g>
			<g
   id="g78">
				<path
   class="st0"
   d="m 220,141.5 v 0 c 4.7,0 8,-3.7 8,-8.4 0,-4.6 -3.3,-8.3 -8,-8.3 h -4.1 l 0.1,16.6 h 4 z m -10.5,-21.8 v 0 c 0,-0.4 0.3,-0.6 0.6,-0.6 h 10.2 c 8,0 14.5,6.2 14.5,14.1 0,8 -6.5,14.5 -14.5,14.5 h -10 c -0.5,0 -0.8,-0.4 -0.8,-0.8 z"
   id="path76" />
			</g>
			<g
   id="g82">
				<path
   class="st0"
   d="m 76.1,165 v 0 c 0,-0.4 0.4,-0.8 0.9,-0.8 h 17.1 c 0.4,0 0.8,0.4 0.8,0.8 v 4.4 c 0,0.5 -0.4,0.9 -0.8,0.9 H 82.6 v 5.1 h 9.5 c 0.4,0 0.8,0.4 0.8,0.8 v 4.4 c 0,0.5 -0.4,0.8 -0.8,0.8 h -9.5 v 5.6 h 11.5 c 0.4,0 0.8,0.4 0.8,0.8 v 4.4 c 0,0.4 -0.4,0.8 -0.8,0.8 H 77 c -0.5,0 -0.9,-0.4 -0.9,-0.8 z"
   id="path80" />
			</g>
			<g
   id="g86">
				<path
   class="st0"
   d="m 100.4,164.6 v 0 c 0,-0.5 0.4,-0.8 0.8,-0.8 h 1.1 l 16.5,15.7 V 165 c 0,-0.4 0.4,-0.8 0.8,-0.8 h 5 c 0.4,0 0.8,0.4 0.8,0.8 v 27.7 c 0,0.4 -0.3,0.8 -0.8,0.8 H 124 c -0.1,0 -0.5,-0.1 -0.5,-0.3 L 107,177 v 15.2 c 0,0.4 -0.4,0.8 -0.8,0.8 h -5 c -0.5,0 -0.8,-0.4 -0.8,-0.8 z"
   id="path84" />
			</g>
			<g
   id="g90">
				<path
   class="st0"
   d="m 132,165 v 0 c 0,-0.4 0.4,-0.8 0.9,-0.8 h 17 c 0.5,0 0.9,0.4 0.9,0.8 v 4.4 c 0,0.5 -0.4,0.8 -0.9,0.8 h -11.4 v 5.2 h 9.5 c 0.4,0 0.8,0.3 0.8,0.8 v 4.4 c 0,0.5 -0.4,0.8 -0.8,0.8 h -9.5 v 5.6 h 11.4 c 0.5,0 0.9,0.4 0.9,0.8 v 4.4 c 0,0.4 -0.4,0.8 -0.8,0.8 h -17.1 c -0.5,0 -0.9,-0.4 -0.9,-0.8 z"
   id="path88" />
			</g>
			<g
   id="g94">
				<path
   class="st0"
   d="m 168.9,176.6 v 0 c 1.6,0 3.2,-1.6 3.2,-3.3 0,-1.8 -1.5,-3.2 -3.2,-3.2 h -6.1 v 6.5 z M 156.2,165 v 0 c 0,-0.4 0.4,-0.8 0.9,-0.8 h 12.3 c 4.9,0 9,3.9 9,8.9 0,3.7 -2.5,6.7 -6.1,8.3 l 5.7,10.4 c 0.3,0.5 0,1.1 -0.8,1.1 h -5.5 c -0.4,0 -0.6,-0.1 -0.8,-0.4 l -5.5,-10.8 h -2.8 v 10.4 c 0,0.4 -0.4,0.8 -0.9,0.8 h -4.8 c -0.5,0 -0.9,-0.4 -0.9,-0.8 V 165 Z"
   id="path92" />
			</g>
			<g
   id="g98">
				<path
   class="st0"
   d="m 196.9,163.9 v 0 c 3.4,0 7.2,1.4 10,3.8 0.4,0.4 0.4,0.8 0.1,1.1 l -3.3,3.4 c -0.4,0.4 -0.8,0.4 -1.1,0.1 -1.5,-1.5 -3.4,-2 -5.3,-2 -4.6,0 -8.3,3.8 -8.3,8.3 0,4.6 3.7,8.3 8.3,8.3 1.1,0 2.4,-0.3 3.7,-0.6 v -2.4 h -2.7 c -0.4,0 -0.8,-0.4 -0.8,-0.8 V 179 c 0,-0.5 0.4,-0.8 0.8,-0.8 h 8.4 c 0.4,0 0.8,0.4 0.8,0.8 v 11 c 0,0.3 -0.1,0.5 -0.4,0.6 0,0 -4.2,2.7 -10.2,2.7 -8.3,0 -14.9,-6.5 -14.9,-14.7 0,-8.1 6.6,-14.7 14.9,-14.7 z"
   id="path96" />
			</g>
			<g
   id="g102">
				<path
   class="st0"
   d="m 218.4,179.1 v 0 l -9.1,-13.7 c -0.4,-0.5 0,-1.1 0.6,-1.1 h 5.3 c 0.4,0 0.6,0.1 0.8,0.4 l 5.7,8.4 5.7,-8.4 c 0.1,-0.3 0.3,-0.4 0.6,-0.4 h 5.5 c 0.6,0 1,0.6 0.6,1.1 l -9.3,13.7 v 13.1 c 0,0.4 -0.4,0.8 -0.8,0.8 h -5 c -0.5,0 -0.8,-0.4 -0.8,-0.8 v -13.1 z"
   id="path100" />
			</g>
			<g
   id="g106">
				<path
   class="st0"
   d="m 67.1,208.8 v 0 c 4.2,0 7.2,1.3 10,3.8 0.4,0.3 0.4,0.8 0,1.1 l -3.2,3.3 c -0.3,0.3 -0.8,0.3 -1,0 -1.5,-1.4 -3.6,-2 -5.6,-2 -4.7,0 -8.1,3.8 -8.1,8.4 0,4.6 3.4,8.4 8.1,8.4 1.9,0 4.1,-0.8 5.6,-2 0.3,-0.3 0.8,-0.3 1,0.1 l 3.3,3.3 c 0.3,0.4 0.3,0.9 -0.1,1.1 -2.8,2.7 -6.3,3.9 -10,4.1 -8.3,0 -14.9,-6.6 -14.9,-14.9 0.1,-8.1 6.7,-14.7 14.9,-14.7 z"
   id="path104" />
			</g>
			<g
   id="g110">
				<path
   class="st0"
   d="m 94.8,231.8 v 0 c 4.6,0 8.3,-3.7 8.3,-8.3 0,-4.4 -3.7,-8.3 -8.3,-8.3 -4.6,0 -8.3,3.8 -8.3,8.3 0,4.7 3.7,8.3 8.3,8.3 z m 0,-23 v 0 c 8.3,0 14.9,6.6 14.9,14.7 0,8.3 -6.6,14.7 -14.9,14.7 -8.3,0 -14.9,-6.5 -14.9,-14.7 0,-8.1 6.6,-14.7 14.9,-14.7 z"
   id="path108" />
			</g>
			<g
   id="g114">
				<path
   class="st0"
   d="m 114.3,210 v 0 c 0,-0.4 0.4,-0.8 0.8,-0.8 h 5.1 c 0.4,0 0.8,0.4 0.8,0.8 v 16.6 c 0,2.9 2.2,5.2 5.1,5.2 3,0 5.2,-2.3 5.2,-5.2 V 210 c 0,-0.4 0.3,-0.8 0.8,-0.8 h 5.1 c 0.4,0 0.8,0.4 0.8,0.8 v 17 c 0,6.2 -5.2,11.3 -11.8,11.3 -6.5,0 -11.7,-5.1 -11.7,-11.3 v -17 z"
   id="path112" />
			</g>
			<g
   id="g118">
				<path
   class="st0"
   d="m 144.6,209.5 v 0 c 0,-0.4 0.4,-0.6 0.8,-0.6 h 1 l 16.5,15.7 V 210 c 0,-0.4 0.4,-0.8 0.9,-0.8 h 4.9 c 0.4,0 0.8,0.4 0.8,0.8 v 27.7 c 0,0.4 -0.4,0.6 -0.8,0.6 h -0.8 c -0.1,0 -0.4,-0.1 -0.5,-0.1 L 151,221.8 v 15.4 c 0,0.4 -0.3,0.8 -0.8,0.8 h -5 c -0.4,0 -0.8,-0.4 -0.8,-0.8 v -27.7 z"
   id="path116" />
			</g>
			<g
   id="g122">
				<path
   class="st0"
   d="m 189.4,208.8 v 0 c 4.2,0 7.2,1.3 10,3.8 0.4,0.3 0.4,0.8 0,1.1 l -3.2,3.3 c -0.3,0.3 -0.8,0.3 -1,0 -1.5,-1.4 -3.6,-2.2 -5.6,-2.2 -4.7,0 -8.1,3.9 -8.1,8.5 0,4.6 3.4,8.4 8.1,8.4 1.9,0 4.1,-0.8 5.6,-2 0.3,-0.3 0.8,-0.3 1,0 l 3.3,3.4 c 0.3,0.4 0.3,0.9 -0.1,1.1 -2.8,2.7 -6.3,3.9 -10,3.9 -8.3,0 -15,-6.5 -15,-14.7 0,-8 6.7,-14.6 15,-14.6 z"
   id="path120" />
			</g>
			<g
   id="g126">
				<path
   class="st0"
   d="m 204.3,210 v 0 c 0,-0.4 0.4,-0.8 0.9,-0.8 h 5 c 0.4,0 0.8,0.4 0.8,0.8 v 27.2 c 0,0.4 -0.4,0.8 -0.8,0.8 h -5 c -0.5,0 -0.9,-0.4 -0.9,-0.8 z"
   id="path124" />
			</g>
			<g
   id="g130">
				<path
   class="st0"
   d="m 218.1,210 v 0 c 0,-0.4 0.4,-0.8 0.8,-0.8 h 4.9 c 0.4,0 0.8,0.4 0.8,0.8 v 22 h 9.9 c 0.4,0 0.8,0.3 0.8,0.8 v 4.4 c 0,0.4 -0.4,0.8 -0.8,0.8 h -15.6 c -0.4,0 -0.8,-0.4 -0.8,-0.8 z"
   id="path128" />
			</g>
			<g
   id="g134">
				<path
   class="st2"
   d="m 245.8,119 v 0 c 0,-0.3 0.4,-0.6 0.8,-0.6 h 5 c 0.4,0 0.8,0.4 0.8,0.6 v 118.5 c 0,0.4 -0.4,0.8 -0.8,0.8 h -5 c -0.4,0 -0.8,-0.4 -0.8,-0.8 z"
   id="path132" />
			</g>
		</g>
	</g>
</g>
<g
   id="Guides">
	<g
   id="g141">
	</g>
	<g
   id="g143">
	</g>
	<g
   id="g145">
	</g>
	<g
   id="g147">
	</g>
	<g
   id="g149">
	</g>
</g>
<path
   class="st0"
   d="m 478.29071,172.50775 c 30.16856,0 47.84542,11.31317 62.22256,23.56915 1.1785,0.94274 1.88556,2.35691 1.88556,4.00679 -0.23546,2.59258 -2.35692,4.71382 -4.94952,4.71382 -1.17848,0 -2.3569,-0.47138 -3.2997,-1.1785 -17.44119,-15.79132 -34.64664,-22.86206 -56.33026,-22.86206 -42.66017,0 -74.47859,33.9396 -74.47859,78.95671 v 0.47137 c 0,44.54573 32.76116,79.66378 74.94995,79.66378 22.39067,0 39.59619,-7.30644 57.50877,-24.51192 0.70704,-0.9428 1.88551,-1.41418 3.29969,-1.41418 2.3569,0.23546 4.24239,2.12124 4.47813,4.47814 0,1.17847 -0.47136,2.35694 -1.41415,3.06401 -19.7981,18.61964 -39.12484,26.39749 -64.10815,26.39749 -48.08109,0 -84.14188,-37.47497 -84.14188,-86.97026 v -0.47137 c -0.23543,-49.25954 37.00361,-87.91297 84.37759,-87.91297 m 219.66456,123.97379 0.47136,0.9428 20.26948,44.31001 c 0.47137,1.17843 2.12124,4.00676 4.71384,4.00676 2.35688,0 4.24244,-1.88552 4.47813,-4.24246 0,0 0,0 0,0 0,-1.17848 -0.23543,-2.12122 -0.70706,-3.06401 L 653.64526,178.87142 c -1.64981,-3.5354 -3.77105,-5.18523 -7.07076,-5.18523 h -0.47136 c -3.29971,0 -5.42093,1.41416 -7.07072,5.18523 l -73.77154,160.03459 c -0.47136,0.9428 -0.70706,2.12122 -0.94272,3.2997 0.23544,2.12124 2.12122,3.77108 4.24244,3.77108 1.41415,0 3.29964,-0.47138 4.47816,-3.53538 L 593.3082,297.66002 646.10314,182.6425 Z M 261.69012,183.82092 h 105.11846 c 2.35694,0 4.24246,-1.88554 4.24246,-4.24245 0,-2.3569 -1.88552,-4.24245 -4.24246,-4.24245 v 0 H 255.32645 c -2.5926,0 -4.71384,2.12123 -4.71384,4.71383 v 3.53538 z m -11.07751,71.41461 v 84.84897 c 0,2.5926 2.12124,4.71382 4.71384,4.71382 H 368.2227 c 2.35694,0 4.00678,-1.88554 4.24247,-4.24247 0,-2.3569 -1.88553,-4.00674 -4.24247,-4.24244 H 259.80456 v -72.59303 h 95.92654 c 2.3569,0 4.24244,-1.88549 4.24244,-4.24239 0,-2.35691 -1.88554,-4.24246 -4.24244,-4.24246 0,0 0,0 0,0 z M 106.84074,183.82092 H 211.9592 c 2.3569,0 4.24244,-1.88554 4.24244,-4.24245 0,-2.3569 -1.88554,-4.24245 -4.24244,-4.24245 H 100.47704 c -2.592579,0 -4.713826,2.12123 -4.713826,4.71383 v 3.53538 z m -11.077526,71.41461 v 84.84897 c 0,2.5926 2.121247,4.71382 4.713826,4.71382 h 112.6606 c 2.35691,0 4.00675,-1.88554 4.24245,-4.24247 0,-2.3569 -1.88554,-4.00674 -4.24245,-4.24244 H 104.95517 v -72.59303 h 95.69087 c 2.35688,0 4.24242,-1.88549 4.24242,-4.24239 0,-2.35691 -1.88554,-4.24246 -4.24242,-4.24246 z M 108.25489,399.24312 H 97.413097 c -1.178498,0 -1.88555,-0.9428 -2.121247,-1.88554 0,-1.1785 0.942749,-1.88556 2.121247,-1.88556 h 26.161733 c 1.17847,0 1.88556,0.94275 1.88556,1.88556 0,1.17842 -0.94278,1.88554 -1.88556,1.88554 h -10.84178 v 31.81833 c 0,1.17847 -0.94276,2.12123 -2.12124,2.12123 -1.17847,0 -2.12123,-0.94276 -2.12123,-2.12123 0,0 0,0 0,0 z m 27.10454,33.70387 c -1.17844,0 -2.12125,-0.94274 -2.12125,-2.12125 v -33.23251 c 0,-1.17846 0.94281,-2.12121 2.12125,-2.12121 h 23.33348 c 1.17844,0.23592 1.88555,1.1785 1.6498,2.12121 0,0.94277 -0.70706,1.64989 -1.6498,1.64989 h -21.21224 v 12.72728 h 18.85532 c 1.17842,0 1.8855,0.94278 1.8855,1.88555 0,0.94279 -0.94275,1.88554 -1.8855,1.88554 0,0 0,0 0,0 h -18.85532 v 13.19873 h 21.44792 c 1.17844,0 1.88556,0.94278 1.88556,1.88552 0,1.17851 -0.9428,1.88554 -1.88556,1.88554 0,0 0,0 0,0 l -23.56916,0.23594 m 59.39429,-33.4682 h -11.07753 c -1.17847,0 -1.88552,-0.94282 -1.88552,-1.88554 0,-1.17846 0.94279,-1.88554 1.88552,-1.88554 h 26.16178 c 1.17844,0 1.88554,0.94279 1.88554,1.88554 0,1.17848 -0.9428,1.88554 -1.88554,1.88554 0,0 0,0 0,0 h -10.84181 v 31.81834 c 0,1.1785 -0.94279,2.12125 -2.12123,2.12125 -1.17847,0 -2.12121,-0.94275 -2.12121,-2.12125 z m 17.67687,31.81834 c 0,-0.47136 0,-0.70706 0.23544,-1.17843 l 15.31997,-33.4682 c 0.47136,-1.17848 1.41415,-1.88552 2.59258,-1.88552 h 0.23544 c 1.17848,0 2.3569,0.70704 2.5926,1.88552 l 15.31996,33.23253 c 0.23546,0.23593 0.23546,0.70704 0.23546,1.17842 0,1.17849 -0.94275,2.12122 -2.12123,2.12122 -0.94277,0 -1.88556,-0.70704 -2.12123,-1.64985 l -4.00677,-8.72058 h -20.74087 l -4.00675,8.72058 c -0.23543,0.94281 -1.17844,1.41417 -2.12122,1.41417 -0.70704,0.23546 -1.64981,-0.47136 -1.41409,-1.64986 -0.23547,0 -0.23547,0 0,0 m 26.63312,-12.25591 -8.72059,-19.32672 -8.72058,19.32672 z m 17.91258,-21.44797 c 0,-1.17846 0.94274,-2.12123 2.12124,-2.12123 h 14.14143 c 4.00678,-0.23545 7.77787,1.17848 10.60615,3.77109 1.88554,1.88556 3.06398,4.71382 2.8283,7.30643 v 0 c 0,6.12799 -4.24249,9.66333 -10.13473,10.84181 l 9.42764,12.02024 c 0.47142,0.47139 0.70709,0.9428 0.70709,1.64986 0,1.17849 -0.94276,2.12122 -2.12124,2.12122 -0.70706,0 -1.6498,-0.47136 -1.88554,-1.17842 L 272.05983,418.33433 H 261.218 v 12.72735 c 0,1.17849 -0.94273,2.12122 -2.12118,2.12122 -1.17848,0 -2.12124,-0.94273 -2.12124,-2.12122 v 0 z m 15.7913,16.96984 c 5.65664,0 9.66333,-2.82834 9.66333,-7.77787 v -0.23593 c 0,-4.71381 -3.53533,-7.3064 -9.66333,-7.3064 H 261.218 v 15.31993 z m 23.33346,-17.44121 c 0,-1.17847 0.94281,-2.12121 2.12124,-2.12121 1.17846,0 2.12122,0.94274 2.12122,2.12121 v 33.93957 c 0,1.17849 -0.94276,2.12122 -2.12122,2.12122 -1.17843,0 -2.12124,-0.94273 -2.12124,-2.12122 z m 40.77468,2.12123 h -10.84185 c -1.17845,0 -1.88551,-0.9428 -1.88551,-1.88555 0,0 0,0 0,0 0,-1.17847 0.9428,-1.88554 1.88551,-1.88554 h 25.9261 c 1.17843,0 1.88554,0.94277 2.12124,1.88554 0,1.17841 -0.94281,1.88555 -2.12124,1.88555 h -10.8418 v 31.81834 c -0.23544,1.17849 -1.17849,2.12122 -2.35693,1.88554 -0.94279,0 -1.88552,-0.94274 -1.88552,-1.88554 z m 25.21897,-2.12123 c 0,-1.17847 0.94281,-2.12121 2.12125,-2.12121 1.17846,0 2.12118,0.94274 2.12118,2.12121 v 33.93957 c 0,1.17849 -0.94272,2.12122 -2.12118,2.12122 -1.17844,0 -2.12125,-0.94273 -2.12125,-2.12122 z m 12.49168,34.17525 c 0,-0.47136 0,-0.70706 0.23544,-1.17843 l 15.31995,-33.4682 c 0.47136,-1.17848 1.41416,-1.88552 2.5926,-1.88552 h 0.23547 c 1.17847,0 2.35688,0.70704 2.59258,1.88552 l 15.31995,33.23253 c 0.23545,0.23593 0.23545,0.70704 0.23545,1.17842 0,1.17849 -0.94276,2.12122 -2.12121,2.12122 v 0 c -0.94273,0 -1.88554,-0.70704 -2.12124,-1.64985 l -4.00672,-8.72083 h -20.26947 l -4.00676,8.72058 c -0.23593,0.9428 -1.17843,1.41419 -2.12123,1.41419 -0.94275,0.23544 -1.88552,-0.70707 -1.88552,-1.64984 v 0 m 26.8688,-12.25596 -8.72055,-19.32671 -8.72056,19.32671 z m 17.91263,-21.91932 c 0,-1.17847 0.94273,-2.12123 2.12116,-2.12123 1.17849,0 2.12124,0.94276 2.12124,2.12123 v 20.50517 l 21.44795,-21.91932 c 0.47139,-0.47139 0.94277,-0.70708 1.64985,-0.70708 1.17844,0 2.12122,0.94276 2.12122,2.12123 0,0.47136 -0.23542,1.17845 -0.7071,1.41413 l -13.43441,13.19872 14.3772,17.67687 c 0.47137,0.47138 0.47137,0.9428 0.47137,1.64986 0,1.17847 -0.94274,2.12123 -2.12122,2.12123 -0.70706,0 -1.41414,-0.4714 -1.64983,-0.94276 l -14.14149,-17.44118 -8.01354,8.01348 v 8.24923 c 0,1.17847 -0.94275,2.12123 -2.12124,2.12123 -1.17843,0 -2.12116,-0.94276 -2.12116,-2.12123 z m 38.6534,0 c 0,-1.17847 0.94275,-2.12123 2.12121,-2.12123 1.17844,0 2.12124,0.94276 2.12124,2.12123 v 33.93958 c 0,1.17847 -0.9428,2.12123 -2.12124,2.12123 -1.17846,0 -2.12121,-0.94276 -2.12121,-2.12123 z m 30.63992,0.47136 c 0,-1.17846 0.94275,-2.12121 2.12121,-2.12121 h 12.02026 c 8.48492,0 14.14152,4.47814 14.14152,12.02025 v 0.23595 c 0,8.01347 -6.83511,12.25592 -14.84858,12.25592 h -9.19198 v 11.31318 c 0,1.17847 -0.94276,2.12124 -2.12122,2.12124 -1.17846,0 -2.12121,-0.94277 -2.12121,-2.12124 z m 13.6701,18.14826 c 6.12798,0 10.37044,-3.29966 10.37044,-8.24922 v 0 c 0,-5.42089 -4.00674,-8.24915 -10.13474,-8.24915 h -9.42767 v 16.49837 z m 37.47497,17.91256 c -9.19195,0 -15.55566,-5.65657 -15.55566,-16.26272 v -20.03375 c 0,-1.1785 0.94277,-2.12125 2.12123,-2.12125 1.17844,0 2.12125,0.94275 2.12125,2.12125 v 19.79806 c 0,8.0135 4.47812,12.72736 11.54885,12.72736 7.07075,0 11.31319,-4.24244 11.31319,-12.49167 v -20.03375 c 0,-1.1785 0.9428,-2.12125 2.12123,-2.12125 1.17849,0 2.12124,0.94275 2.12124,2.12125 v 19.56237 c -0.23547,10.84185 -6.59936,16.7341 -15.79133,16.7341 m -7.07075,-42.66016 c -0.94277,0 -1.64985,-0.70708 -1.64985,-1.64985 0,-0.94275 0.70708,-1.64981 1.64985,-1.64981 h 14.14147 c 0.94282,0 1.64986,0.70706 1.64986,1.64981 0,0.94277 -0.70704,1.64985 -1.64986,1.64985 z m 32.76109,6.36369 c 0,-1.1785 0.9428,-2.12125 2.12123,-2.12125 h 0.47137 c 0.94275,0 1.64982,0.47139 2.12124,1.17844 l 22.86207,29.22579 v -28.28298 c 0,-1.1785 0.94274,-2.12125 2.1212,-2.12125 1.17847,0 2.12124,0.94275 2.12124,2.12125 v 33.93957 c 0,0.94277 -0.70707,1.88553 -1.88555,1.88553 0,0 0,0 -0.23543,0 h -0.23593 c -0.94279,0 -1.64985,-0.4714 -2.12123,-1.41417 l -23.33349,-29.9328 v 28.99003 c 0,1.17851 -0.94274,2.12125 -2.12122,2.12125 -1.17843,0 -2.12123,-0.94274 -2.12123,-2.12125 0,0 0,0 0,0 z m 59.86573,36.29647 c -10.13475,0.47135 -18.61968,-7.54214 -19.09105,-17.67689 0,-0.47137 0,-1.17842 0,-1.64979 v -0.23593 c -0.23543,-10.3704 7.77781,-19.09101 18.14825,-19.32668 0.23545,0 0.47136,0 0.70705,0 4.71388,-0.23593 9.19203,1.17842 12.72736,4.00678 0.94279,0.70706 1.17849,2.12116 0.47138,3.06394 -0.47138,0.47138 -0.94277,0.94279 -1.64981,0.94279 -0.47138,0 -0.94278,-0.23547 -1.41418,-0.47141 -3.06397,-2.3569 -6.59935,-3.53532 -10.37044,-3.29965 -8.24917,0 -14.37715,7.07074 -14.37715,15.55564 v 0 c 0,8.9563 5.65658,15.55567 14.84859,15.55567 4.00672,0 7.7778,-1.41417 10.84177,-3.77109 v -9.42765 h -10.13473 c -0.94279,0 -1.88553,-0.94281 -1.88553,-1.88557 0,-0.94277 0.94274,-1.88551 1.88553,-1.88551 h 12.02027 c 1.17847,0 2.12121,0.94274 2.12121,2.12122 v 11.54889 c 0,0.94277 -0.47135,2.1212 -1.41412,2.59258 -3.77106,2.59267 -8.4849,4.24247 -13.4344,4.24247 m 22.15499,-2.35692 c 0,-0.47136 0,-0.70707 0.23594,-1.17842 l 15.31997,-33.46823 c 0.47137,-1.17848 1.41411,-1.88553 2.59261,-1.88553 h 0.23543 c 1.17844,0 2.35692,0.70705 2.59262,1.88553 l 15.31993,33.23254 c 0.23543,0.23594 0.23543,0.70704 0.23543,1.17842 0,1.17849 -0.94272,2.12123 -2.12119,2.12123 -0.94277,0 -1.88557,-0.70706 -2.12125,-1.64984 l -4.00676,-8.72061 h -20.74084 l -3.77108,8.95629 c -0.23544,0.94279 -1.17845,1.41416 -2.12122,1.41416 -0.94275,0 -1.88554,-0.70706 -1.64981,-1.88554 -0.23593,0 -0.23593,0 0,0 m 26.63314,-12.25592 -8.7206,-19.32675 -8.7206,19.32675 z m 33.46821,14.61284 c -10.37044,0.23592 -19.09103,-8.24915 -19.09103,-18.61965 0,-0.23588 0,-0.47136 0,-0.70704 v -0.23592 c 0,-10.6061 8.4849,-19.09099 19.09103,-19.09099 10.60612,0 19.09098,8.48489 19.09098,19.09099 0,0 0,0 0,0 v 0 c 0.23545,10.60612 -8.24917,19.32671 -18.61961,19.32671 -0.23541,0.23548 -0.47137,0.23548 -0.47137,0.23548 m 0,-4.0068 c 8.24918,0 14.84853,-6.59929 14.84853,-14.84853 0,-0.23544 0,-0.47138 0,-0.70714 v -0.23587 c 0.23594,-8.24922 -6.36365,-15.08424 -14.61284,-15.31998 0,0 0,0 0,0 -8.24923,0 -14.84859,6.59937 -14.84859,14.8486 0,0.2359 0,0.47138 0,0.70704 v 0 c -0.23545,8.24922 6.128,15.31998 14.37721,15.55565 0,0 0.23545,0 0.23545,0 m -587.81441,46.90353 h -11.31319 v -26.63313 h 11.31319 v 2.5926 h -8.2492 v 8.95627 h 6.83502 v 2.59259 h -6.83502 v 9.42765 h 8.2492 z m 14.84858,-26.39747 h 2.82828 v 26.39747 h -2.82828 l -8.24922,-20.03379 h -0.23543 v 20.03379 h -2.82829 v -26.63313 h 3.29966 l 7.54217,18.85528 h 0.23592 z m 18.38392,26.39747 h -11.31317 v -26.63313 h 11.31317 v 2.5926 h -8.2492 v 8.95627 h 6.83512 v 2.59259 h -6.83512 v 9.42765 h 8.2492 z m 13.90581,-18.85533 c 0,-3.06399 -0.94276,-4.94952 -4.94951,-4.94952 h -2.3569 v 9.899 h 2.59259 c 3.77106,0 4.71382,-1.88547 4.71382,-4.94948 m 0.70712,18.85533 c -0.47139,-0.94279 -0.9428,-1.88554 -0.9428,-2.82832 l -0.94276,-5.1852 c -0.47137,-2.82829 -1.64985,-3.5354 -4.00676,-3.5354 h -2.12121 v 11.54892 h -3.064 v -26.63313 h 5.89227 c 5.42093,0 7.54216,2.82828 7.54216,7.3064 0.23544,3.06398 -1.88554,6.12799 -4.94951,6.59937 v 0 c 2.12122,0.23593 3.29966,1.88555 3.77104,4.47815 l 0.94277,4.71383 c 0.23543,1.17848 0.47138,2.12122 1.17844,3.06396 z m 19.79809,-13.19874 v 13.19874 h -2.35694 l -0.47135,-3.2997 c -0.47137,2.12122 -2.35692,3.5354 -4.47813,3.5354 -4.94957,0 -7.54217,-4.94951 -7.54217,-13.19876 0,-8.24919 2.5926,-13.90576 7.77786,-13.90576 4.47812,0 5.89224,3.53534 6.36367,7.3064 l -2.82836,0.94278 c -0.23543,-2.8283 -1.1784,-5.42089 -3.771,-5.42089 -3.06405,0 -4.71388,4.7138 -4.71388,11.07747 0,6.36369 1.41415,10.60616 4.71388,10.60616 2.35688,0 3.771,-2.35691 3.771,-6.36367 v -1.88555 h -3.771 v -2.59262 z m 9.19195,-0.94277 4.47815,-12.49162 h 3.06397 l -6.12799,16.02701 v 10.37043 h -3.06398 v -10.37043 l -6.12798,-16.02701 h 3.29971 z m 28.51868,14.14151 H 213.8433 v -26.63313 h 11.31317 v 2.5926 h -8.2492 v 8.95627 h 6.83504 v 2.59259 h -6.83504 v 9.42765 h 8.2492 z m 3.77104,0 v -26.63313 h 10.84182 v 2.5926 h -7.77779 v 9.19195 h 6.59937 v 2.82829 h -6.59937 v 11.7846 z m 14.14152,0 v -26.63313 h 10.84186 v 2.5926 h -7.77787 v 9.19195 h 6.59938 v 2.82829 h -6.59938 v 11.7846 z m 14.1415,-26.39747 h 3.06404 v 26.39747 h -2.82836 z m 6.59935,13.19873 c 0,-8.48489 2.5926,-13.43439 7.54217,-13.43439 4.24243,0 5.89225,3.53532 6.12795,7.3064 l -2.82829,0.94275 c -0.23545,-2.82827 -1.17843,-5.42087 -3.53534,-5.42087 -2.82833,0 -4.24244,4.47812 -4.24244,10.84179 0,6.36369 1.41411,10.84185 4.24244,10.84185 2.35691,0 3.29963,-2.5926 3.53534,-5.42095 l 2.82829,0.94279 c -0.4714,3.77105 -1.88552,7.30644 -6.36363,7.30644 -4.94956,-0.23592 -7.30649,-5.42088 -7.30649,-13.90581 M 280.544,450.15247 h 3.06396 v 26.39747 H 280.544 Z m 18.85533,26.39747 H 288.32181 V 449.91681 H 299.635 v 2.5926 h -8.24915 v 8.95627 h 6.83505 v 2.59259 h -6.83505 v 9.42765 h 8.24915 z m 14.84855,-26.63313 h 2.82829 v 26.63313 h -2.82829 l -8.24919,-20.03379 h -0.23595 v 20.03379 h -2.82827 v -26.63313 h 3.29966 l 7.54215,18.85528 h 0.23546 v -18.85528 z m 6.36369,13.19871 c 0,-8.4849 2.59261,-13.4344 7.54215,-13.4344 4.24243,0 5.65658,3.53534 6.12797,7.3064 l -2.82826,0.94278 c -0.23546,-2.8283 -1.17853,-5.42089 -3.5354,-5.42089 -2.8283,0 -4.2425,4.47811 -4.2425,10.84179 0,6.36368 1.4142,10.84184 4.2425,10.84184 2.35687,0 3.29969,-2.59267 3.5354,-5.42095 l 2.82826,0.94279 c -0.47139,3.77104 -1.88554,7.30644 -6.36366,7.30644 -4.71385,-0.2359 -7.30646,-5.18519 -7.30646,-13.9058 m 22.62641,-0.70709 4.47813,-12.25596 h 3.06403 l -5.89232,16.02701 v 10.37046 h -3.06402 v -10.37046 l -6.12795,-16.02701 h 3.29966 z m 20.50514,-7.07074 c 0,1.88552 0.70711,3.77107 1.64988,5.42093 2.12117,-0.9428 3.29968,-3.06401 3.29968,-5.42093 0,-1.88556 -0.94281,-3.29968 -2.35691,-3.29968 -1.41418,0 -2.59265,1.41412 -2.59265,3.29968 m 2.12123,18.85535 c 1.41416,0 2.82833,-0.9428 3.5354,-2.12123 l -5.18521,-7.77785 c -1.64985,1.17848 -2.35691,3.29971 -2.12122,5.1852 0,2.59265 1.41411,4.71388 3.77103,4.71388 m 4.94957,0 c -2.12124,2.82828 -6.12799,3.53532 -8.95629,1.41411 -1.88554,-1.41411 -2.82833,-3.77102 -2.59264,-6.12799 0,-2.82829 1.41416,-5.65658 3.77106,-7.30643 -1.41415,-1.88554 -2.12123,-4.24243 -2.12123,-6.83504 -0.23541,-3.06398 2.12123,-5.42088 4.94953,-5.65657 0,0 0.23544,0 0.23544,0 2.82834,0 5.18527,2.12119 5.42095,4.9495 0,0.23594 0,0.47138 0,0.70707 0,3.06397 -1.88557,5.89232 -4.71382,7.3064 l 4.0067,6.36369 c 0.70712,-2.59261 0.9428,-5.1852 0.70712,-7.77777 l 2.82828,0.70704 c 0,3.29972 -0.47136,6.59937 -1.88556,9.66332 l 3.06404,4.94957 h -3.2997 z m 13.43439,-10.84184 c 0,-8.48489 2.5926,-13.43439 7.54213,-13.43439 4.24246,0 5.65664,3.53532 6.12799,7.3064 l -2.82828,0.94275 c -0.23593,-2.82827 -1.17848,-5.42087 -3.5354,-5.42087 -2.82827,0 -4.24244,4.47812 -4.24244,10.84179 0,6.36369 1.41417,10.84185 4.24244,10.84185 2.35692,0 3.29965,-2.5926 3.5354,-5.42095 l 2.82828,0.94279 c -0.47135,3.77105 -1.88553,7.30644 -6.36368,7.30644 -4.94952,-0.47137 -7.30644,-5.42088 -7.30644,-13.90581 m 23.80486,-13.67008 c 5.18522,0 7.77782,4.9495 7.77782,13.67008 0,8.72061 -2.5926,13.67012 -7.77782,13.67012 -5.18523,0 -7.77783,-4.94951 -7.77783,-13.67012 0,-8.72058 2.5926,-13.67008 7.77783,-13.67008 m 0,2.82829 c -3.29968,0 -4.47818,4.24242 -4.47818,10.84179 0,6.59937 1.41417,10.84184 4.47818,10.84184 3.06399,0 4.47812,-4.24247 4.47812,-10.84184 0,-6.59937 -1.41413,-10.84179 -4.47812,-10.84179 m 22.39071,-2.35694 h 2.8283 v 26.39747 h -2.8283 l -8.24921,-20.03379 h -0.23543 v 20.03379 h -2.82834 v -26.63313 h 3.53538 l 7.54217,18.85528 h 0.23543 z m 12.49165,26.63317 c -4.24247,0 -7.07075,-2.82828 -6.83508,-8.24922 l 2.82829,-0.70705 c -0.23546,3.771 1.41418,6.36367 4.00679,6.36367 2.3569,0 3.77106,-1.41419 3.77106,-4.00679 0,-5.6566 -9.89907,-6.59937 -9.89907,-13.90577 -0.23546,-3.53539 2.59266,-6.36367 6.12801,-6.59936 0.23542,0 0.23542,0 0.47135,0 4.00677,0 6.36368,2.59259 6.36368,7.3064 l -2.82829,0.70709 c 0,-2.8283 -0.94276,-5.1852 -3.53539,-5.1852 -1.88556,0 -3.53535,1.41412 -3.53535,3.29965 0,0.23545 0,0.23545 0,0.47137 0,5.42087 9.89903,6.36362 9.89903,13.90579 0.23544,3.53536 -2.5926,6.59936 -6.12799,6.83505 -0.47137,0 -0.70704,0 -0.70704,-0.23594 m 20.97656,-0.23542 h -11.31323 v -26.63317 h 11.31323 v 2.59262 h -8.24921 v 8.95626 h 6.83505 v 2.5926 h -6.83505 v 9.42765 h 8.24921 z m 13.90581,-18.85536 c 0,-3.06398 -0.9428,-4.9495 -4.94954,-4.9495 h -2.3569 v 9.899 h 2.5926 c 4.00675,0 4.94949,-1.8855 4.71384,-4.9495 m 0.94272,18.85536 c -0.47135,-0.94281 -0.94272,-1.88556 -0.94272,-2.82833 l -0.9428,-4.94954 c -0.47139,-2.82827 -1.64979,-3.53537 -4.00674,-3.53537 h -2.12125 v 11.31324 h -3.06399 v -26.63317 h 5.8923 c 5.42089,0 7.54212,2.82831 7.54212,7.30643 0.23547,3.06398 -1.88549,6.12798 -4.94952,6.59937 v 0 c 2.12125,0.23593 3.29971,1.88556 3.77109,4.47814 l 0.94274,4.71383 c 0.23544,1.17846 0.47137,2.12122 1.17848,3.06394 z m 16.96982,-26.63317 h 3.06397 l -6.36366,26.63317 h -3.29967 l -6.12798,-26.39747 h 3.29968 l 4.71384,21.2122 v 0 z m 8.01352,16.4984 h 5.65657 l -2.82827,-12.72736 v 0 z m 5.89227,2.3569 h -6.59937 l -1.6498,7.54217 h -3.06405 l 5.89232,-26.39747 h 4.00677 l 5.89227,26.63317 h -3.06399 z m 10.13475,7.77787 v -23.80486 h -5.42092 v -2.59261 h 14.14154 v 2.59261 h -5.42093 v 23.80486 z m 11.54887,-26.63317 h 3.06399 v 26.63317 h -3.06399 z m 14.37722,-0.23592 c 5.1852,0 7.7778,4.94953 7.7778,13.67011 0,8.72059 -2.5926,13.67011 -7.7778,13.67011 -5.18524,0 -7.77783,-4.94952 -7.77783,-13.67011 0,-8.72058 2.59259,-13.67011 7.77783,-13.67011 m 0,2.5926 c -3.29969,0 -4.47812,4.24245 -4.47812,10.84181 0,6.59937 1.41413,10.84183 4.47812,10.84183 3.06399,0 4.47814,-4.24246 4.47814,-10.84183 0,-6.59936 -1.17846,-10.84181 -4.47814,-10.84181 m 22.39071,-2.35692 h 2.82828 v 26.63315 h -2.82828 l -8.24922,-20.03378 h -0.23545 v 20.03378 h -2.82828 V 449.9165 h 3.29965 l 7.54212,18.85531 h 0.23594 z m 20.50515,16.4984 h 5.65658 l -2.82831,-12.72737 v 0 z m 6.12799,2.35691 h -6.59936 l -1.64984,7.54215 h -3.064 l 5.89227,-26.39746 h 4.00676 l 6.128,26.63315 h -3.06402 z m 13.9058,5.42093 c 3.06396,0 3.7711,-2.59265 3.7711,-6.128 v -17.91256 h 3.06396 v 18.14826 c 0,5.42089 -2.12125,8.48489 -6.83506,8.48489 -4.71383,0 -6.83504,-3.29969 -6.83504,-8.48489 v -18.14826 h 3.06395 v 17.91256 c 0,3.29965 0.70712,6.128 3.77109,6.128 m 15.08429,2.35691 v -23.80486 h -5.42096 v -2.59261 h 14.14153 v 2.59261 h -5.42092 v 23.80486 z m 11.54884,0 v -26.39747 h 3.06399 v 11.7846 h 8.2492 v -11.7846 h 3.06405 v 26.39747 h -3.06405 v -12.02029 h -8.2492 v 12.02029 z m 25.45472,-26.86883 c 5.18522,0 7.77784,4.94953 7.77784,13.67011 0,8.72059 -2.59262,13.67011 -7.77784,13.67011 -5.18523,0 -7.77783,-4.94952 -7.77783,-13.67011 0,-8.72058 2.5926,-13.67011 7.77783,-13.67011 m 0,2.82829 c -3.29969,0 -4.47812,4.24243 -4.47812,10.84182 0,6.59937 1.41413,10.84181 4.47812,10.84181 3.064,0 4.47817,-4.24244 4.47817,-10.84181 0,-6.59939 -1.17849,-10.84182 -4.47817,-10.84182 m 21.68362,5.1852 c 0,-3.06396 -0.94278,-4.94952 -4.94953,-4.94952 h -2.3569 v 9.89902 h 2.59259 c 3.77106,0 4.71384,-1.8855 4.71384,-4.9495 m 0.7071,18.85534 c -0.47139,-0.94278 -0.9428,-1.88552 -0.9428,-2.82832 l -0.94277,-4.94952 c -0.47136,-2.82827 -1.64983,-3.53533 -4.00675,-3.53533 h -2.3569 v 11.31317 h -3.06396 V 449.9165 h 5.89224 c 5.42094,0 7.54216,2.82829 7.54216,7.30643 0.23594,3.06398 -1.88554,6.128 -4.94956,6.59936 v 0 c 2.12124,0.23593 3.29971,1.88555 3.77106,4.47815 l 0.94277,4.71382 c 0.23593,1.17848 0.47135,2.12124 1.17848,3.06398 z m 6.12793,-26.39747 h 3.06404 v 26.39747 h -3.06404 z m 11.54892,26.39747 v -23.80486 h -5.42092 v -2.59261 h 14.14154 v 2.59261 h -5.42094 v 23.80486 z m 17.6769,-14.14151 4.47812,-12.25596 h 3.06398 l -6.12799,16.02702 v 10.37045 h -3.06397 V 466.1792 l -6.128,-16.02702 h 3.2997 z"
   id="path4-5"
   style="fill:#1a1a18;stroke-width:2.35692"
   inkscape:export-xdpi="600"
   inkscape:export-ydpi="600" /><text
   xml:space="preserve"
   style="font-style:normal;font-weight:normal;font-size:61.3363px;line-height:1.25;font-family:sans-serif;fill:#000000;fill-opacity:1;stroke:none;stroke-width:1.5334"
   x="652.33911"
   y="58.594189"
   id="text88"><tspan
     sodipodi:role="line"
     id="tspan86"
     x="652.33911"
     y="58.594189"
     style="stroke-width:1.5334">The TIMES-NZ 2.0 model is brought to you by</tspan></text></svg>
